<?xml version="1.0" encoding="utf-8"?>
<!-- Generator: Adobe Illustrator 26.0.1, SVG Export Plug-In . SVG Version: 6.00 Build 0)  -->
<svg version="1.1" id="Layer_1" xmlns="http://www.w3.org/2000/svg" xmlns:xlink="http://www.w3.org/1999/xlink" x="0px" y="0px"
	 viewBox="0 0 289.4 200" style="enable-background:new 0 0 289.4 200;" xml:space="preserve">
<style type="text/css">
	.st0{fill-rule:evenodd;clip-rule:evenodd;}
</style>
<g>
	<g>
		<g>
			<path class="st0" d="M76.3,170.7L76.3,170.7l-0.2-0.2c-0.1-0.1-0.1-0.2-0.2-0.4c-0.7-1.2-1.6-2.3-2.5-3.3c-1-1-2.1-1.8-3.3-2.5
				c-1.2-0.7-2.5-1.3-3.8-1.6c-1.4-0.4-2.8-0.5-4.2-0.5s-2.8,0.2-4.2,0.5c-1.3,0.4-2.6,0.9-3.8,1.6c-1.2,0.7-2.3,1.5-3.3,2.5
				c-1,1-1.8,2.1-2.5,3.3c-0.1,0.1-0.1,0.2-0.2,0.4l-0.1,0.2h-0.1l0,0h-2.7L61,134.5h2l16,36.2L76.3,170.7L76.3,170.7z M73,163.3
				l-11-24.9l-11,25c0.6-0.4,1.1-0.8,1.7-1.1c2.9-1.7,6-2.5,9.3-2.5c1.6,0,3.3,0.2,4.9,0.6c1.6,0.4,3.1,1,4.5,1.9
				C72,162.6,72.5,162.9,73,163.3z"/>
			<path class="st0" d="M241.6,170.7L241.6,170.7l-0.1-0.2c-0.1-0.1-0.1-0.2-0.2-0.4c-0.7-1.2-1.6-2.3-2.5-3.3c-1-1-2.1-1.8-3.3-2.5
				c-1.2-0.7-2.5-1.3-3.8-1.6c-1.4-0.4-2.8-0.5-4.2-0.5c-1.4,0-2.8,0.2-4.2,0.5c-1.4,0.4-2.6,0.9-3.8,1.6c-1.2,0.7-2.3,1.5-3.3,2.5
				c-1,1-1.8,2.1-2.5,3.3c-0.1,0.1-0.1,0.2-0.2,0.4l-0.1,0.2h-0.1l0,0h-2.7l15.9-36.2h2l16,36.2L241.6,170.7L241.6,170.7z
				 M238.3,163.3l-11-24.9l-11,25c0.6-0.4,1.1-0.8,1.7-1.1c2.9-1.7,6-2.5,9.3-2.5c1.7,0,3.3,0.2,4.9,0.6c1.6,0.4,3.1,1,4.4,1.9
				C237.2,162.6,237.8,162.9,238.3,163.3z"/>
			<path class="st0" d="M99.8,157.2l7.8,13.5h-2.9L97.4,158c-0.3,0.1-0.6,0.1-0.9,0.1c-0.5,0.1-1,0.1-1.4,0.1h-6.8v-2.5h6.8
				c0.8,0,1.7-0.1,2.5-0.3c0.8-0.2,1.6-0.5,2.3-0.9c0.7-0.4,1.4-0.9,2-1.5c0.6-0.6,1.1-1.2,1.5-1.9c0.9-1.4,1.3-3,1.3-4.7
				c0-0.8-0.1-1.7-0.3-2.5c-0.2-0.8-0.5-1.5-1-2.2c-0.4-0.7-0.9-1.3-1.5-1.9c-0.6-0.6-1.2-1.1-2-1.5c-0.7-0.4-1.5-0.7-2.3-0.9
				c-0.8-0.2-1.7-0.3-2.5-0.3h-9.6v33.7H83v-36.2h12c1.1,0,2.1,0.1,3.1,0.4c1,0.3,2,0.7,2.9,1.2c0.9,0.5,1.7,1.1,2.5,1.8
				c0.7,0.7,1.4,1.5,1.9,2.4c0.5,0.9,1,1.8,1.2,2.8c0.3,1,0.4,2.1,0.4,3.1c0,1.3-0.2,2.5-0.6,3.7c-0.4,1.2-1,2.3-1.7,3.2
				c-0.7,1-1.6,1.8-2.6,2.6C101.5,156.4,100.7,156.9,99.8,157.2"/>
			<path class="st0" d="M147.6,152.3L147.6,152.3c-0.1,1.7-0.2,3.3-0.6,4.9c-0.2,0.8-0.5,1.7-0.8,2.5c-0.3,0.8-0.7,1.6-1.2,2.3l0,0
				c-0.8,1.4-1.8,2.6-2.9,3.7c-1.1,1.1-2.4,2.1-3.8,2.9c-1.4,0.8-2.9,1.5-4.4,1.9c-1.6,0.4-3.2,0.6-4.9,0.6c-1.6,0-3.3-0.2-4.9-0.6
				c-1.6-0.4-3-1.1-4.4-1.9c-1.4-0.8-2.6-1.8-3.8-2.9c-1.1-1.1-2.1-2.4-2.9-3.8c-0.8-1.4-1.5-2.9-1.9-4.4c-0.4-1.6-0.6-3.2-0.6-4.9
				c0-1.7,0.2-3.3,0.6-4.9c0.4-1.6,1.1-3.1,1.9-4.4c0.8-1.4,1.8-2.6,2.9-3.8c1.1-1.1,2.4-2.1,3.8-2.9c2.9-1.7,6-2.5,9.3-2.5
				c1.7,0,3.3,0.2,4.9,0.6c1.6,0.4,3,1,4.4,1.9c1.4,0.8,2.6,1.8,3.8,2.9c1.1,1.1,2.1,2.4,2.9,3.8l0.3,0.5l-0.1,0.2
				c-0.2,0.3-0.3,0.7-0.5,1.1c-0.2,0.4-0.3,0.8-0.4,1.2l-0.3,0.8l-0.3-0.7c-0.1-0.2-0.2-0.4-0.3-0.5c-0.2-0.4-0.4-0.7-0.6-1.1
				c-0.7-1.2-1.6-2.3-2.5-3.3c-1-1-2.1-1.8-3.3-2.5c-1.2-0.7-2.5-1.3-3.8-1.6c-1.4-0.4-2.8-0.5-4.2-0.5c-1.4,0-2.8,0.2-4.2,0.5
				c-1.3,0.4-2.6,0.9-3.8,1.6c-1.2,0.7-2.3,1.5-3.3,2.5c-1,1-1.8,2.1-2.5,3.3c-0.7,1.2-1.3,2.5-1.6,3.8c-0.4,1.4-0.5,2.8-0.5,4.3
				c0,1.4,0.2,2.8,0.5,4.2c0.4,1.3,0.9,2.6,1.6,3.8c0.7,1.2,1.6,2.3,2.5,3.3c1,1,2.1,1.8,3.3,2.5c1.2,0.7,2.5,1.3,3.8,1.6
				c1.4,0.4,2.8,0.5,4.2,0.5c1.4,0,2.9-0.2,4.2-0.5c1.4-0.4,2.6-0.9,3.8-1.6c1.2-0.7,2.3-1.6,3.3-2.5c1-1,1.8-2.1,2.5-3.3l0.2-0.3
				l0.1-0.1l0.1-0.1l0.1-0.3l0.1-0.2l0.1-0.3l0.1-0.2l0.1-0.2l0.1-0.3l0.1-0.3l0-0.1l0.1-0.2l0.1-0.2l0.1-0.2l0.1-0.2l0.1-0.2
				l0.1-0.2l0.1-0.2l0.1-0.2l0.1-0.2l0-0.2l0-0.2l0-0.3l0-0.2l0-0.3l0-0.4l0-0.4l0-0.5l0-0.5c0.1-1.7,0.2-3.2,0.6-4.9
				c0.2-0.8,0.5-1.7,0.8-2.5l0.2-0.4l0.3-0.7l0,0l0,0l0.3-0.6l0.2-0.3l0,0l0.1-0.2l0.1-0.2c0.8-1.4,1.8-2.6,2.9-3.8
				c1.1-1.1,2.4-2.1,3.8-2.9c2.9-1.7,6-2.5,9.3-2.5c1.7,0,3.3,0.2,4.9,0.6c1.6,0.4,3.1,1,4.4,1.9c1.4,0.8,2.6,1.8,3.8,2.9
				c1.1,1.1,2.1,2.4,2.9,3.8c1.7,2.9,2.5,6,2.5,9.3c0,1.6-0.2,3.3-0.6,4.9c-0.4,1.6-1,3-1.9,4.4c-0.8,1.4-1.8,2.6-2.9,3.8
				c-1.1,1.1-2.4,2.1-3.8,2.9c-1.4,0.8-2.9,1.5-4.4,1.9c-1.6,0.4-3.2,0.6-4.9,0.6c-1.6,0-3.3-0.2-4.9-0.6c-1.6-0.4-3-1.1-4.4-1.9
				c-1.4-0.8-2.6-1.8-3.8-2.9c-1.1-1.1-2.1-2.4-2.9-3.8c-0.1-0.1-0.1-0.2-0.2-0.3l-0.1-0.1l0.1-0.1c0.2-0.3,0.3-0.7,0.5-1.1
				c0.2-0.4,0.3-0.8,0.4-1.2l0.3-0.8l0.3,0.7c0.1,0.2,0.2,0.4,0.2,0.5c0.2,0.4,0.4,0.7,0.6,1.1c0.7,1.2,1.6,2.3,2.5,3.3
				c1,1,2.1,1.8,3.3,2.5c1.2,0.7,2.5,1.3,3.8,1.6c1.4,0.4,2.8,0.5,4.2,0.5c1.4,0,2.9-0.2,4.2-0.5c1.3-0.4,2.6-0.9,3.8-1.6
				c1.2-0.7,2.3-1.6,3.3-2.5c1-1,1.8-2.1,2.5-3.3c0.7-1.2,1.3-2.5,1.6-3.8c0.4-1.4,0.5-2.8,0.5-4.2c0-1.4-0.2-2.9-0.5-4.3
				c-0.4-1.4-0.9-2.6-1.6-3.8c-0.7-1.2-1.6-2.3-2.5-3.3c-1-1-2.1-1.8-3.3-2.5c-1.2-0.7-2.5-1.3-3.8-1.6c-1.4-0.4-2.8-0.5-4.2-0.5
				c-1.4,0-2.8,0.2-4.2,0.5c-1.4,0.4-2.6,0.9-3.8,1.6c-1.2,0.7-2.3,1.5-3.3,2.5c-1,1-1.8,2.1-2.5,3.3l-0.2,0.3l-0.1,0.1l-0.1,0.1
				l-0.1,0.3l-0.1,0.1c-0.1,0.2-0.2,0.4-0.3,0.5l-0.1,0.2l-0.1,0.3l-0.1,0.3l-0.1,0.2l-0.1,0.2l-0.1,0.2l-0.1,0.2l-0.1,0.2l0,0.1
				l-0.1,0.2l-0.1,0.3l-0.1,0.2l0,0.1l0,0.2l0,0.2l0,0.2l-0.1,0.3l0,0.2l-0.1,0.4l0,0.5l0,0.4L147.6,152.3z"/>
			<path class="st0" d="M190.1,148.4c1.9,1.5,4.6,2.4,7,2.9c2.8,0.6,6,1.7,8.2,3.7c1.9,1.6,2.9,3.7,2.9,6.2v0
				c-0.1,1.5-0.3,2.9-1,4.2c-0.6,1.3-1.5,2.3-2.6,3.2c-1.1,0.9-2.3,1.5-3.7,1.9c-1.4,0.4-2.9,0.6-4.4,0.6c-1.2,0-2.3-0.2-3.4-0.5
				c-1.2-0.4-2.2-0.9-3.3-1.6c-1-0.7-2-1.5-2.7-2.4c-0.8-0.9-1.3-2-1.7-3.1l-0.2-0.7l2.4-0.7l0.2,0.7c0.6,1.8,1.8,3.2,3.4,4.3
				c0.8,0.5,1.7,0.9,2.6,1.2c0.9,0.3,1.8,0.4,2.7,0.4c1.2,0,2.4-0.1,3.5-0.5c1.1-0.3,2-0.8,2.9-1.5c0.8-0.6,1.5-1.4,1.9-2.3
				c0.5-1,0.7-2.1,0.7-3.2c0-1.8-0.8-3.3-2.3-4.4c-2-1.6-4.9-2.5-7.3-3l0,0h0c-2.7-0.6-5.8-1.7-7.9-3.6c-1.8-1.6-2.8-3.7-2.8-6.2
				l0,0c0.1-1.4,0.3-2.9,1-4.2c0.6-1.2,1.4-2.3,2.5-3.2c2.2-1.8,4.9-2.6,7.7-2.6c1.2,0,2.3,0.2,3.4,0.5c1.2,0.4,2.2,0.9,3.3,1.6
				c1,0.7,1.9,1.5,2.7,2.4c0.7,0.9,1.3,2,1.7,3.1l0.2,0.7l-2.4,0.7l-0.2-0.7c-0.3-0.9-0.7-1.7-1.3-2.4c-0.6-0.8-1.3-1.4-2.1-1.9
				c-1.6-1-3.4-1.6-5.3-1.6c-1.1,0-2.3,0.1-3.4,0.5c-1,0.3-1.9,0.8-2.8,1.5c-0.8,0.6-1.4,1.4-1.8,2.3c-0.5,1-0.7,2.1-0.7,3.2
				C188,145.8,188.8,147.3,190.1,148.4"/>
		</g>
		<g>
			<path d="M60.4,188.8l0.4-0.4c0.6,0.5,1.1,0.8,1.9,0.8c0.7,0,1.2-0.4,1.2-0.9v0c0-0.5-0.3-0.8-1.4-1c-1.2-0.3-1.8-0.7-1.8-1.6v0
				c0-0.9,0.8-1.5,1.8-1.5c0.8,0,1.4,0.2,1.9,0.7l-0.4,0.5c-0.5-0.4-1-0.6-1.6-0.6c-0.7,0-1.2,0.4-1.2,0.9v0c0,0.5,0.3,0.8,1.5,1.1
				c1.2,0.3,1.8,0.7,1.8,1.5v0c0,0.9-0.8,1.5-1.8,1.5C61.8,189.7,61,189.4,60.4,188.8z"/>
			<path d="M69.8,184.2h0.6v5.4h-0.6V184.2z"/>
			<path d="M75.8,186.9L75.8,186.9c0-1.5,1.1-2.8,2.7-2.8c0.9,0,1.5,0.3,2,0.7l-0.4,0.5c-0.4-0.4-0.9-0.6-1.6-0.6
				c-1.2,0-2.1,1-2.1,2.2v0c0,1.3,0.8,2.3,2.1,2.3c0.6,0,1.2-0.2,1.6-0.5v-1.3h-1.6v-0.6h2.2v2.2c-0.5,0.4-1.3,0.8-2.2,0.8
				C76.8,189.7,75.8,188.5,75.8,186.9z"/>
			<path d="M86.1,184.2h0.6l3.4,4.3v-4.3h0.6v5.4h-0.5l-3.5-4.4v4.4h-0.6V184.2z"/>
			<path d="M98.2,184.2h0.6l2.5,5.5h-0.7l-0.6-1.4H97l-0.6,1.4h-0.6L98.2,184.2z M99.8,187.6l-1.2-2.8l-1.2,2.8H99.8z"/>
			<path d="M107.1,184.8h-1.8v-0.6h4.3v0.6h-1.8v4.9h-0.6L107.1,184.8L107.1,184.8z"/>
			<path d="M114.6,187.3v-3.1h0.6v3.1c0,1.2,0.6,1.8,1.7,1.8c1,0,1.6-0.6,1.6-1.8v-3.1h0.6v3.1c0,1.6-0.9,2.4-2.3,2.4
				C115.6,189.7,114.6,188.9,114.6,187.3z"/>
			<path d="M124.6,184.2h2.3c0.7,0,1.2,0.2,1.5,0.5c0.3,0.3,0.4,0.6,0.4,1.1v0c0,0.9-0.6,1.4-1.5,1.6l1.7,2.2h-0.8l-1.6-2.1h-1.5
				v2.1h-0.6L124.6,184.2L124.6,184.2z M126.9,187c0.8,0,1.4-0.4,1.4-1.1v0c0-0.7-0.5-1.1-1.4-1.1h-1.7v2.2L126.9,187L126.9,187z"/>
			<path d="M134.2,184.2h3.9v0.6h-3.3v1.8h3v0.6h-3v1.9h3.3v0.6h-4V184.2L134.2,184.2z"/>
			<path d="M149.3,188.7l0.4-0.4c0.3,0.5,0.7,0.8,1.2,0.8c0.6,0,1.1-0.4,1.1-1.3v-3.6h0.6v3.6c0,0.6-0.2,1.1-0.5,1.4
				c-0.3,0.3-0.7,0.4-1.2,0.4C150.1,189.7,149.6,189.3,149.3,188.7z"/>
			<path d="M158.1,184.2h3.9v0.6h-3.3v1.8h3v0.6h-3v1.9h3.3v0.6h-4V184.2z"/>
			<path d="M166.9,184.2h0.7l1.5,4.5l1.5-4.5h0.5l1.5,4.5l1.5-4.5h0.6l-1.9,5.5h-0.5l-1.5-4.4l-1.5,4.4h-0.5L166.9,184.2z"/>
			<path d="M179.9,184.2h3.9v0.6h-3.3v1.8h3v0.6h-3v1.9h3.3v0.6h-4V184.2L179.9,184.2z"/>
			<path d="M189.1,184.2h0.6v4.9h3.1v0.6h-3.7V184.2z"/>
			<path d="M198,184.2h0.6v4.9h3v0.6h-3.7L198,184.2L198,184.2z"/>
			<path d="M206.8,184.2h3.9v0.6h-3.3v1.8h3v0.6h-3v1.9h3.3v0.6h-4V184.2z"/>
			<path d="M216,184.2h2.3c0.7,0,1.2,0.2,1.5,0.5c0.3,0.3,0.4,0.6,0.4,1.1v0c0,0.9-0.6,1.4-1.5,1.6l1.7,2.2h-0.8l-1.6-2.1h-1.5v2.1
				H216L216,184.2L216,184.2z M218.3,187c0.8,0,1.4-0.4,1.4-1.1v0c0-0.7-0.5-1.1-1.4-1.1h-1.7v2.2L218.3,187L218.3,187z"/>
			<path d="M227.1,187.5l-2.3-3.3h0.7l1.8,2.7l1.8-2.7h0.7l-2.3,3.3v2.2h-0.6V187.5z"/>
		</g>
	</g>
	<g>
		<path class="st0" d="M141.4,20.4c0.9-0.9,2.2-1.5,3.6-1.4c1.4,0.1,2.6,0.8,3.4,1.9c-1.6,0.9-2.9,2.2-3.8,3.9
			C143.9,23,142.8,21.5,141.4,20.4"/>
		<path class="st0" d="M162.1,24.2c1.3-0.4,2.7-0.2,3.8,0.6c1.2,0.8,1.9,2,2,3.3c-1.8,0-3.6,0.5-5.2,1.5
			C163.1,27.7,162.8,25.9,162.1,24.2"/>
		<path class="st0" d="M178.2,37.8c1.3,0.3,2.4,1.2,3,2.4c0.6,1.3,0.6,2.7,0.1,3.9c-1.6-0.9-3.4-1.4-5.2-1.4
			C177.2,41.4,178,39.6,178.2,37.8"/>
		<path class="st0" d="M185.3,57.7c0.9,0.9,1.5,2.2,1.4,3.6c-0.1,1.4-0.8,2.6-1.9,3.4c-0.9-1.6-2.2-2.9-3.9-3.8
			C182.7,60.3,184.2,59.2,185.3,57.7"/>
		<path class="st0" d="M181.5,78.4c0.4,1.3,0.2,2.7-0.6,3.8c-0.8,1.2-2,1.9-3.3,2c0-1.8-0.5-3.7-1.5-5.2
			C178,79.4,179.9,79.2,181.5,78.4"/>
		<path class="st0" d="M167.9,94.5c-0.3,1.3-1.2,2.4-2.4,3c-1.3,0.6-2.7,0.6-3.9,0.1c1-1.6,1.4-3.4,1.4-5.2
			C164.4,93.6,166.1,94.3,167.9,94.5"/>
		<path class="st0" d="M148.1,101.7c-0.9,0.9-2.2,1.5-3.6,1.4c-1.4-0.1-2.6-0.8-3.4-1.9c1.6-0.9,2.9-2.2,3.8-3.9
			C145.5,99,146.6,100.6,148.1,101.7"/>
		<path class="st0" d="M127.3,97.9c-1.3,0.4-2.7,0.2-3.8-0.6c-1.2-0.8-1.9-2-2-3.3c1.8,0,3.7-0.5,5.2-1.5
			C126.4,94.3,126.6,96.2,127.3,97.9"/>
		<path class="st0" d="M111.2,84.3c-1.3-0.3-2.4-1.2-3-2.4c-0.6-1.3-0.6-2.7-0.1-3.9c1.6,0.9,3.4,1.4,5.2,1.4
			C112.2,80.7,111.4,82.4,111.2,84.3"/>
		<path class="st0" d="M104.1,64.4c-0.9-0.9-1.5-2.2-1.4-3.6c0.1-1.4,0.8-2.6,1.9-3.4c0.9,1.6,2.2,2.9,3.9,3.8
			C106.7,61.8,105.2,62.9,104.1,64.4"/>
		<path class="st0" d="M107.9,43.6c-0.4-1.3-0.2-2.7,0.6-3.8c0.8-1.2,2-1.9,3.3-2c0,1.8,0.5,3.7,1.5,5.2
			C111.4,42.7,109.5,42.9,107.9,43.6"/>
		<path class="st0" d="M121.5,27.5c0.3-1.3,1.2-2.4,2.4-3c1.3-0.6,2.7-0.6,3.9-0.1c-0.9,1.6-1.4,3.4-1.4,5.2
			C125,28.5,123.3,27.8,121.5,27.5"/>
		<path class="st0" d="M153.1,14.6c1.3-0.8,2.9-1,4.5-0.5c1.5,0.5,2.7,1.7,3.2,3.1c-2.1,0.5-3.9,1.6-5.4,3.2
			C155.2,18.3,154.4,16.3,153.1,14.6"/>
		<path class="st0" d="M175.2,25.1c1.5,0,3,0.6,4.1,1.8c1.1,1.2,1.5,2.8,1.2,4.3c-2-0.6-4.2-0.6-6.3,0.1
			C175.2,29.3,175.5,27.2,175.2,25.1"/>
		<path class="st0" d="M189.1,45.1c1.3,0.7,2.3,2,2.6,3.6c0.3,1.6-0.1,3.2-1.1,4.4c-1.5-1.5-3.4-2.6-5.5-3.1
			C187,48.8,188.3,47.1,189.1,45.1"/>
		<path class="st0" d="M191.1,69.5c0.8,1.3,1,2.9,0.5,4.5c-0.5,1.5-1.7,2.7-3.1,3.2c-0.5-2.1-1.6-3.9-3.2-5.4
			C187.4,71.6,189.4,70.8,191.1,69.5"/>
		<path class="st0" d="M180.7,91.5c0,1.5-0.6,3-1.8,4.1c-1.2,1.1-2.8,1.5-4.3,1.2c0.6-2,0.6-4.2-0.1-6.3
			C176.4,91.5,178.6,91.8,180.7,91.5"/>
		<path class="st0" d="M160.6,105.4c-0.7,1.3-2,2.3-3.6,2.6c-1.6,0.3-3.2-0.1-4.4-1.1c1.5-1.5,2.6-3.4,3.1-5.5
			C156.9,103.3,158.6,104.6,160.6,105.4"/>
		<path class="st0" d="M136.3,107.4c-1.3,0.8-2.9,1-4.5,0.5c-1.5-0.5-2.7-1.7-3.2-3.1c2.1-0.5,3.9-1.6,5.4-3.2
			C134.2,103.7,135,105.8,136.3,107.4"/>
		<path class="st0" d="M114.2,97c-1.5,0-3-0.6-4.1-1.8c-1.1-1.2-1.5-2.8-1.2-4.3c2,0.6,4.2,0.6,6.3-0.1
			C114.2,92.8,113.9,94.9,114.2,97"/>
		<path class="st0" d="M100.3,77c-1.3-0.7-2.3-2-2.6-3.6c-0.3-1.6,0.1-3.2,1.1-4.4c1.5,1.5,3.4,2.6,5.5,3.1
			C102.4,73.3,101.1,75,100.3,77"/>
		<path class="st0" d="M98.3,52.6c-0.8-1.3-1-2.9-0.5-4.5c0.5-1.5,1.7-2.7,3.1-3.2c0.5,2.1,1.6,3.9,3.2,5.4
			C102,50.5,100,51.3,98.3,52.6"/>
		<path class="st0" d="M108.7,30.6c0-1.5,0.6-3,1.8-4.1c1.2-1.1,2.8-1.5,4.3-1.2c-0.6,2-0.6,4.2,0.1,6.3
			C113,30.6,110.8,30.3,108.7,30.6"/>
		<path class="st0" d="M128.8,16.7c0.7-1.3,2-2.3,3.6-2.6c1.6-0.3,3.2,0.1,4.4,1.1c-1.5,1.5-2.6,3.4-3.1,5.5
			C132.5,18.8,130.8,17.4,128.8,16.7"/>
		<path class="st0" d="M165.7,16.5c1.5-0.4,3.2-0.2,4.6,0.7c1.4,1,2.2,2.4,2.4,4c-2.2,0-4.4,0.6-6.3,1.8
			C166.9,20.8,166.6,18.6,165.7,16.5"/>
		<path class="st0" d="M185.2,33c1.5,0.4,2.9,1.4,3.6,2.9c0.7,1.5,0.7,3.2,0.1,4.7c-1.9-1.1-4.1-1.7-6.3-1.6
			C184,37.3,184.9,35.2,185.2,33"/>
		<path class="st0" d="M193.7,57c1.1,1.1,1.8,2.7,1.7,4.4c-0.1,1.7-1,3.2-2.3,4.1c-1.1-1.9-2.7-3.5-4.7-4.6
			C190.6,60.1,192.4,58.8,193.7,57"/>
		<path class="st0" d="M189.2,82.1c0.4,1.5,0.2,3.2-0.7,4.6c-1,1.4-2.4,2.2-4,2.4c0-2.2-0.6-4.4-1.8-6.3
			C184.9,83.2,187.2,82.9,189.2,82.1"/>
		<path class="st0" d="M172.7,101.5c-0.4,1.5-1.4,2.9-2.9,3.6c-1.5,0.7-3.2,0.7-4.7,0.1c1.1-1.9,1.7-4.1,1.6-6.3
			C168.4,100.3,170.5,101.2,172.7,101.5"/>
		<path class="st0" d="M148.8,110.1c-1.1,1.1-2.7,1.8-4.4,1.7c-1.7-0.1-3.2-1-4.1-2.3c1.9-1.1,3.5-2.7,4.6-4.7
			C145.6,106.9,147,108.8,148.8,110.1"/>
		<path class="st0" d="M123.7,105.5c-1.5,0.4-3.2,0.2-4.6-0.7c-1.4-1-2.2-2.4-2.4-4c2.2,0,4.4-0.6,6.3-1.8
			C122.5,101.2,122.8,103.5,123.7,105.5"/>
		<path class="st0" d="M104.3,89.1c-1.5-0.4-2.9-1.4-3.6-2.9c-0.7-1.5-0.7-3.2-0.1-4.7c1.9,1.1,4.1,1.7,6.3,1.6
			C105.4,84.8,104.5,86.9,104.3,89.1"/>
		<path class="st0" d="M95.7,65.1c-1.1-1.1-1.8-2.7-1.7-4.4c0.1-1.7,1-3.2,2.3-4.1c1.1,1.9,2.7,3.5,4.7,4.6
			C98.8,62,97,63.3,95.7,65.1"/>
		<path class="st0" d="M100.2,40c-0.4-1.5-0.2-3.2,0.7-4.6c0.9-1.4,2.4-2.3,4-2.4c0,2.2,0.6,4.4,1.8,6.3
			C104.5,38.9,102.2,39.2,100.2,40"/>
		<path class="st0" d="M116.7,20.6c0.4-1.5,1.4-2.9,2.9-3.6c1.5-0.7,3.2-0.7,4.7-0.1c-1.1,1.9-1.7,4.1-1.6,6.3
			C121,21.8,118.9,20.9,116.7,20.6"/>
		<path class="st0" d="M140.7,12c1.1-1.1,2.7-1.8,4.4-1.7c1.7,0.1,3.2,1,4.1,2.3c-1.9,1.1-3.5,2.7-4.6,4.7
			C143.8,15.1,142.4,13.3,140.7,12"/>
		<path class="st0" d="M142.1,29.4c0.7-0.7,1.7-1.2,2.8-1.1c1.1,0.1,2,0.6,2.6,1.5c-1.3,0.7-2.3,1.7-3,3
			C144.1,31.4,143.2,30.2,142.1,29.4"/>
		<path class="st0" d="M158.3,32.3c1-0.3,2.1-0.1,3,0.5c0.9,0.6,1.5,1.6,1.6,2.6c-1.4,0-2.8,0.4-4.1,1.1
			C159,35.1,158.8,33.6,158.3,32.3"/>
		<path class="st0" d="M170.8,42.9c1,0.2,1.9,0.9,2.4,1.9c0.5,1,0.5,2.1,0.1,3c-1.2-0.7-2.6-1.1-4.1-1.1
			C170.1,45.7,170.6,44.4,170.8,42.9"/>
		<path class="st0" d="M176.4,58.4c0.7,0.7,1.2,1.7,1.1,2.8c-0.1,1.1-0.6,2-1.5,2.6c-0.7-1.3-1.7-2.3-3-3
			C174.3,60.4,175.5,59.6,176.4,58.4"/>
		<path class="st0" d="M173.4,74.6c0.3,1,0.1,2.1-0.5,3c-0.6,0.9-1.6,1.5-2.6,1.6c0-1.4-0.4-2.8-1.1-4.1
			C170.7,75.3,172.1,75.2,173.4,74.6"/>
		<path class="st0" d="M162.8,87.1c-0.2,1-0.9,1.9-1.9,2.3c-1,0.5-2.1,0.5-3,0.1c0.7-1.2,1.1-2.6,1.1-4.1
			C160,86.4,161.4,87,162.8,87.1"/>
		<path class="st0" d="M147.3,92.7c-0.7,0.7-1.7,1.2-2.8,1.1c-1.1-0.1-2-0.6-2.6-1.5c1.3-0.7,2.3-1.7,3-3
			C145.3,90.7,146.2,91.8,147.3,92.7"/>
		<path class="st0" d="M131.1,89.8c-1,0.3-2.1,0.1-3-0.5c-0.9-0.6-1.5-1.6-1.6-2.6c1.4,0,2.8-0.4,4.1-1.1
			C130.4,87,130.6,88.5,131.1,89.8"/>
		<path class="st0" d="M118.6,79.1c-1-0.2-1.9-0.9-2.3-1.9c-0.5-1-0.5-2.1-0.1-3c1.2,0.7,2.6,1.1,4.1,1.1
			C119.3,76.4,118.8,77.7,118.6,79.1"/>
		<path class="st0" d="M113,63.7c-0.7-0.7-1.2-1.7-1.1-2.8c0.1-1.1,0.6-2,1.5-2.6c0.7,1.2,1.7,2.3,3,3
			C115.1,61.6,113.9,62.5,113,63.7"/>
		<path class="st0" d="M116,47.5c-0.3-1-0.1-2.1,0.5-3c0.6-0.9,1.6-1.5,2.6-1.6c0,1.4,0.4,2.8,1.1,4.1
			C118.7,46.7,117.3,46.9,116,47.5"/>
		<path class="st0" d="M126.6,34.9c0.2-1,0.9-1.9,1.9-2.3c1-0.5,2.1-0.5,3-0.1c-0.7,1.2-1.1,2.6-1.1,4.1
			C129.4,35.7,128,35.1,126.6,34.9"/>
		<path class="st0" d="M151.3,24.9c1-0.6,2.3-0.8,3.5-0.4c1.2,0.4,2.1,1.3,2.5,2.4c-1.6,0.4-3.1,1.3-4.2,2.5
			C152.9,27.8,152.3,26.2,151.3,24.9"/>
		<path class="st0" d="M168.5,33c1.2,0,2.4,0.5,3.2,1.4c0.8,1,1.2,2.2,1,3.4c-1.6-0.5-3.3-0.4-4.9,0C168.5,36.3,168.7,34.6,168.5,33
			"/>
		<path class="st0" d="M179.3,48.6c1,0.6,1.8,1.6,2.1,2.8c0.2,1.3-0.1,2.5-0.8,3.4c-1.1-1.2-2.6-2-4.2-2.4
			C177.6,51.5,178.7,50.2,179.3,48.6"/>
		<path class="st0" d="M180.9,67.6c0.6,1,0.8,2.3,0.4,3.5c-0.4,1.2-1.3,2.1-2.4,2.5c-0.4-1.6-1.3-3.1-2.5-4.2
			C178,69.3,179.6,68.6,180.9,67.6"/>
		<path class="st0" d="M172.7,84.8c0,1.2-0.5,2.4-1.4,3.2c-1,0.8-2.2,1.2-3.4,1c0.5-1.6,0.5-3.3,0-4.9
			C169.4,84.8,171.1,85,172.7,84.8"/>
		<path class="st0" d="M157.1,95.6c-0.6,1-1.6,1.8-2.8,2.1c-1.2,0.2-2.5-0.1-3.4-0.8c1.2-1.1,2-2.6,2.4-4.2
			C154.2,94,155.6,95,157.1,95.6"/>
		<path class="st0" d="M138.1,97.2c-1,0.6-2.3,0.8-3.5,0.4c-1.2-0.4-2.1-1.3-2.5-2.4c1.6-0.4,3.1-1.3,4.2-2.5
			C136.5,94.3,137.1,95.9,138.1,97.2"/>
		<path class="st0" d="M120.9,89.1c-1.2,0-2.4-0.5-3.2-1.4c-0.8-1-1.1-2.2-1-3.4c1.6,0.5,3.3,0.5,4.9,0
			C120.9,85.8,120.7,87.4,120.9,89.1"/>
		<path class="st0" d="M110.1,73.4c-1-0.6-1.8-1.6-2.1-2.8c-0.2-1.2,0.1-2.5,0.8-3.4c1.1,1.2,2.6,2,4.3,2.4
			C111.8,70.6,110.7,71.9,110.1,73.4"/>
		<path class="st0" d="M108.5,54.5c-0.6-1-0.8-2.3-0.4-3.5c0.4-1.2,1.3-2.1,2.4-2.5c0.4,1.6,1.3,3.1,2.5,4.2
			C111.4,52.8,109.8,53.5,108.5,54.5"/>
		<path class="st0" d="M116.7,37.3c0-1.2,0.5-2.4,1.4-3.2c1-0.8,2.2-1.1,3.4-1c-0.5,1.6-0.5,3.3,0,4.9C120,37.3,118.3,37,116.7,37.3
			"/>
		<path class="st0" d="M132.3,26.4c0.6-1,1.6-1.8,2.8-2.1c1.2-0.2,2.5,0.1,3.4,0.8c-1.2,1.1-2,2.6-2.4,4.2
			C135.2,28.1,133.8,27.1,132.3,26.4"/>
		<path class="st0" d="M149.2,36.4c0.7-0.4,1.5-0.5,2.4-0.3c0.8,0.3,1.4,0.9,1.7,1.7c-1.1,0.3-2.1,0.9-2.9,1.7
			C150.3,38.3,149.9,37.2,149.2,36.4"/>
		<path class="st0" d="M160.9,41.9c0.8,0,1.6,0.3,2.2,1c0.6,0.7,0.8,1.5,0.7,2.3c-1.1-0.3-2.2-0.3-3.3,0
			C160.9,44.2,161.1,43,160.9,41.9"/>
		<path class="st0" d="M168.3,52.6c0.7,0.4,1.2,1.1,1.4,1.9c0.2,0.9-0.1,1.7-0.6,2.3c-0.8-0.8-1.8-1.4-2.9-1.6
			C167.2,54.5,167.9,53.6,168.3,52.6"/>
		<path class="st0" d="M169.4,65.5c0.4,0.7,0.5,1.5,0.3,2.4c-0.3,0.8-0.9,1.4-1.7,1.7c-0.3-1.1-0.9-2.1-1.7-2.9
			C167.4,66.6,168.5,66.2,169.4,65.5"/>
		<path class="st0" d="M153.2,84.7c-0.4,0.7-1.1,1.2-1.9,1.4c-0.9,0.2-1.7-0.1-2.3-0.6c0.8-0.8,1.4-1.8,1.6-2.9
			C151.2,83.5,152.1,84.2,153.2,84.7"/>
		<path class="st0" d="M140.2,85.7c-0.7,0.4-1.6,0.5-2.4,0.3c-0.8-0.3-1.4-0.9-1.7-1.7c1.1-0.3,2.1-0.9,2.9-1.7
			C139.1,83.8,139.5,84.8,140.2,85.7"/>
		<path class="st0" d="M121.1,69.5c-0.7-0.4-1.2-1.1-1.4-1.9c-0.2-0.9,0.1-1.7,0.6-2.3c0.8,0.8,1.8,1.4,2.9,1.6
			C122.2,67.5,121.5,68.5,121.1,69.5"/>
		<path class="st0" d="M120,56.6c-0.4-0.7-0.5-1.6-0.3-2.4c0.3-0.8,0.9-1.4,1.7-1.7c0.3,1.1,0.9,2.1,1.7,2.9
			C122,55.4,120.9,55.9,120,56.6"/>
		<path class="st0" d="M125.6,44.8c0-0.8,0.3-1.6,1-2.2c0.7-0.6,1.5-0.8,2.3-0.7c-0.3,1.1-0.3,2.2,0,3.3
			C127.8,44.8,126.7,44.7,125.6,44.8"/>
		<path class="st0" d="M136.2,37.4c0.4-0.7,1.1-1.2,1.9-1.4c0.9-0.2,1.7,0.1,2.3,0.6c-0.8,0.8-1.4,1.8-1.6,2.9
			C138.2,38.6,137.3,37.8,136.2,37.4"/>
		<path class="st0" d="M152.7,44c0.6-0.2,1.2-0.1,1.8,0.3c0.5,0.4,0.9,0.9,0.9,1.5c-0.8,0-1.7,0.2-2.4,0.7
			C153.2,45.6,153.1,44.7,152.7,44"/>
		<path class="st0" d="M160.1,50.3c0.6,0.1,1.1,0.5,1.4,1.1c0.3,0.6,0.3,1.2,0,1.8c-0.7-0.4-1.6-0.7-2.4-0.6
			C159.7,51.9,160.1,51.1,160.1,50.3"/>
		<path class="st0" d="M163.4,59.4c0.4,0.4,0.7,1,0.6,1.7c0,0.6-0.4,1.2-0.9,1.6c-0.4-0.7-1-1.4-1.8-1.7
			C162.2,60.6,162.9,60.1,163.4,59.4"/>
		<path class="st0" d="M155.4,76.4c-0.1,0.6-0.5,1.1-1.1,1.4c-0.6,0.3-1.2,0.3-1.8,0c0.4-0.7,0.7-1.6,0.6-2.4
			C153.8,76,154.6,76.3,155.4,76.4"/>
		<path class="st0" d="M146.2,79.7c-0.4,0.4-1,0.7-1.7,0.6c-0.7,0-1.2-0.4-1.6-0.9c0.7-0.4,1.4-1,1.7-1.8
			C145.1,78.5,145.6,79.2,146.2,79.7"/>
		<path class="st0" d="M136.7,78c-0.6,0.2-1.2,0.1-1.8-0.3c-0.5-0.4-0.9-0.9-0.9-1.5c0.8,0,1.7-0.2,2.4-0.7
			C136.2,76.3,136.3,77.2,136.7,78"/>
		<path class="st0" d="M126,62.5c-0.4-0.4-0.7-1-0.6-1.7c0-0.7,0.4-1.2,0.9-1.6c0.4,0.7,1,1.4,1.8,1.7
			C127.2,61.3,126.5,61.8,126,62.5"/>
		<path class="st0" d="M127.7,52.9c-0.2-0.6-0.1-1.2,0.3-1.8c0.4-0.5,0.9-0.9,1.5-0.9c0,0.8,0.2,1.7,0.7,2.4
			C129.3,52.5,128.5,52.6,127.7,52.9"/>
		<path class="st0" d="M134,45.5c0.1-0.6,0.5-1.1,1.1-1.4c0.6-0.3,1.2-0.3,1.8,0c-0.4,0.7-0.7,1.6-0.6,2.4
			C135.6,46,134.8,45.6,134,45.5"/>
		<g>
			<polygon points="144.1,38.7 145.3,38.7 145.6,38.7 145.7,38.9 163.4,78.9 163.7,79.5 162.9,79.5 161.6,79.5 161.3,79.5 
				161.2,79.3 144.7,41.9 128.2,79.3 128.1,79.5 127.8,79.5 126.5,79.5 125.7,79.5 126,78.9 143.6,38.9 143.8,38.7 			"/>
			<path d="M150.2,68.3c1.8,0.5,3.4,1.2,5,2.1c1.6,0.9,3,2,4.3,3.3v0l0,0c1.3,1.3,2.4,2.7,3.3,4.3c0.3,0.5,0.6,1,0.8,1.5h-2.4
				c-0.1-0.1-0.2-0.3-0.2-0.4c-0.8-1.4-1.8-2.7-3-3.8l0,0c-1.1-1.1-2.4-2.1-3.8-3c-1.4-0.8-2.9-1.5-4.5-1.9l0,0
				c-1.6-0.4-3.2-0.6-5-0.6c-1.7,0-3.4,0.2-5,0.6c-1.6,0.4-3.1,1.1-4.5,1.9c-1.4,0.8-2.7,1.8-3.8,3c-1.1,1.1-2.1,2.4-3,3.8
				c-0.1,0.1-0.2,0.3-0.2,0.4h-2.4c0.2-0.5,0.5-1,0.8-1.5c0.9-1.6,2-3,3.3-4.3c1.3-1.3,2.7-2.4,4.3-3.3c3.2-1.9,6.7-2.8,10.5-2.8
				C146.6,67.6,148.5,67.9,150.2,68.3"/>
		</g>
	</g>
</g>
</svg>
