<?xml version="1.0" encoding="utf-8"?>
<!-- Generator: Adobe Illustrator 26.0.1, SVG Export Plug-In . SVG Version: 6.00 Build 0)  -->
<svg version="1.1" id="Layer_1" xmlns="http://www.w3.org/2000/svg" xmlns:xlink="http://www.w3.org/1999/xlink" x="0px" y="0px"
	 viewBox="0 0 1083 521" style="enable-background:new 0 0 1083 521;" xml:space="preserve">
<style type="text/css">
	.st0{fill:url(#SVGID_1_);}
	.st1{fill:#2C2F74;}
	.st2{fill:#15113E;}
</style>
<g>
	
		<linearGradient id="SVGID_1_" gradientUnits="userSpaceOnUse" x1="388" y1="441.2" x2="519.7" y2="441.2" gradientTransform="matrix(1 0 0 -1 0 522)">
		<stop  offset="0" style="stop-color:#F0753A"/>
		<stop  offset="1" style="stop-color:#DF338A"/>
	</linearGradient>
	<path class="st0" d="M519.7,15H388v131.6h131.6V15H519.7z M495.5,122.5h-83.4V39.1h83.4V122.5z"/>
	<g>
		<path class="st1" d="M676,66.1c-30.5-31-72.8-48-126.8-50.7c-1.8-0.1-3.6-0.2-5.4-0.2l0,0v19.5l0,0v49l0,0v4h4
			c20.2,0,40.1,6,56.6,17.7c4.3,3,8.4,6.4,12.4,10.3c3.4,3.3,9.8,10.1,16.1,20.2c9.3,14.8,13.9,29.7,16.1,42.5
			c1.2,8.8,1.7,18.1,1.7,27.9c0,10.1-0.6,19.7-1.9,28.7c-2.2,12.7-6.9,27.3-16,41.9c-6.3,10.1-12.7,16.8-16.1,20.2
			c-29,28.4-67.8,32.1-83.3,32.7c-23.5,0.6-47.8,0.6-72.9,0v-159H388v226.7h146.1c61.2,0,108.5-17.2,141.8-51.6
			c33.3-33.9,50-80.6,50-139.7C726,147.2,709.3,100.5,676,66.1z"/>
		<path class="st1" d="M194.6,6.4c-55.9,0-100.5,17.7-134.3,53.7s-51,84.9-51,146.1s17.2,109.6,51.6,145.6
			c33.9,36,78.4,54.3,133.8,54.3c45.7,0,85.4-13.4,118.2-39.7s52.1-63.9,56.9-112.8h-72.5c-8.1,57.5-51,89.2-102.6,89.2
			c-68.8,0-109.6-50.5-109.6-136.5c0-85.4,41.4-136.5,109.6-136.5c49.4,0,87,25.2,99.9,76.8h73.6c-8.1-45.7-27.4-80.1-59.1-104.2
			C277.4,18.3,239.2,6.4,194.6,6.4L194.6,6.4z"/>
		<path class="st1" d="M1069.3,397.5l-70.1-180.9L921,15h-84.9L690.5,397.5h74.7l0,0l0,0l29.5-84.3h167.6l21.8,61.2l8.2,23.1l0,0
			l0,0H1069.3L1069.3,397.5L1069.3,397.5z M878,79c12.4,36.2,23.6,67.9,33.8,95.4c4.7,12.8,9.2,24.7,13.5,35.7l8,22l7.1,19.4H816.8
			l4.3-12.2l10.2-29.1c5.3-14.1,10.6-28.5,16-43.2c3.2-8.7,6.3-17.5,9.5-26.4C863.8,120.5,870.9,100,878,79z"/>
	</g>
	<g>
		<path class="st2" d="M56.7,494.3c-4.5-2.5-8-5.9-10.5-10.2c-2.5-4.4-3.8-9.2-3.8-14.6c0-5.4,1.3-10.3,3.8-14.6
			c2.5-4.4,6-7.8,10.5-10.2c4.5-2.5,9.5-3.7,15.1-3.7c4.2,0,8,0.7,11.5,2.1s6.5,3.4,9,6.1l-3.8,3.8c-4.4-4.4-9.9-6.7-16.6-6.7
			c-4.4,0-8.5,1-12.1,3s-6.5,4.8-8.5,8.3c-2.1,3.5-3.1,7.5-3.1,11.9s1,8.3,3.1,11.9c2.1,3.5,4.9,6.3,8.5,8.3s7.7,3,12.1,3
			c6.7,0,12.3-2.2,16.6-6.7l3.8,3.8c-2.5,2.7-5.5,4.7-9,6.1c-3.6,1.4-7.4,2.1-11.6,2.1C66.1,498,61.1,496.7,56.7,494.3z"/>
		<path class="st2" d="M115.2,457.2c2.6-1.4,5.9-2.2,9.8-2.2v5.5l-1.4-0.1c-4.4,0-7.9,1.4-10.4,4.1c-2.5,2.7-3.8,6.5-3.8,11.5v21.5
			h-5.7v-42.2h5.4v8.3C110.5,460.8,112.5,458.6,115.2,457.2z"/>
		<path class="st2" d="M171.5,478.2h-35.3c0.3,4.4,2,7.9,5,10.6c3,2.7,6.9,4,11.5,4c2.6,0,5-0.5,7.2-1.4s4.1-2.3,5.7-4.1l3.2,3.7
			c-1.9,2.2-4.2,4-7,5.1c-2.8,1.2-5.9,1.8-9.3,1.8c-4.3,0-8.2-0.9-11.5-2.8c-3.3-1.8-5.9-4.4-7.8-7.7c-1.9-3.3-2.8-6.9-2.8-11.1
			c0-4.1,0.9-7.8,2.7-11.1s4.2-5.8,7.4-7.6c3.1-1.8,6.6-2.7,10.5-2.7s7.4,0.9,10.5,2.7s5.5,4.3,7.3,7.6c1.8,3.2,2.6,6.9,2.6,11.1
			L171.5,478.2z M141,463.8c-2.8,2.6-4.3,6-4.7,10.1h29.9c-0.4-4.2-1.9-7.5-4.7-10.1s-6.2-3.9-10.3-3.9
			C147.1,459.9,143.7,461.2,141,463.8z"/>
		<path class="st2" d="M209.4,459.2c2.9,2.8,4.4,6.8,4.4,12.2v26.1h-5.4v-6.6c-1.3,2.2-3.2,3.9-5.6,5.1c-2.5,1.2-5.4,1.8-8.9,1.8
			c-4.7,0-8.4-1.1-11.2-3.4c-2.8-2.2-4.2-5.2-4.2-8.9c0-3.6,1.3-6.5,3.9-8.7c2.6-2.2,6.7-3.3,12.4-3.3h13.4v-2.6c0-3.6-1-6.4-3-8.3
			c-2-1.9-5-2.8-8.9-2.8c-2.7,0-5.2,0.4-7.7,1.3c-2.5,0.9-4.6,2.1-6.3,3.6l-2.6-4.2c2.1-1.8,4.7-3.2,7.7-4.2s6.1-1.5,9.5-1.5
			C202.3,455,206.5,456.4,209.4,459.2z M203,491.2c2.3-1.5,4-3.6,5.1-6.4v-6.9h-13.2c-7.2,0-10.8,2.5-10.8,7.5
			c0,2.5,0.9,4.4,2.8,5.8c1.9,1.4,4.5,2.1,7.9,2.1C198,493.4,200.7,492.7,203,491.2z"/>
		<path class="st2" d="M251.5,494.9c-1.1,1-2.4,1.7-4,2.2s-3.2,0.8-4.9,0.8c-4,0-7-1.1-9.1-3.2c-2.1-2.1-3.2-5.2-3.2-9.1v-25.5h-7.5
			v-4.8h7.5v-9.2h5.7v9.2h12.8v4.8H236v25.2c0,2.5,0.6,4.4,1.9,5.7s3.1,2,5.4,2c1.2,0,2.3-0.2,3.4-0.6c1.1-0.4,2-0.9,2.8-1.6
			L251.5,494.9z"/>
		<path class="st2" d="M261.8,444.9c-0.8-0.8-1.2-1.8-1.2-2.9c0-1.1,0.4-2,1.2-2.8c0.8-0.8,1.8-1.2,3-1.2s2.2,0.4,3,1.2
			s1.2,1.7,1.2,2.8c0,1.2-0.4,2.2-1.2,3c-0.8,0.8-1.8,1.2-3,1.2C263.6,446.1,262.6,445.7,261.8,444.9z M261.9,455.3h5.7v42.2h-5.7
			V455.3z"/>
		<path class="st2" d="M317.5,459.6c3.1,3.1,4.7,7.5,4.7,13.4v24.4h-5.7v-23.9c0-4.4-1.1-7.7-3.3-10c-2.2-2.3-5.3-3.4-9.4-3.4
			c-4.5,0-8.1,1.4-10.8,4c-2.6,2.7-4,6.4-4,11.2v22.1h-5.7v-42.2h5.4v7.8c1.5-2.6,3.7-4.6,6.5-6s5.9-2.1,9.6-2.1
			C310.2,455,314.4,456.6,317.5,459.6z"/>
		<path class="st2" d="M376.8,455.3v37c0,7.2-1.8,12.5-5.2,15.9c-3.5,3.4-8.8,5.2-15.8,5.2c-3.9,0-7.6-0.6-11.1-1.7
			c-3.5-1.1-6.3-2.7-8.5-4.8l2.9-4.3c2,1.8,4.5,3.2,7.4,4.2s6,1.5,9.2,1.5c5.3,0,9.3-1.2,11.8-3.7s3.8-6.3,3.8-11.6v-5.4
			c-1.8,2.7-4.1,4.7-6.9,6.1c-2.9,1.4-6,2.1-9.5,2.1c-4,0-7.5-0.9-10.8-2.6c-3.2-1.7-5.8-4.2-7.6-7.3c-1.8-3.1-2.8-6.7-2.8-10.6
			c0-4,0.9-7.5,2.8-10.6c1.8-3.1,4.4-5.5,7.6-7.2s6.8-2.6,10.8-2.6c3.6,0,6.8,0.7,9.7,2.2s5.2,3.5,7,6.3v-8.1L376.8,455.3
			L376.8,455.3z M363.5,488.9c2.5-1.3,4.4-3.1,5.7-5.5c1.4-2.3,2-5,2-8s-0.7-5.6-2-8c-1.4-2.3-3.3-4.1-5.7-5.4c-2.4-1.3-5.2-2-8.3-2
			c-3,0-5.8,0.6-8.2,1.9c-2.4,1.3-4.3,3.1-5.7,5.4c-1.4,2.4-2,5-2,8s0.7,5.7,2,8c1.4,2.4,3.3,4.2,5.7,5.5c2.4,1.3,5.2,2,8.2,2
			S361.1,490.2,363.5,488.9z"/>
		<path class="st2" d="M415,441.4h22.8c5.9,0,11.2,1.2,15.7,3.6c4.5,2.4,8.1,5.7,10.6,9.9s3.8,9.1,3.8,14.5s-1.3,10.3-3.8,14.5
			s-6,7.6-10.6,9.9c-4.5,2.4-9.8,3.6-15.7,3.6H415V441.4z M437.5,492.4c4.9,0,9.2-1,12.9-2.9c3.7-1.9,6.5-4.6,8.6-8.1
			c2-3.4,3-7.4,3-11.9s-1-8.5-3-11.9s-4.9-6.1-8.6-8.1c-3.7-1.9-8-2.9-12.9-2.9h-16.6v45.8L437.5,492.4L437.5,492.4z"/>
		<path class="st2" d="M479.9,444.9c-0.8-0.8-1.2-1.8-1.2-2.9c0-1.1,0.4-2,1.2-2.8s1.8-1.2,3-1.2s2.2,0.4,3,1.2s1.2,1.7,1.2,2.8
			c0,1.2-0.4,2.2-1.2,3s-1.8,1.2-3,1.2C481.7,446.1,480.7,445.7,479.9,444.9z M480,455.3h5.7v42.2H480V455.3z"/>
		<path class="st2" d="M540.6,455.3v37c0,7.2-1.8,12.5-5.2,15.9c-3.5,3.4-8.8,5.2-15.8,5.2c-3.9,0-7.6-0.6-11.1-1.7
			c-3.5-1.1-6.3-2.7-8.5-4.8l2.9-4.3c2,1.8,4.5,3.2,7.4,4.2s6,1.5,9.2,1.5c5.3,0,9.3-1.2,11.8-3.7s3.8-6.3,3.8-11.6v-5.4
			c-1.8,2.7-4.1,4.7-6.9,6.1c-2.9,1.4-6,2.1-9.5,2.1c-4,0-7.5-0.9-10.8-2.6c-3.2-1.7-5.8-4.2-7.6-7.3s-2.8-6.7-2.8-10.6
			c0-4,0.9-7.5,2.8-10.6c1.8-3.1,4.4-5.5,7.6-7.2c3.2-1.7,6.8-2.6,10.8-2.6c3.6,0,6.8,0.7,9.7,2.2s5.2,3.5,7,6.3v-8.1L540.6,455.3
			L540.6,455.3z M527.3,488.9c2.5-1.3,4.4-3.1,5.7-5.5c1.4-2.3,2-5,2-8s-0.7-5.6-2-8c-1.4-2.3-3.3-4.1-5.7-5.4c-2.4-1.3-5.2-2-8.3-2
			c-3,0-5.8,0.6-8.2,1.9c-2.4,1.3-4.3,3.1-5.7,5.4c-1.4,2.4-2,5-2,8s0.7,5.7,2,8c1.4,2.4,3.3,4.2,5.7,5.5s5.2,2,8.2,2
			C522,490.8,524.8,490.2,527.3,488.9z"/>
		<path class="st2" d="M556.4,444.9c-0.8-0.8-1.2-1.8-1.2-2.9c0-1.1,0.4-2,1.2-2.8s1.8-1.2,3-1.2s2.2,0.4,3,1.2s1.2,1.7,1.2,2.8
			c0,1.2-0.4,2.2-1.2,3s-1.8,1.2-3,1.2C558.2,446.1,557.2,445.7,556.4,444.9z M556.5,455.3h5.7v42.2h-5.7V455.3z"/>
		<path class="st2" d="M600.3,494.9c-1.1,1-2.4,1.7-4,2.2s-3.2,0.8-4.9,0.8c-4,0-7-1.1-9.1-3.2c-2.1-2.1-3.2-5.2-3.2-9.1v-25.5h-7.5
			v-4.8h7.5v-9.2h5.7v9.2h12.8v4.8h-12.8v25.2c0,2.5,0.6,4.4,1.9,5.7c1.3,1.3,3.1,2,5.4,2c1.2,0,2.3-0.2,3.4-0.6
			c1.1-0.4,2-0.9,2.8-1.6L600.3,494.9z"/>
		<path class="st2" d="M638,459.2c2.9,2.8,4.4,6.8,4.4,12.2v26.1H637v-6.6c-1.3,2.2-3.2,3.9-5.6,5.1c-2.5,1.2-5.4,1.8-8.9,1.8
			c-4.7,0-8.4-1.1-11.2-3.4c-2.8-2.2-4.2-5.2-4.2-8.9c0-3.6,1.3-6.5,3.9-8.7c2.6-2.2,6.7-3.3,12.4-3.3h13.4v-2.6c0-3.6-1-6.4-3-8.3
			c-2-1.9-5-2.8-8.9-2.8c-2.7,0-5.2,0.4-7.7,1.3c-2.5,0.9-4.6,2.1-6.3,3.6l-2.6-4.2c2.1-1.8,4.7-3.2,7.7-4.2s6.1-1.5,9.5-1.5
			C630.8,455,635.1,456.4,638,459.2z M631.6,491.2c2.3-1.5,4-3.6,5.1-6.4v-6.9h-13.2c-7.2,0-10.8,2.5-10.8,7.5
			c0,2.5,0.9,4.4,2.8,5.8c1.9,1.4,4.5,2.1,7.9,2.1C626.5,493.4,629.3,492.7,631.6,491.2z"/>
		<path class="st2" d="M657.9,438h5.7v59.5h-5.7V438z"/>
		<path class="st2" d="M736.8,482.5h-31.3l-6.7,15h-6.2l25.6-56.1h5.8l25.6,56.1h-6.3L736.8,482.5z M734.6,477.7l-13.5-30.1
			l-13.5,30.1H734.6z"/>
		<path class="st2" d="M759,496.4c-3.1-1-5.6-2.2-7.3-3.7l2.6-4.5c1.8,1.4,4,2.5,6.7,3.4s5.4,1.3,8.3,1.3c3.8,0,6.7-0.6,8.5-1.8
			s2.8-2.9,2.8-5.1c0-1.5-0.5-2.8-1.5-3.6c-1-0.9-2.3-1.5-3.8-2c-1.6-0.5-3.6-0.9-6.2-1.3c-3.4-0.6-6.2-1.3-8.3-2s-3.9-1.8-5.3-3.4
			c-1.5-1.6-2.2-3.8-2.2-6.7c0-3.5,1.5-6.4,4.4-8.7c2.9-2.2,7-3.4,12.3-3.4c2.7,0,5.4,0.4,8.2,1.1c2.7,0.7,5,1.7,6.7,2.8l-2.5,4.6
			c-3.5-2.4-7.6-3.6-12.4-3.6c-3.6,0-6.4,0.6-8.2,1.9c-1.8,1.3-2.8,3-2.8,5c0,1.6,0.5,2.9,1.6,3.8c1,1,2.3,1.7,3.9,2.1
			c1.5,0.5,3.7,0.9,6.4,1.4c3.4,0.6,6.1,1.3,8.1,1.9c2,0.6,3.8,1.7,5.2,3.3c1.4,1.5,2.2,3.7,2.2,6.4c0,3.7-1.5,6.6-4.6,8.8
			s-7.3,3.2-12.8,3.2C765.3,497.9,762.1,497.4,759,496.4z"/>
		<path class="st2" d="M829.1,457.7c3.2,1.8,5.7,4.3,7.5,7.6s2.7,7,2.7,11.1c0,4.2-0.9,8-2.7,11.2c-1.8,3.3-4.3,5.8-7.5,7.6
			s-6.8,2.7-10.8,2.7c-3.4,0-6.5-0.7-9.3-2.1c-2.8-1.4-5-3.5-6.8-6.2V513h-5.7v-57.7h5.4v8.3c1.7-2.8,4-4.9,6.8-6.4s6-2.2,9.5-2.2
			C822.3,455,825.9,455.9,829.1,457.7z M826,490.8c2.4-1.4,4.3-3.3,5.7-5.8s2-5.4,2-8.6c0-3.2-0.7-6-2-8.5c-1.4-2.5-3.2-4.4-5.7-5.8
			c-2.4-1.4-5.1-2.1-8-2.1c-3,0-5.7,0.7-8.1,2.1c-2.4,1.4-4.2,3.3-5.6,5.8c-1.4,2.5-2,5.3-2,8.5s0.7,6.1,2,8.6
			c1.4,2.5,3.2,4.4,5.6,5.8c2.4,1.4,5.1,2,8.1,2C820.9,492.8,823.6,492.2,826,490.8z"/>
		<path class="st2" d="M850.9,444.9c-0.8-0.8-1.2-1.8-1.2-2.9c0-1.1,0.4-2,1.2-2.8s1.8-1.2,3-1.2s2.2,0.4,3,1.2s1.2,1.7,1.2,2.8
			c0,1.2-0.4,2.2-1.2,3s-1.8,1.2-3,1.2S851.7,445.7,850.9,444.9z M851,455.3h5.7v42.2H851V455.3z"/>
		<path class="st2" d="M884,457.2c2.6-1.4,5.9-2.2,9.8-2.2v5.5l-1.4-0.1c-4.4,0-7.9,1.4-10.4,4.1c-2.5,2.7-3.8,6.5-3.8,11.5v21.5
			h-5.7v-42.2h5.4v8.3C879.3,460.8,881.3,458.6,884,457.2z"/>
		<path class="st2" d="M931.4,459.2c2.9,2.8,4.4,6.8,4.4,12.2v26.1h-5.4v-6.6c-1.3,2.2-3.2,3.9-5.7,5.1c-2.5,1.2-5.4,1.8-8.9,1.8
			c-4.7,0-8.4-1.1-11.2-3.4c-2.8-2.2-4.2-5.2-4.2-8.9c0-3.6,1.3-6.5,3.9-8.7c2.6-2.2,6.7-3.3,12.4-3.3h13.4v-2.6c0-3.6-1-6.4-3-8.3
			c-2-1.9-5-2.8-8.9-2.8c-2.7,0-5.2,0.4-7.7,1.3c-2.5,0.9-4.6,2.1-6.3,3.6l-2.6-4.2c2.1-1.8,4.7-3.2,7.7-4.2s6.1-1.5,9.5-1.5
			C924.2,455,928.4,456.4,931.4,459.2z M924.9,491.2c2.3-1.5,4-3.6,5.1-6.4v-6.9h-13.2c-7.2,0-10.8,2.5-10.8,7.5
			c0,2.5,0.9,4.4,2.8,5.8c1.9,1.4,4.5,2.1,7.9,2.1C919.9,493.4,922.7,492.7,924.9,491.2z"/>
		<path class="st2" d="M985.3,459.6c3.1,3.1,4.7,7.5,4.7,13.4v24.4h-5.7v-23.9c0-4.4-1.1-7.7-3.3-10c-2.2-2.3-5.3-3.4-9.4-3.4
			c-4.5,0-8.1,1.4-10.8,4c-2.6,2.7-4,6.4-4,11.2v22.1h-5.7v-42.2h5.4v7.8c1.6-2.6,3.7-4.6,6.5-6c2.7-1.4,5.9-2.1,9.6-2.1
			C978,455,982.2,456.6,985.3,459.6z"/>
		<path class="st2" d="M1027.7,494.9c-1.1,1-2.4,1.7-4,2.2s-3.2,0.8-4.9,0.8c-4,0-7-1.1-9.1-3.2c-2.1-2.1-3.2-5.2-3.2-9.1v-25.5H999
			v-4.8h7.5v-9.2h5.7v9.2h12.8v4.8h-12.8v25.2c0,2.5,0.6,4.4,1.9,5.7s3.1,2,5.4,2c1.2,0,2.3-0.2,3.4-0.6c1.1-0.4,2-0.9,2.8-1.6
			L1027.7,494.9z"/>
		<path class="st2" d="M1039.5,496.4c-3.1-1-5.6-2.2-7.3-3.7l2.6-4.5c1.8,1.4,4,2.5,6.7,3.4s5.5,1.3,8.3,1.3c3.8,0,6.7-0.6,8.5-1.8
			s2.8-2.9,2.8-5.1c0-1.5-0.5-2.8-1.5-3.6c-1-0.9-2.3-1.5-3.8-2c-1.6-0.5-3.6-0.9-6.2-1.3c-3.4-0.6-6.2-1.3-8.3-2
			c-2.1-0.7-3.9-1.8-5.3-3.4c-1.5-1.6-2.2-3.8-2.2-6.7c0-3.5,1.5-6.4,4.4-8.7s7-3.4,12.3-3.4c2.7,0,5.4,0.4,8.2,1.1
			c2.7,0.7,5,1.7,6.7,2.8l-2.5,4.6c-3.5-2.4-7.6-3.6-12.4-3.6c-3.6,0-6.4,0.6-8.2,1.9c-1.8,1.3-2.8,3-2.8,5c0,1.6,0.5,2.9,1.6,3.8
			c1,1,2.3,1.7,3.9,2.1c1.5,0.5,3.7,0.9,6.4,1.4c3.4,0.6,6.1,1.3,8.1,1.9c2,0.6,3.8,1.7,5.2,3.3c1.4,1.5,2.2,3.7,2.2,6.4
			c0,3.7-1.5,6.6-4.6,8.8s-7.3,3.2-12.8,3.2C1045.9,497.9,1042.6,497.4,1039.5,496.4z"/>
	</g>
</g>
</svg>
