<?xml version="1.0" encoding="utf-8"?>
<!-- Generator: Adobe Illustrator 26.0.1, SVG Export Plug-In . SVG Version: 6.00 Build 0)  -->
<svg version="1.1" id="Layer_1" xmlns="http://www.w3.org/2000/svg" xmlns:xlink="http://www.w3.org/1999/xlink" x="0px" y="0px"
	 viewBox="0 0 289.4 138.6" style="enable-background:new 0 0 289.4 138.6;" xml:space="preserve">
<style type="text/css">
	.st0{fill:#D02F35;}
	.st1{fill:#F37E2F;}
	.st2{fill:#FFFEFE;}
	.st3{fill:#2C292A;}
	.st4{fill:#F7F6F6;}
</style>
<g>
	<path class="st0" d="M252,82.8c0,0.7,0,1.4,0,2.2c-0.2,0.1-0.2,0.3-0.2,0.4c-0.1,1.7-0.4,3.3-0.9,4.9c-1.4,4.3-3.9,8-7,11.2
		c-4.2,4.3-9,7.8-14.2,10.8c-10.5,6.3-21.8,10.7-33.4,14.4c-8,2.6-16.2,4.6-24.5,6.3c-3.6,0.7-7.2,1.4-10.9,1.9
		c-2.6,0.4-5.2,0.7-7.8,1c-2.7,0.3-5.4,0.6-8.2,0.8c-2.8,0.2-5.6,0.4-8.4,0.4c-2,0-4,0-6,0c-5.5-0.1-10.9-0.5-16.3-1.5
		c-4.4-0.8-8.7-2-12.7-4.1c-2.8-1.5-5.4-3.2-7.7-5.3c2.5,0.6,5,1.1,7.5,1.6c7.8,1.6,15.6,2.5,23.5,3c3.4,0.2,6.8,0.4,10.3,0.3
		c2.9-0.1,5.8-0.1,8.7-0.2c3.2-0.2,6.5-0.4,9.7-0.7c3.6-0.3,7.2-0.8,10.8-1.4c4.8-0.8,9.6-1.8,14.4-3.1c9.4-2.5,18.4-5.8,26.9-10.4
		c5.3-2.9,10.3-6.2,14.7-10.3c4.5-4.1,8.3-8.8,10.8-14.4c2.6-6,3.4-12.2,1.9-18.7c-1.4-6.3-4.7-11.6-9-16.4
		c-3.5-3.9-7.5-7.2-11.8-10.1c-4.8-3.2-9.9-5.9-15.3-8.2c-8-3.5-16.3-6-24.9-7.8c-7.3-1.6-14.7-2.6-22.2-3.2
		c-4.1-0.3-8.2-0.5-12.3-0.6c-3.8-0.1-7.7,0.1-11.5,0.3c-2.7,0.1-5.4,0.3-8.1,0.6c-4,0.4-8,0.9-12,1.6C99,29.2,91.9,30.9,85,33.1
		c-5.2,1.7-10.3,3.7-15.3,6.1c-1.1,0.5-1.1,0.5-1.2-0.8c0-4.1,0.7-8.2,2.3-12c4.3-10,11.6-17,21.6-21.3c5.6-2.4,11.4-3.5,17.5-3.7
		c1.4,0,2.9,0,4.3,0c3.7,0.1,7.3,0.6,10.9,1.2c4.4,0.8,8.7,1.7,12.9,3.2c16.3,5.8,32.3,12.7,47.8,20.4c13,6.4,25.7,13.4,37.7,21.7
		c8,5.5,15.6,11.5,21.8,18.9c3.2,3.8,5.2,8.1,6.1,13C251.7,80.8,251.8,81.8,252,82.8z"/>
	<path class="st1" d="M68.5,38.4c0.1,1.2,0.1,1.3,1.2,0.8c5-2.4,10.1-4.4,15.3-6.1c6.9-2.2,13.9-3.9,21.1-5.1c4-0.7,8-1.2,12-1.6
		c2.7-0.3,5.4-0.5,8.1-0.6c3.8-0.2,7.7-0.4,11.5-0.3c4.1,0.1,8.2,0.3,12.3,0.6c7.5,0.6,14.9,1.6,22.2,3.2c8.5,1.8,16.8,4.3,24.9,7.8
		c5.3,2.3,10.4,5,15.3,8.2c4.3,2.9,8.3,6.2,11.8,10.1c4.3,4.7,7.5,10.1,9,16.4c1.5,6.4,0.7,12.7-1.9,18.7
		c-2.5,5.7-6.3,10.3-10.8,14.4c-4.4,4.1-9.4,7.4-14.7,10.3c-8.5,4.6-17.5,8-26.9,10.4c-4.8,1.3-9.6,2.3-14.4,3.1
		c-3.6,0.6-7.2,1.1-10.8,1.4c-3.2,0.3-6.5,0.5-9.7,0.7c-2.9,0.2-5.8,0.2-8.7,0.2c-3.4,0.1-6.8-0.1-10.3-0.3
		c-7.9-0.5-15.8-1.4-23.5-3c-2.5-0.5-5-1.1-7.5-1.6c-2.1-0.6-4.2-1.2-6.2-1.8c-9.4-2.8-18.5-6.6-26.8-11.8
		c-6.5-4.1-12.4-8.9-16.9-15.2c-3.1-4.3-5.3-9-6.2-14.2c-0.2-1.1-0.3-2.2-0.5-3.2c0-1.2,0-2.3,0-3.5c0.2-0.1,0.2-0.3,0.2-0.4
		c0.1-1.3,0.3-2.7,0.6-4c1.5-6.7,5-12.2,9.6-17.1c5.5-5.9,12.1-10.4,19.2-14.1C67.9,40.1,68.7,39.7,68.5,38.4z M135.4,29.7
		c-5.2,0.1-10.6,0.3-16,0.8c-4.5,0.4-9,1-13.4,1.7c-6.1,1-12.2,2.4-18.2,4.3c-10,3.1-19.6,7.2-28.2,13.3c-5.2,3.7-9.9,8.1-13.3,13.6
		C43,68.8,41.4,74.6,42,81c0.4,3.8,1.6,7.4,3.5,10.7c3.3,5.9,8.1,10.6,13.5,14.6c7.1,5.2,15,9,23.3,11.9c8.8,3.2,17.9,5.3,27.1,6.7
		c3.5,0.5,7,0.9,10.5,1.2c3.6,0.3,7.2,0.6,10.8,0.6c4.5,0,8.9,0.1,13.4-0.1c3.4-0.2,6.7-0.4,10.1-0.7c4.1-0.4,8.2-1,12.3-1.8
		c6.9-1.2,13.7-2.9,20.4-5.2c9.1-3.1,17.8-7.1,25.6-12.8c5.3-3.9,10-8.5,13.3-14.4c3-5.4,4.3-11.2,3.4-17.3c-0.6-4-2.1-7.7-4.3-11.2
		c-3.6-5.6-8.3-10.1-13.7-13.8c-7.6-5.3-15.9-9.1-24.7-12c-12.2-4.1-24.8-6.3-37.7-7.3C144.4,29.9,140,29.8,135.4,29.7z"/>
	<path class="st2" d="M135.4,29.7c4.6,0.1,8.9,0.2,13.3,0.5c12.8,1,25.4,3.2,37.7,7.3c8.7,2.9,17.1,6.7,24.7,12
		c5.4,3.8,10.2,8.2,13.7,13.8c2.2,3.4,3.7,7.1,4.3,11.2c0.9,6.2-0.4,11.9-3.4,17.3c-3.3,5.8-8,10.4-13.3,14.4
		c-7.8,5.7-16.5,9.7-25.6,12.8c-6.7,2.3-13.5,3.9-20.4,5.2c-4.1,0.7-8.2,1.3-12.3,1.8c-3.3,0.3-6.7,0.6-10.1,0.7
		c-4.5,0.2-8.9,0.2-13.4,0.1c-3.6,0-7.2-0.3-10.8-0.6c-3.5-0.3-7-0.7-10.5-1.2c-9.2-1.4-18.3-3.5-27.1-6.7
		c-8.3-3-16.1-6.7-23.3-11.9c-5.4-4-10.2-8.6-13.5-14.6c-1.9-3.3-3.1-6.9-3.5-10.7c-0.7-6.4,1-12.2,4.4-17.6
		c3.4-5.5,8.1-9.8,13.3-13.6c8.6-6.1,18.2-10.2,28.2-13.3c6-1.8,12-3.2,18.2-4.3c4.4-0.8,8.9-1.3,13.4-1.7
		C124.9,30,130.2,29.8,135.4,29.7z M81.4,59.8c0.2-0.1,0.4-0.2,0.6-0.2c7.4-2.8,15-4.7,22.8-6c2.8-0.5,5.5-0.8,8.3-1.2
		c2.7-0.3,5.3-0.6,8-0.8c3-0.2,6-0.3,8.9-0.4c5.7-0.2,11.3,0,17,0.3c3.8,0.2,7.7,0.6,11.5,1.1c3.4,0.4,6.7,0.9,10,1.6
		c6.9,1.3,13.6,3.1,20.1,5.7c0.1,0,0.2,0.1,0.4,0c-0.1,0-0.2-0.1-0.3-0.1c-2.5-1.4-5.2-2.5-8-3.5c-5.4-2-11-3.4-16.6-4.5
		c-4.4-0.9-8.9-1.5-13.4-1.9c-2.9-0.3-5.8-0.4-8.7-0.6c-7-0.3-14-0.2-21,0.4c-4.5,0.4-8.9,1-13.3,1.8c-6.3,1.1-12.5,2.7-18.5,4.9
		c-2.7,1-5.4,2-7.9,3.5c-0.1,0-0.2,0.1-0.3,0.1C81.2,60,81.3,59.9,81.4,59.8z M197.8,68.5c1.7,0,3.1,0,4.6,0c0.5,0,0.6-0.1,0.6-0.6
		c0-0.7-0.1-1.5,0-2.2c0.1-0.6-0.2-0.8-0.8-0.8c-4.1,0-8.1,0-12.2,0c-5.2,0-10.3,0-15.5,0c-0.5,0-0.8,0.1-0.7,0.7
		c0.1,0.8,0,1.6,0,2.4c0,0.4,0.1,0.6,0.6,0.6c1.3,0,2.5,0,3.8,0c0.7,0,0.7,0.2,0.4,0.7c-3.5,6-7,12.1-10.5,18.1
		c-0.2,0.4-0.5,0.5-0.9,0.5c-2.5,0-5,0-7.6,0c-0.4,0-0.7-0.1-0.9-0.4c-2.2-2.2-4.5-4.3-6.8-6.5c-0.2-0.2-0.4-0.3-0.4-0.6
		c3.3-0.2,5.2-0.7,7.1-1.9c2.5-1.7,3.6-4.5,2.8-7.3c-1-3.6-4.4-6.2-8.1-6.2c-11.6,0-23.2,0-34.9,0c-0.1,0-0.2,0-0.3,0
		c-0.4,0-0.5,0.1-0.5,0.5c0,0.8,0,1.7,0,2.5c0,0.5,0.1,0.7,0.7,0.7c1.1,0,2.2,0,3.2,0c0.5,0,0.7,0.1,0.7,0.6c0,6,0,12,0,18
		c0,0.5-0.1,0.7-0.6,0.6c-2.9,0-5.8,0-8.7,0c-0.5,0-0.7-0.1-0.8-0.6c-0.8-2.7-1.6-5.5-2.4-8.2c-1-3.5-2-6.9-3-10.4
		c1.6,0,3.2,0,4.7,0c0.5,0,0.6-0.1,0.6-0.6c0-0.8,0-1.7,0-2.5c0-0.5-0.2-0.6-0.7-0.6c-6.3,0-12.6,0-18.8,0c-0.5,0-0.7,0.1-0.9,0.6
		c-0.4,0.9-0.9,1.8-1.3,2.7c-1.2,2.5-2.5,5-3.7,7.5c-0.2-0.3-0.3-0.5-0.4-0.7c-1.5-2.6-3-5.1-4.3-7.8c-0.8-1.7-1.9-2.3-3.8-2.3
		c-5.8,0.2-11.6,0.1-17.3,0c-0.6,0-0.9,0.1-0.8,0.8c0.1,0.7,0.1,1.4,0,2.2c0,0.6,0.2,0.7,0.8,0.7c1.9,0,3.7,0,5.6,0
		c0.5,0,0.6,0,0.4,0.6c-1.9,6.1-3.8,12.1-5.6,18.2c-0.1,0.4-0.3,0.5-0.7,0.5c-1.1,0-2.1,0-3.2,0c-0.5,0-0.6,0.1-0.6,0.6
		c0,0.9,0,1.9,0,2.8c0,0.5,0.2,0.6,0.6,0.6c1.4,0,2.7,0,4.1,0c4.6,0,9.3,0,13.9,0c0.7,0,0.9-0.2,0.8-0.9c-0.1-0.8-0.1-1.5,0-2.3
		c0-0.6-0.1-0.9-0.8-0.8c-0.7,0.1-1.5,0-2.2,0.1c-0.7,0.1-0.9,0-0.7-0.8c0.9-2.7,1.7-5.4,2.6-8c0.3-0.9,0.5-1.8,0.9-2.8
		c0.2,0.3,0.3,0.5,0.4,0.7c2.5,4.5,5,8.9,7.5,13.4c0.6,1.1,1.2,1.7,2.5,1.5c0.6-0.1,1.2-0.1,1.7,0c0.6,0.1,0.8-0.2,1.1-0.7
		c2.4-4.6,4.9-9.2,7.4-13.7c0.2-0.3,0.2-0.6,0.6-0.8c1,3.6,2,7.1,3,10.7c0.1,0.4,0,0.6-0.5,0.6c-0.7,0-1.4,0-2.2,0
		c-0.4,0-0.5,0.1-0.5,0.5c0,0.9,0.1,1.7,0,2.6c-0.1,0.7,0.2,0.8,0.8,0.8c4.9,0,9.8,0.1,14.7,0.1c8.2,0,16.4,0,24.6,0
		c0.5,0,0.8-0.1,0.8-0.7c-0.1-0.9,0-1.8,0-2.7c0-0.5-0.2-0.7-0.7-0.6c-0.7,0-1.4,0-2.2,0c-0.5,0-0.7-0.1-0.7-0.6c0-6,0-12.1,0-18.1
		c0-0.5,0.1-0.6,0.6-0.6c3.6,0,7.2,0,10.9,0c1.1,0,2.2,0.4,3.1,1.1c1.1,0.9,1.8,2,1.7,3.4c-0.1,1.5-1,2.5-2.4,3.1
		c-0.9,0.4-1.8,0.6-2.8,0.6c-2.4,0-4.7,0-7.1,0.1c-0.8,0-1.6,0-2.4,0c0,0.1,0,0.2,0,0.2c3.3,3.6,6.6,7.1,10,10.8c-0.6,0-0.9,0-1.2,0
		c-0.7,0-1.6-0.2-2,0.1c-0.5,0.4-0.2,1.3-0.2,2c0,1.8,0,1.8,1.8,1.8c7,0,14.1-0.2,21.1-0.1c6.6,0.1,13.3,0.1,19.9,0.1
		c0.5,0,0.7-0.1,0.7-0.6c0-0.9,0-1.9,0-2.8c0-0.4-0.1-0.6-0.6-0.6c-1.1,0-2.2,0-3.2,0c-0.9,0-1.7,0-2.7,0c0.8-1.3,1.4-2.5,2.1-3.6
		c0.2-0.3,0.4-0.3,0.7-0.3c4.4,0,8.8,0,13.2,0c0.4,0,0.6,0.1,0.8,0.5c0.5,1,1.1,2,1.7,2.9c0.3,0.5,0.2,0.6-0.4,0.6
		c-1.7,0-3.4,0-5.1,0c-0.5,0-0.6,0.1-0.6,0.6c0,1,0,1.9,0,2.9c0,0.4,0.1,0.5,0.5,0.5c0.7,0,1.4,0,2.2,0c6.6,0,13.2,0,19.8,0
		c0.5,0,0.8,0,0.8-0.7c-0.1-0.9,0-1.8,0-2.7c0-0.5-0.1-0.7-0.7-0.7c-1.4,0-2.9,0-4.3,0c-0.6,0-0.8-0.2-1.1-0.6
		c-2.5-4.3-4.9-8.6-7.4-12.9C200.1,72.4,199,70.5,197.8,68.5z M189,96.8c-0.1-0.1-0.2-0.1-0.2-0.1c-0.2,0.1-0.4,0.1-0.6,0.2
		c-8.3,3.3-17,5.2-25.8,6.5c-3.5,0.5-7,0.9-10.6,1.2c-3.3,0.3-6.6,0.5-9.8,0.6c-5.5,0.2-11,0.1-16.5-0.1c-3.3-0.2-6.6-0.4-9.9-0.7
		c-4.2-0.4-8.3-1-12.4-1.8c-7.1-1.3-14.1-3.1-20.9-5.7C82,97,81.7,96.8,81.4,97c2.7,1.4,5.5,2.6,8.4,3.6c9.4,3.3,19.1,5.2,29,6.2
		c4.1,0.4,8.1,0.7,12.2,0.8c6.7,0.2,13.5-0.1,20.2-0.8c4-0.4,7.9-0.9,11.8-1.7c6.8-1.2,13.4-3,19.8-5.5
		C184.9,98.8,187,97.9,189,96.8z M95.5,49.7c1.8-1.8,1.2-4.3,0.3-5.6c-0.8-1.2-2.3-1.7-3.6-1.3c-2.2,0.6-3.2,2.5-2.5,4.9
		c0.5,1.5,1.4,2.6,3,3c0.6,0.1,1.2-0.1,1.8-0.1c0.9,0,1.9,0,2.8,0c0.4,0,0.4-0.3,0.4-0.6c0-0.4-0.3-0.3-0.5-0.3
		C96.7,49.6,96.1,49.8,95.5,49.7z M171,44.6c0.8-1.4,1.9-2,3.4-1.7c0.3,0.1,0.6,0.1,0.6-0.3c0.1-0.3-0.1-0.4-0.4-0.5
		c-2.8-0.5-5.4,2-5.1,4.9c0.2,1.4,1.2,2.3,2.6,2.3c1.2,0,2.3-1,2.4-2.3c0.1-1.5-0.5-2.4-1.9-2.7C172,44.2,171.6,44.5,171,44.6z
		 M163.4,47.2c0.6,0,1.1,0.3,1.7,0.1c2.1-0.4,3.3-1.8,3.6-4.4c0.2-1.8-0.9-3-2.8-2.9c-1,0.1-2,1.1-2.1,2.2c-0.1,1.3,0.4,2.1,1.6,2.5
		c0.7,0.2,1.2-0.1,1.9-0.2c-0.7,1.5-1.8,2.2-3.2,1.9C163.5,46.4,163.5,46.7,163.4,47.2z M176.9,114.1c-0.2-0.2-0.4-0.4-0.5-0.5
		c-1.1-1.2-2.4-2.2-3.6-3.4c-0.3-0.3-0.6-0.3-1-0.2c-0.5,0.2-0.1,0.5-0.1,0.8c0.4,1.7,0.9,3.3,1.4,5c0.1,0.2,0,0.7,0.6,0.5
		c0.5-0.2,0.2-0.5,0.1-0.8c-0.1-0.5-0.3-0.9-0.4-1.3c-0.3-1-0.6-2.1-0.9-3.4c1.5,1.6,3,2.8,4.4,4.2c0.3,0.3,0.6,0.2,0.9,0.1
		c0.4-0.2,0.1-0.5,0.1-0.7c-0.5-1.7-1-3.4-1.4-5.1c-0.1-0.2,0-0.6-0.5-0.5c-0.4,0.1-0.3,0.3-0.2,0.7
		C176,111,176.4,112.5,176.9,114.1z M209.5,64.5c-2.2,0-3.8,1.6-3.9,3.8c0,2.1,1.7,3.9,3.8,3.9c2.1,0,3.9-1.7,3.9-3.8
		C213.3,66.2,211.6,64.5,209.5,64.5z M126.1,119.2c-0.4-0.3-0.6-0.8-1-1.1c-0.4-0.5-0.7-0.8,0.2-1.2c0.8-0.3,1-1.2,0.8-1.8
		c-0.3-0.7-0.9-1-1.6-0.9c-1,0.2-1.6,1.1-1.2,2.1c0.2,0.6,0.3,1-0.4,1.3c-0.4,0.2-0.6,0.7-0.6,1.2c-0.2,1.7,1.2,2.3,2.8,2
		c0.6-0.1,1.2-0.6,1.7,0.2c0.1,0.1,0.5,0.1,0.8,0.1c-0.1-0.2-0.1-0.3-0.2-0.3c-0.6-0.5-0.8-1-0.2-1.7c0.2-0.3,0.3-0.7,0.4-1.1
		c0.1-0.2,0.1-0.4-0.2-0.5c-0.3-0.1-0.3,0-0.4,0.3C126.6,118.2,126.6,118.8,126.1,119.2z M132.1,36.5c-0.6-0.1-1.2,0.1-1.7,0.4
		c-1.2,0.8-1.2,2.4-0.1,3.2c0.6,0.4,1.3,0.5,1.9,0.9c0.6,0.3,1,0.8,0.8,1.5c-0.2,0.8-0.7,1-1.5,1.1c-0.5,0-1,0-1.4-0.2
		c-0.3-0.2-0.5-0.1-0.6,0.2c-0.1,0.4,0,0.5,0.3,0.6c0.6,0.2,1.1,0.3,1.7,0.3c0.7-0.1,1.4-0.2,1.9-0.7c1-0.9,0.8-2.6-0.4-3.3
		c-0.6-0.3-1.2-0.6-1.8-0.9c-0.6-0.3-0.9-0.8-0.7-1.4c0.2-0.6,0.6-0.9,1.3-0.9c0.4,0,0.9,0,1.3,0.2c0.2,0.1,0.4,0,0.4-0.3
		c0.1-0.3,0.1-0.4-0.2-0.5C132.9,36.6,132.5,36.4,132.1,36.5z M92.6,112.1c1.1-0.4,1.4-0.8,1.3-1.6c0-0.9-0.7-1.3-1.4-1.6
		c-0.4-0.2-0.8-0.2-1.3-0.3c-0.5-0.1-0.7,0-0.8,0.5c-0.4,1.3-0.7,2.6-1.1,3.9c-0.5,1.8-0.5,1.8,1.4,2.2c1.1,0.3,2,0,2.4-0.7
		C93.6,113.7,93.5,113.1,92.6,112.1z M176.1,46.4c0.8,0.2,1.6,0.3,2.1,0.9c0.5,0.5,0.6,1.1,0.4,1.7c-0.3,0.6-0.7,0.9-1.4,1
		c-0.7,0-1.3-0.2-1.8-0.7c-0.3-0.2-0.4-0.2-0.6,0.1c-0.2,0.3-0.1,0.4,0.1,0.6c0.5,0.4,1.1,0.7,1.7,0.8c1.3,0.3,2.6-0.5,3-1.7
		c0.4-1.2-0.2-2.4-1.6-2.9c-0.2-0.1-0.4-0.1-0.5-0.2c-0.1,0-0.3,0-0.2-0.2c0.2-0.5,0.4-1.1,0.7-1.5c0.2-0.3,0.5,0.1,0.8,0.1
		c0.5,0.1,1.1,0.3,1.6,0.5c0.4,0.2,0.4-0.1,0.5-0.3c0.1-0.3,0-0.4-0.3-0.5c-0.9-0.2-1.7-0.5-2.6-0.8c-0.3-0.1-0.5-0.1-0.6,0.3
		C177,44.5,176.6,45.4,176.1,46.4z M123.6,43.6c-0.6-1.2-1.1-2.3-1.6-3.4c-0.3-0.7-0.6-1-1.4-0.6c0.7,1.4,1.4,2.7,2.1,4.1
		c0.5,1,0.3,1.8-0.6,2.6c-0.1,0.1-0.3,0.2-0.4,0.3c-0.4,0.2-0.1,0.5,0,0.7c0.1,0.4,0.4,0.1,0.5,0c0.8-0.5,1.3-1.2,1.7-2.1
		c0.7-1.9,1.2-3.8,1.8-5.7c0.1-0.2,0.2-0.4-0.1-0.4c-0.4,0-0.8,0-0.9,0.6C124.3,40.9,123.9,42.2,123.6,43.6z M154.2,45.6
		c0.3,0,0.6,0,0.8,0c0.2,0,0.4-0.1,0.4-0.3c0-0.4-0.1-0.5-0.6-0.4c-1.4,0.2-2.5-0.4-2.7-1.4c-0.1-0.3-0.3-0.9,0.5-0.7
		c0.8,0.2,1.7,0.3,2.5,0.3c0.3,0,0.8,0.2,0.9-0.2c0.1-0.8,0.1-1.7-0.5-2.3c-0.6-0.6-1.3-0.9-2.2-0.7c-1.5,0.3-2.4,1.8-2.2,3.4
		C151.4,44.9,152.3,45.6,154.2,45.6z M140.7,39.6c-0.1-0.4,0.2-0.9-0.5-0.9c-0.7,0-0.4,0.5-0.4,0.8c-0.2,1.4,0,2.8-0.2,4.2
		c-0.1,0.4,0,0.6,0.4,0.6c0.4,0,0.5,0,0.5-0.5c0-0.9,0.1-1.8,0.1-2.7c0-0.8,0.6-1.5,1.3-1.5c1-0.1,1.5,0.6,1.4,1.8
		c-0.1,0.9-0.1,1.8-0.1,2.6c0,0.3,0.1,0.4,0.4,0.4c0.2,0,0.6,0.1,0.6-0.3c0.1-1.4,0.3-2.8,0-4.1C143.8,38.7,141.9,38.3,140.7,39.6z
		 M102.7,47.2c0.2,0.4,0.2,0.9,0.8,0.7c0.6-0.2,0.2-0.6,0.1-0.8c-0.3-1.4-0.6-2.8-1-4.1c-0.1-0.3-0.1-0.6-0.6-0.4
		c-0.4,0.1-0.5,0.3-0.4,0.7c0.2,0.8,0.4,1.6,0.6,2.4c0.1,0.5,0.2,0.9,0,1.4c-0.3,0.5-0.7,0.8-1.2,0.8c-0.6,0-1-0.4-1.1-0.9
		c-0.3-1-0.6-2.1-0.8-3.2c-0.1-0.3-0.2-0.4-0.5-0.3c-0.2,0.1-0.7,0-0.5,0.5c0.3,1.1,0.5,2.2,0.8,3.2c0.5,1.5,1.9,1.9,3.1,1.1
		C102.2,48,102.4,47.6,102.7,47.2z M113.4,116.7c0.1,0,0.1-0.1,0.2-0.1c0.9-0.3,1.2-1,1.1-1.9c-0.1-0.8-0.6-1.2-1.3-1.4
		c-0.6-0.2-1.2-0.3-1.8-0.3c-0.5,0-0.6,0.1-0.7,0.6c-0.2,1.8-0.5,3.5-0.7,5.3c0,0.2-0.2,0.6,0.3,0.6c0.4,0.1,0.5-0.2,0.5-0.6
		c0.1-0.6,0.1-1.1,0.2-1.7c0-0.2,0-0.5,0.3-0.5c0.7-0.1,1.5,0.4,1.7,1.1c0.1,0.4,0.2,0.9,0.2,1.3c0,0.6,0.3,0.8,0.9,0.8
		C114.1,117.6,114.1,117.5,113.4,116.7z M108.3,46.2c0,0.7,0.4,0.7,0.8,0.5c0.5-0.2,0.1-0.5,0-0.8c-0.1-0.8-0.4-1.5-0.5-2.3
		c-0.2-2.2-1.8-2.6-3.6-1.7c-0.2,0.1-0.7,0.1-0.4,0.7c0.3,0.6,0.5,0,0.7-0.1c1.1-0.5,1.8-0.4,2.2,0.3c0.2,0.4,0.1,0.6-0.3,0.6
		c-0.5,0.1-1.1,0.3-1.5,0.6c-0.9,0.6-1.2,1.8-0.7,2.6c0.6,0.8,1.8,0.9,2.7,0.2C107.8,46.8,108,46.5,108.3,46.2z M164.1,115.2
		c0.9-0.8,1-1.4,0.7-2.2c-0.4-0.9-1.1-1.1-1.9-1c-0.6,0-1.1,0.2-1.6,0.3c-0.4,0.1-0.6,0.2-0.5,0.7c0.4,1.8,0.7,3.5,1,5.3
		c0,0.2,0,0.6,0.4,0.5c0.3-0.1,0.6-0.2,0.4-0.6c-0.2-0.6-0.3-1.2-0.4-1.8c0-0.2-0.2-0.4,0.2-0.5c0.9-0.3,1.6-0.1,2,0.8
		c0.2,0.4,0.4,0.9,0.6,1.3c0.1,0.3,0.4,0.3,0.6,0.2c0.1,0,0.3-0.1,0.2-0.3C165.4,117,165.3,115.8,164.1,115.2z M133.1,118.1
		c0.2-0.1,0.3-0.2,0.4-0.2c0.7-0.5,1-1.2,0.8-1.9c-0.2-0.8-0.8-1.2-1.7-1.2c-0.6,0-1.2,0-1.8,0c-0.3,0-0.5,0-0.5,0.4
		c0,1.9,0,3.8,0,5.7c0,0.2,0,0.4,0.3,0.4c0.2,0,0.4,0,0.4-0.3c0.1-0.7,0.1-1.3,0.1-2c0-0.2-0.1-0.4,0.2-0.5c0.8-0.2,1.5,0.2,1.8,0.9
		c0.1,0.4,0.3,0.8,0.3,1.3c0.1,0.7,0.5,0.7,1,0.6C134,120.1,134.2,118.8,133.1,118.1z M101.7,114.3c0.2-0.9,0.3-1.7,0.5-2.5
		c0-0.2,0.3-0.5-0.2-0.5c-0.3,0-0.5,0-0.6,0.4c-0.3,1.8-0.7,3.6-1.1,5.4c0,0.2-0.1,0.5,0.3,0.6c0.4,0.1,0.4-0.2,0.5-0.4
		c0.1-0.5,0.2-1.1,0.3-1.6c0.1-0.5,0.4-0.7,0.8-0.8c0.3-0.1,0.3,0.4,0.4,0.6c0.3,0.7,0.7,1.5,0.9,2.3c0.2,0.5,0.5,0.7,1.1,0.7
		c-0.5-1.2-0.9-2.3-1.4-3.4c-0.3-0.7-0.1-1,0.4-1.3c0.7-0.5,1.4-1.1,2.1-1.6C103.9,111.9,103.2,113.6,101.7,114.3z M159.1,117.1
		c0,0.7-0.2,1.4-0.9,1.7c-1,0.5-2.1-0.1-2.3-1.4c-0.2-1.2-0.4-2.3-0.5-3.5c0-0.3-0.1-0.6-0.5-0.6c-0.5,0-0.3,0.3-0.3,0.6
		c0,0.4,0.1,0.7,0.2,1.1c0.2,1.1,0.2,2.2,0.6,3.3c0.4,1,1.1,1.5,2.2,1.4c1.1-0.1,1.9-0.7,2.2-1.7c0.4-1.7-0.3-3.4-0.5-5.1
		c0-0.3-0.2-0.2-0.4-0.2c-0.2,0.1-0.4,0.1-0.4,0.4c0,0.3,0.1,0.6,0.1,0.9C158.8,115,158.9,116,159.1,117.1z M166.9,117.2
		c0.1,0.2-0.3,0.6,0.2,0.6c0.4,0.1,0.6-0.2,0.6-0.6c0-0.2,0-0.4,0-0.7c-0.1-0.8,0.3-1.1,1-1.2c1.4-0.2,1.4-0.3,2.1,1
		c0.1,0.1,0.1,0.2,0.2,0.3c0.2,0.3,0.5,0.3,0.8,0.2c0.4-0.2,0-0.4-0.1-0.6c-1-1.6-2-3.2-3-4.9c-0.2-0.3-0.3-0.5-0.7-0.4
		c-0.4,0.1-0.6,0.3-0.7,0.7C167.2,113.4,167,115.3,166.9,117.2z M99,117.2c-0.2-2.2-0.4-4.3-0.5-6.5c0-0.3-0.3-0.4-0.5-0.4
		c-0.3,0-0.5-0.1-0.7,0.2c-1.1,1.7-2.2,3.4-3.2,5.1c-0.2,0.4-0.1,0.5,0.3,0.5c0.5,0.1,0.5-0.3,0.7-0.6c0.3-0.4,0.4-1.1,0.9-1.1
		c0.7,0,1.4,0.1,2,0.4c0.4,0.2,0.3,0.9,0.3,1.4C98.1,116.9,98.2,117.3,99,117.2z M154.5,119.9c-0.9-1.9-1.8-3.8-2.6-5.6
		c-0.2-0.4-0.4-0.5-0.8-0.4c-0.3,0-0.5,0-0.6,0.4c-0.4,2-0.9,4-1.3,6c-0.1,0.3,0,0.4,0.4,0.4c0.7-0.1,0.4-0.7,0.6-1.1
		c0.2-0.3,0-1,0.4-1.1c0.6-0.2,1.4-0.3,2-0.2c0.5,0.1,0.5,0.8,0.7,1.2C153.6,120,153.9,120.2,154.5,119.9z M108.9,116
		c0.2,0,0.5,0.3,0.5-0.2c0.1-0.4-0.3-0.4-0.5-0.5c-0.2-0.1-0.4,0-0.7-0.1c-1.4-0.3-1.3-0.3-1.1-1.7c0.1-0.6,0.4-0.6,0.9-0.5
		c0.5,0.1,1,0.2,1.5,0.3c0.3,0.1,0.4-0.1,0.5-0.4c0.1-0.3-0.2-0.3-0.4-0.3c-0.9-0.2-1.8-0.3-2.7-0.5c-0.2,0-0.4-0.1-0.4,0.3
		c-0.3,1.9-0.7,3.8-1,5.7c0,0.2-0.1,0.4,0.1,0.5c1,0.2,2.1,0.4,3.1,0.5c0.3,0,0.4-0.2,0.4-0.4c0.1-0.3-0.2-0.2-0.4-0.2
		c-0.6-0.1-1.3-0.3-1.9-0.3c-0.4,0-0.5-0.2-0.4-0.6c0.1-0.6,0-1.4,0.4-1.7c0.4-0.4,1.1,0.1,1.7,0.1C108.6,116,108.7,116,108.9,116z
		 M135.5,117.5c0.1,1.1,0,2.1,0.1,3.2c0,0.2-0.1,0.5,0.3,0.5c1,0,2,0,3.1,0c0.2,0,0.3-0.2,0.3-0.4c0-0.2-0.1-0.3-0.4-0.3
		c-0.6,0-1.2,0-1.7,0.1c-0.7,0.1-0.8-0.2-0.8-0.8c0-1.6,0-1.6,1.6-1.7c0.3,0,0.9,0.3,1-0.2c0-0.7-0.7-0.4-1-0.4
		c-1.7,0-1.7,0-1.6-1.7c0-0.4,0.1-0.5,0.5-0.5c0.6,0,1.2,0,1.8,0c0.3,0,0.4-0.1,0.4-0.4c0-0.3-0.1-0.3-0.4-0.3c-0.8,0-1.7,0-2.5,0
		c-0.5,0-0.7,0.2-0.7,0.7C135.5,116,135.5,116.7,135.5,117.5z M141.7,121.1c1.3,0,2.2-0.6,2.4-1.6c0.2-0.9-0.4-1.7-1.6-2.2
		c-0.4-0.1-0.7-0.2-1-0.5c-0.7-0.5-0.6-1.3,0.1-1.7c0.4-0.2,0.8-0.2,1.3-0.1c0.2,0.1,0.5,0.4,0.7-0.2c0.1-0.6-0.3-0.3-0.5-0.4
		c-0.1-0.1-0.3-0.1-0.4-0.1c-1.1-0.1-2.2,0.5-2.4,1.4c-0.2,0.8,0.3,1.6,1.5,2.1c0.4,0.1,0.7,0.3,1.1,0.5c0.4,0.2,0.7,0.6,0.6,1.1
		c-0.1,0.5-0.4,0.8-0.9,1c-0.5,0.2-1,0.1-1.5-0.1c-0.2,0-0.4-0.4-0.5,0c-0.1,0.3,0,0.6,0.3,0.6C141,121,141.3,121.2,141.7,121.1z
		 M119.2,45.3c0.1,0,0.2,0,0.2,0c0.3,0,0.8,0,0.8-0.4c0-0.5-0.4-0.5-0.8-0.4c-0.5,0-0.6-0.3-0.7-0.7c-0.1-0.8-0.1-1.6-0.3-2.4
		c-0.2-0.7-0.1-1.1,0.7-1c0.2,0,0.6,0.1,0.6-0.4c0-0.5-0.4-0.5-0.7-0.4c-0.9,0.3-1-0.2-0.9-0.9c0-0.5-0.1-0.6-0.6-0.4
		c-0.5,0.2-0.4,0.5-0.3,0.8c0.1,0.4,0.2,0.8-0.4,0.7c-0.3,0-0.4,0.1-0.4,0.4c0,0.3,0.2,0.3,0.4,0.3c0.6-0.1,0.6,0.2,0.6,0.7
		c0.1,1,0.2,1.9,0.4,2.9C118,44.9,118.5,45.4,119.2,45.3z M148.9,45c0.2,0,0.5-0.1,0.7-0.1c0.4,0,0.5-0.1,0.4-0.5
		c0-0.4-0.2-0.3-0.5-0.2c-1,0.2-1.8-0.1-2.2-0.8c-0.5-0.8-0.4-1.9,0.1-2.6c0.5-0.7,1.4-0.9,2.4-0.5c0.3,0.1,0.5,0.1,0.6-0.2
		c0.1-0.3-0.1-0.4-0.3-0.6c-1-0.4-2.6-0.2-3.3,0.6c-0.9,0.9-1.1,2.1-0.7,3.3C146.6,44.4,147.5,45,148.9,45z M161.7,40.2
		c0,0.3-0.1,0.5-0.1,0.7c-0.3,1.7-0.6,3.5-1,5.2c-0.1,0.6,0.3,0.5,0.5,0.6c0.4,0.2,0.4-0.1,0.4-0.4c0.4-2.1,0.7-4.1,1.2-6.2
		c0.2-0.8-0.2-0.9-0.7-0.8c-0.5,0.1-1,0.3-1.5,0.5c-0.4,0.1-0.2,0.4-0.2,0.6c0.1,0.4,0.3,0.1,0.4,0.1
		C161.1,40.4,161.3,40.3,161.7,40.2z M115.3,113.6c0,0,0,0.1,0,0.1c0.1,0.2,0.2,0.5,0.3,0.7c0.8,1.7,1.6,3.4,1.1,5.4
		c0,0,0,0.1,0,0.1c-0.1,0.4,0.2,0.3,0.4,0.4c0.2,0.1,0.3,0,0.4-0.3c0-0.3,0.1-0.6,0.1-1c0-0.9,0.2-1.7,0.8-2.4
		c0.7-0.8,1.2-1.7,1.8-2.5c-0.7-0.3-1,0-1.3,0.5c-0.5,0.7-0.9,1.5-1.5,2.3c-0.4-1-0.7-1.8-1-2.7
		C116.2,113.6,115.9,113.4,115.3,113.6z M181.4,113.8c-0.1-0.2-0.1-0.3-0.1-0.4c-0.4-1.1-0.7-2.2-1.1-3.3c-0.2-0.5-0.6-1.1-0.4-1.5
		c0.1-0.5,0.9-0.4,1.4-0.6c0.3-0.1,0.3-0.2,0.3-0.5c-0.1-0.4-0.3-0.3-0.5-0.2c-1.3,0.4-2.6,0.9-3.9,1.3c-0.2,0.1-0.3,0.1-0.2,0.4
		c0.1,0.2,0.1,0.4,0.4,0.3c0.3-0.1,0.6-0.2,0.8-0.3c0.6-0.3,0.9-0.1,1,0.6c0.4,1.5,1,2.9,1.4,4.4c0.1,0.2,0.1,0.4,0.4,0.3
		C181.1,114,181.4,114.1,181.4,113.8z M111.9,45.7c-0.4-2.3-0.8-4.7-1.2-7.1c-0.1-0.5-0.3-0.4-0.6-0.4c-0.5,0-0.4,0.3-0.4,0.6
		c0,0.2,0.1,0.4,0.1,0.6c0.3,2.1,0.7,4.2,1,6.3c0.1,0.4,0.2,0.6,0.7,0.5C112,46.3,112,46,111.9,45.7z M148.3,114.2
		c-1.2,0.1-2.1,0.1-3,0.2c-0.4,0-1-0.1-1,0.4c0,0.7,0.6,0.2,0.9,0.2c1.1,0,1.1,0,1.2,1.1c0.1,1.3,0.2,2.7,0.3,4
		c0,0.3-0.2,0.8,0.5,0.7c0.6-0.1,0.3-0.5,0.3-0.8c-0.1-1.2-0.2-2.3-0.3-3.4c0-0.5-0.3-1.2-0.1-1.5c0.3-0.4,1-0.1,1.5-0.2
		c0.2,0,0.4-0.1,0.4-0.4c0-0.4-0.2-0.3-0.4-0.3C148.4,114.2,148.2,114.2,148.3,114.2z M114.8,45.8c0.5,0,0.5,0,0.5-0.5
		c-0.1-0.5-0.1-1.1-0.2-1.6c-0.1-1-0.3-2-0.5-3c0-0.4-0.3-0.3-0.5-0.3c-0.2,0-0.5,0-0.5,0.3c0.2,1.6,0.5,3.2,0.7,4.9
		C114.4,45.8,114.5,45.9,114.8,45.8z M137.1,41.5C137.1,41.5,137.1,41.5,137.1,41.5c0.1-0.7,0-1.5,0.1-2.2c0-0.5-0.2-0.5-0.6-0.5
		c-0.4,0-0.5,0.1-0.5,0.5c0,1.5,0,3,0,4.6c0,0.3,0,0.5,0.4,0.5c0.4,0,0.6-0.1,0.5-0.5C137.1,43,137.1,42.3,137.1,41.5z M137.3,37.2
		c0-0.4-0.2-0.6-0.6-0.6c-0.4,0-0.6,0.2-0.6,0.5c0,0.4,0.2,0.6,0.6,0.7C137,37.8,137.2,37.6,137.3,37.2z M114.4,38.6
		c0-0.2-0.1-0.5-0.6-0.4c-0.4,0-0.6,0.2-0.6,0.6c0,0.3,0.2,0.6,0.5,0.6C114.1,39.3,114.4,39.2,114.4,38.6z"/>
	<path class="st0" d="M197.8,68.5c1.2,2,2.3,3.9,3.4,5.8c2.5,4.3,5,8.6,7.4,12.9c0.3,0.5,0.5,0.7,1.1,0.6c1.4,0,2.9,0,4.3,0
		c0.6,0,0.7,0.2,0.7,0.7c0,0.9-0.1,1.8,0,2.7c0.1,0.7-0.3,0.7-0.8,0.7c-6.6,0-13.2,0-19.8,0c-0.7,0-1.4,0-2.2,0
		c-0.4,0-0.5-0.1-0.5-0.5c0-1,0-1.9,0-2.9c0-0.5,0.1-0.6,0.6-0.6c1.7,0,3.4,0,5.1,0c0.6,0,0.7-0.1,0.4-0.6c-0.6-1-1.2-1.9-1.7-2.9
		c-0.2-0.3-0.4-0.5-0.8-0.5c-4.4,0-8.8,0-13.2,0c-0.3,0-0.5,0.1-0.7,0.3c-0.7,1.2-1.3,2.3-2.1,3.6c1,0,1.8,0,2.7,0
		c1.1,0,2.2,0,3.2,0c0.4,0,0.6,0.1,0.6,0.6c0,0.9,0,1.9,0,2.8c0,0.6-0.2,0.6-0.7,0.6c-6.6,0-13.3,0-19.9-0.1
		c-7-0.1-14.1,0.1-21.1,0.1c-1.8,0-1.9,0-1.8-1.8c0-0.7-0.3-1.6,0.2-2c0.4-0.3,1.3-0.1,2-0.1c0.3,0,0.6,0,1.2,0
		c-3.4-3.7-6.7-7.3-10-10.8c0-0.1,0-0.2,0-0.2c0.8,0,1.6,0,2.4,0c2.4,0,4.7,0,7.1-0.1c1,0,1.9-0.2,2.8-0.6c1.4-0.6,2.3-1.6,2.4-3.1
		c0.1-1.4-0.6-2.6-1.7-3.4c-0.9-0.7-1.9-1.1-3.1-1.1c-3.6,0-7.2,0-10.9,0c-0.5,0-0.6,0.1-0.6,0.6c0,6,0,12.1,0,18.1
		c0,0.5,0.2,0.6,0.7,0.6c0.7,0,1.4,0,2.2,0c0.5,0,0.7,0.1,0.7,0.6c0,0.9-0.1,1.8,0,2.7c0,0.6-0.2,0.7-0.8,0.7c-8.2,0-16.4,0-24.6,0
		c-4.9,0-9.8-0.1-14.7-0.1c-0.6,0-0.9-0.1-0.8-0.8c0.1-0.9,0-1.7,0-2.6c0-0.4,0.1-0.5,0.5-0.5c0.7,0,1.4,0,2.2,0
		c0.5,0,0.6-0.1,0.5-0.6c-1-3.5-2-7.1-3-10.7c-0.3,0.2-0.4,0.5-0.6,0.8c-2.5,4.6-4.9,9.1-7.4,13.7c-0.2,0.5-0.5,0.7-1.1,0.7
		c-0.6-0.1-1.2-0.1-1.7,0c-1.3,0.2-1.9-0.4-2.5-1.5c-2.4-4.5-5-8.9-7.5-13.4c-0.1-0.2-0.2-0.4-0.4-0.7c-0.4,1-0.7,1.9-0.9,2.8
		c-0.9,2.7-1.7,5.4-2.6,8c-0.3,0.8,0,0.9,0.7,0.8c0.7-0.1,1.5,0,2.2-0.1c0.7-0.1,0.8,0.2,0.8,0.8c0,0.8,0,1.6,0,2.3
		c0.1,0.7-0.1,0.9-0.8,0.9c-4.6,0-9.3,0-13.9,0c-1.4,0-2.7,0-4.1,0c-0.5,0-0.6-0.1-0.6-0.6c0-0.9,0-1.9,0-2.8c0-0.5,0.2-0.6,0.6-0.6
		c1.1,0,2.1,0,3.2,0c0.4,0,0.5-0.1,0.7-0.5c1.9-6.1,3.7-12.1,5.6-18.2c0.2-0.6,0-0.6-0.4-0.6c-1.9,0-3.7,0-5.6,0
		c-0.6,0-0.8-0.1-0.8-0.7c0-0.7,0.1-1.4,0-2.2c-0.1-0.7,0.2-0.8,0.8-0.8c5.8,0,11.6,0.1,17.3,0c2-0.1,3,0.5,3.8,2.3
		c1.3,2.7,2.9,5.2,4.3,7.8c0.1,0.2,0.3,0.4,0.4,0.7c1.3-2.5,2.5-5,3.7-7.5c0.4-0.9,0.9-1.8,1.3-2.7c0.2-0.5,0.5-0.6,0.9-0.6
		c6.3,0,12.6,0,18.8,0c0.5,0,0.7,0.1,0.7,0.6c0,0.8,0,1.7,0,2.5c0,0.5-0.2,0.6-0.6,0.6c-1.5,0-3.1,0-4.7,0c1,3.5,2,7,3,10.4
		c0.8,2.7,1.6,5.5,2.4,8.2c0.1,0.5,0.3,0.6,0.8,0.6c2.9,0,5.8,0,8.7,0c0.5,0,0.6-0.1,0.6-0.6c0-6,0-12,0-18c0-0.5-0.1-0.7-0.7-0.6
		c-1.1,0-2.2,0-3.2,0c-0.6,0-0.7-0.2-0.7-0.7c0-0.8,0-1.7,0-2.5c0-0.4,0.1-0.5,0.5-0.5c0.1,0,0.2,0,0.3,0c11.6,0,23.2,0,34.9,0
		c3.7,0,7.1,2.6,8.1,6.2c0.8,2.8-0.3,5.6-2.8,7.3c-1.9,1.3-3.7,1.8-7.1,1.9c-0.1,0.3,0.2,0.4,0.4,0.6c2.3,2.2,4.5,4.3,6.8,6.5
		c0.3,0.3,0.5,0.4,0.9,0.4c2.5,0,5,0,7.6,0c0.4,0,0.7-0.1,0.9-0.5c3.5-6.1,7-12.1,10.5-18.1c0.3-0.5,0.3-0.7-0.4-0.7
		c-1.3,0-2.5,0-3.8,0c-0.4,0-0.6-0.1-0.6-0.6c0-0.8,0.1-1.6,0-2.4c0-0.6,0.2-0.7,0.7-0.7c5.2,0,10.3,0,15.5,0c4.1,0,8.1,0,12.2,0
		c0.6,0,0.8,0.1,0.8,0.8c-0.1,0.7,0,1.5,0,2.2c0,0.5-0.2,0.6-0.6,0.6C200.9,68.5,199.5,68.5,197.8,68.5z M193.2,79.7
		c-1.6-2.8-3.1-5.4-4.7-8.1c-1.6,2.8-3.2,5.5-4.8,8.3C186.9,79.8,189.9,79.6,193.2,79.7z"/>
	<path class="st1" d="M189,96.8c-2,1.1-4,1.9-6,2.7c-6.4,2.5-13.1,4.3-19.8,5.5c-3.9,0.7-7.9,1.2-11.8,1.7
		c-6.7,0.7-13.5,0.9-20.2,0.8c-4.1-0.1-8.2-0.4-12.2-0.8c-9.9-1-19.6-2.9-29-6.2c-2.9-1-5.7-2.2-8.4-3.6c0.3-0.2,0.6,0,0.8,0.1
		c6.8,2.6,13.8,4.4,20.9,5.7c4.1,0.7,8.3,1.3,12.4,1.8c3.3,0.3,6.6,0.6,9.9,0.7c5.5,0.3,11,0.3,16.5,0.1c3.3-0.1,6.6-0.3,9.8-0.6
		c3.5-0.3,7.1-0.7,10.6-1.2c8.8-1.4,17.5-3.3,25.8-6.5c0.2-0.1,0.4-0.2,0.6-0.2C188.8,96.7,188.8,96.8,189,96.8z"/>
	<path class="st1" d="M188.7,59.8c-6.5-2.6-13.3-4.4-20.1-5.7c-3.3-0.6-6.7-1.1-10-1.6c-3.8-0.5-7.7-0.9-11.5-1.1
		c-5.7-0.3-11.3-0.5-17-0.3c-3,0.1-6,0.2-8.9,0.4c-2.7,0.2-5.3,0.4-8,0.8c-2.8,0.3-5.6,0.7-8.3,1.2c-7.8,1.3-15.4,3.2-22.8,6
		c-0.2,0.1-0.4,0.2-0.6,0.2c0,0-0.1-0.1-0.1-0.1c2.5-1.4,5.2-2.5,7.9-3.5c6-2.2,12.2-3.7,18.5-4.9c4.4-0.8,8.9-1.4,13.3-1.8
		c7-0.6,14-0.7,21-0.4c2.9,0.1,5.8,0.3,8.7,0.6c4.5,0.4,8.9,1.1,13.4,1.9c5.7,1.1,11.2,2.5,16.6,4.5c2.7,1,5.4,2,8,3.5
		C188.7,59.8,188.7,59.8,188.7,59.8z"/>
	<path class="st3" d="M95.5,49.7c0.7,0.1,1.2-0.1,1.8-0.1c0.2,0,0.5-0.1,0.5,0.3c0,0.3,0,0.6-0.4,0.6c-0.9,0-1.9,0-2.8,0
		c-0.6,0-1.2,0.3-1.8,0.1c-1.6-0.4-2.5-1.4-3-3c-0.7-2.3,0.3-4.2,2.5-4.9c1.3-0.4,2.8,0.1,3.6,1.3C96.7,45.5,97.3,48,95.5,49.7z
		 M95.7,47.2c0-1.3-0.5-2.4-1.3-3.2c-1.3-1.1-3.2-0.5-3.7,1.2c-0.3,1.2,0,2.3,0.6,3.3c0.7,1.1,1.7,1.5,2.7,1.2
		C95.1,49.3,95.7,48.5,95.7,47.2z"/>
	<path class="st3" d="M171,44.6c0.6-0.1,1.1-0.4,1.6-0.3c1.4,0.3,2.1,1.1,1.9,2.7c-0.1,1.3-1.2,2.2-2.4,2.3c-1.4,0-2.4-0.9-2.6-2.3
		c-0.3-2.9,2.2-5.3,5.1-4.9c0.3,0.1,0.4,0.2,0.4,0.5c-0.1,0.4-0.3,0.4-0.6,0.3C172.9,42.7,171.8,43.2,171,44.6z M173.5,46.6
		c0-0.9-0.7-1.6-1.5-1.6c-0.9,0-1.5,0.7-1.6,1.8c0,1.1,0.6,1.8,1.5,1.8C172.8,48.5,173.5,47.7,173.5,46.6z"/>
	<path class="st3" d="M163.4,47.2c0-0.5,0-0.8,0.8-0.7c1.4,0.3,2.5-0.5,3.2-1.9c-0.7,0.1-1.2,0.4-1.9,0.2c-1.2-0.4-1.7-1.2-1.6-2.5
		c0.1-1.1,1.1-2.1,2.1-2.2c1.8-0.2,3,1,2.8,2.9c-0.3,2.6-1.5,4-3.6,4.4C164.6,47.5,164,47.3,163.4,47.2z M164.8,42.7
		c0,0.9,0.6,1.6,1.5,1.6c0.9,0,1.5-0.7,1.5-1.7c0-1-0.6-1.8-1.5-1.8C165.5,40.8,164.8,41.7,164.8,42.7z"/>
	<path class="st3" d="M176.9,114.1c-0.4-1.6-0.8-3.1-1.3-4.5c-0.1-0.3-0.2-0.6,0.2-0.7c0.4-0.1,0.4,0.2,0.5,0.5
		c0.5,1.7,1,3.4,1.4,5.1c0,0.2,0.3,0.5-0.1,0.7c-0.3,0.1-0.6,0.2-0.9-0.1c-1.4-1.4-2.9-2.6-4.4-4.2c0.4,1.3,0.6,2.3,0.9,3.4
		c0.1,0.4,0.3,0.9,0.4,1.3c0,0.2,0.3,0.6-0.1,0.8c-0.5,0.2-0.5-0.3-0.6-0.5c-0.5-1.6-0.9-3.3-1.4-5c-0.1-0.2-0.4-0.6,0.1-0.8
		c0.3-0.1,0.7-0.1,1,0.2c1.2,1.1,2.5,2.2,3.6,3.4C176.5,113.8,176.6,113.9,176.9,114.1z"/>
	<path class="st0" d="M209.5,64.5c2.1,0,3.8,1.7,3.8,3.8c0,2.1-1.8,3.9-3.9,3.8c-2.1,0-3.8-1.8-3.8-3.9
		C205.6,66.1,207.3,64.5,209.5,64.5z M209.5,71.5c1.8,0,3.2-1.4,3.2-3.2c0-1.8-1.5-3.3-3.2-3.3c-1.7,0-3.2,1.5-3.2,3.2
		C206.2,70.1,207.7,71.5,209.5,71.5z"/>
	<path class="st3" d="M126.1,119.2c0.5-0.4,0.5-1,0.7-1.5c0.1-0.2,0.1-0.4,0.4-0.3c0.3,0.1,0.3,0.3,0.2,0.5
		c-0.1,0.4-0.2,0.8-0.4,1.1c-0.6,0.7-0.4,1.2,0.2,1.7c0.1,0.1,0.1,0.2,0.2,0.3c-0.3,0-0.7,0-0.8-0.1c-0.6-0.7-1.1-0.3-1.7-0.2
		c-1.6,0.4-2.9-0.2-2.8-2c0-0.5,0.2-1,0.6-1.2c0.7-0.4,0.6-0.8,0.4-1.3c-0.4-1,0.2-1.9,1.2-2.1c0.7-0.1,1.4,0.3,1.6,0.9
		c0.3,0.6,0,1.4-0.8,1.8c-0.8,0.4-0.6,0.7-0.2,1.2C125.5,118.4,125.7,118.9,126.1,119.2z M124.3,120.3c0.2,0,0.3,0,0.4-0.1
		c0.9-0.2,0.9-0.5,0.4-1.2c-0.3-0.4-0.6-0.8-0.9-1.2c-0.3-0.4-0.5-0.4-0.8,0c-0.4,0.4-0.7,0.9-0.4,1.5
		C123.2,120,123.7,120.2,124.3,120.3z M123.8,115.8c0.1,0.3,0,1,0.6,0.9c0.5-0.1,1-0.5,1.1-1.2c0-0.4-0.2-0.9-0.8-0.9
		C124,114.7,123.8,115.2,123.8,115.8z"/>
	<path class="st3" d="M132.1,36.5c0.4-0.1,0.8,0,1.2,0.2c0.3,0.1,0.2,0.2,0.2,0.5c-0.1,0.3-0.2,0.4-0.4,0.3
		c-0.4-0.2-0.9-0.1-1.3-0.2c-0.6,0-1.1,0.3-1.3,0.9c-0.2,0.7,0.2,1.1,0.7,1.4c0.6,0.3,1.3,0.5,1.8,0.9c1.2,0.7,1.3,2.3,0.4,3.3
		c-0.5,0.5-1.2,0.7-1.9,0.7c-0.6,0.1-1.1-0.1-1.7-0.3c-0.3-0.1-0.5-0.2-0.3-0.6c0.1-0.3,0.2-0.4,0.6-0.2c0.4,0.2,0.9,0.3,1.4,0.2
		c0.7,0,1.3-0.3,1.5-1.1c0.2-0.8-0.3-1.2-0.8-1.5c-0.6-0.3-1.3-0.5-1.9-0.9c-1.2-0.8-1.2-2.5,0.1-3.2
		C130.9,36.6,131.5,36.4,132.1,36.5z"/>
	<path class="st3" d="M92.6,112.1c0.8,0.9,1,1.6,0.5,2.4c-0.4,0.7-1.3,1-2.4,0.7c-1.9-0.4-1.9-0.4-1.4-2.2c0.4-1.3,0.8-2.6,1.1-3.9
		c0.1-0.5,0.4-0.6,0.8-0.5c0.4,0.1,0.9,0.2,1.3,0.3c0.7,0.3,1.4,0.7,1.4,1.6C94,111.3,93.7,111.7,92.6,112.1z M91,114.7
		c1,0,1.5-0.4,1.6-1.1c0.1-0.6-0.6-1.3-1.6-1.5c-0.9-0.2-0.5,0.7-0.8,1c-0.1,0.2-0.1,0.4-0.2,0.6c-0.3,0.6-0.1,0.9,0.6,1
		C90.8,114.6,90.9,114.7,91,114.7z M91.9,111.7c0.7,0,1.2-0.5,1.3-1.1c0-0.7-0.8-1.5-1.6-1.3c-0.8,0.2-0.7,1.2-0.7,1.8
		C90.8,111.7,91.6,111.3,91.9,111.7z"/>
	<path class="st3" d="M176.1,46.4c0.5-1,0.9-1.9,1.3-2.8c0.1-0.3,0.3-0.4,0.6-0.3c0.8,0.3,1.7,0.6,2.6,0.8c0.3,0.1,0.4,0.2,0.3,0.5
		c-0.1,0.2-0.1,0.5-0.5,0.3c-0.5-0.2-1-0.4-1.6-0.5c-0.3-0.1-0.6-0.4-0.8-0.1c-0.3,0.5-0.5,1-0.7,1.5c-0.1,0.1,0.1,0.1,0.2,0.2
		c0.2,0.1,0.4,0.1,0.5,0.2c1.3,0.5,1.9,1.7,1.6,2.9c-0.4,1.2-1.7,2-3,1.7c-0.6-0.1-1.2-0.4-1.7-0.8c-0.2-0.2-0.3-0.3-0.1-0.6
		c0.2-0.2,0.3-0.3,0.6-0.1c0.5,0.5,1.1,0.7,1.8,0.7c0.7,0,1.1-0.4,1.4-1c0.3-0.6,0.2-1.2-0.4-1.7C177.7,46.7,176.9,46.6,176.1,46.4z
		"/>
	<path class="st3" d="M123.6,43.6c0.3-1.4,0.7-2.7,0.9-4c0.1-0.6,0.5-0.5,0.9-0.6c0.3,0,0.2,0.2,0.1,0.4c-0.6,1.9-1,3.8-1.8,5.7
		c-0.3,0.9-0.8,1.6-1.7,2.1c-0.1,0.1-0.4,0.4-0.5,0c-0.1-0.2-0.4-0.5,0-0.7c0.1-0.1,0.3-0.2,0.4-0.3c0.9-0.7,1.1-1.5,0.6-2.6
		c-0.7-1.4-1.4-2.7-2.1-4.1c0.8-0.4,1.1-0.1,1.4,0.6C122.5,41.3,123,42.4,123.6,43.6z"/>
	<path class="st3" d="M154.2,45.6c-1.8,0-2.8-0.8-3-2.4c-0.2-1.6,0.7-3.1,2.2-3.4c0.8-0.2,1.6,0.1,2.2,0.7c0.6,0.7,0.6,1.5,0.5,2.3
		c-0.1,0.4-0.6,0.2-0.9,0.2c-0.8-0.1-1.7-0.2-2.5-0.3c-0.8-0.1-0.6,0.4-0.5,0.7c0.2,1,1.3,1.6,2.7,1.4c0.4-0.1,0.6,0,0.6,0.4
		c0,0.3-0.2,0.3-0.4,0.3C154.7,45.6,154.4,45.6,154.2,45.6z M154.6,42.3c0.5,0.1,0.7-0.1,0.5-0.8c-0.2-0.7-0.7-1-1.2-1
		c-0.7-0.1-1.1,0.4-1.5,0.9c-0.2,0.3-0.2,0.6,0.3,0.7C153.3,42.2,153.9,42.2,154.6,42.3z"/>
	<path class="st3" d="M140.7,39.6c1.2-1.4,3.2-1,3.5,0.4c0.3,1.3,0.1,2.7,0,4.1c0,0.4-0.3,0.3-0.6,0.3c-0.3,0-0.4-0.1-0.4-0.4
		c0-0.9,0-1.8,0.1-2.6c0.1-1.3-0.4-1.9-1.4-1.8c-0.7,0-1.3,0.7-1.3,1.5c0,0.9-0.1,1.8-0.1,2.7c0,0.5-0.2,0.5-0.5,0.5
		c-0.4,0-0.5-0.2-0.4-0.6c0.2-1.4,0-2.8,0.2-4.2c0-0.3-0.2-0.7,0.4-0.8C140.8,38.8,140.5,39.3,140.7,39.6z"/>
	<path class="st3" d="M102.7,47.2c-0.3,0.4-0.5,0.8-0.8,1c-1.2,0.9-2.6,0.4-3.1-1.1c-0.3-1.1-0.5-2.2-0.8-3.2
		c-0.1-0.5,0.3-0.4,0.5-0.5c0.3-0.2,0.4-0.1,0.5,0.3c0.2,1.1,0.5,2.1,0.8,3.2c0.2,0.5,0.5,0.9,1.1,0.9c0.6,0,1-0.3,1.2-0.8
		c0.2-0.4,0.1-0.9,0-1.4c-0.2-0.8-0.4-1.6-0.6-2.4c-0.1-0.4,0-0.5,0.4-0.7c0.5-0.1,0.5,0.2,0.6,0.4c0.3,1.4,0.7,2.8,1,4.1
		c0.1,0.2,0.4,0.6-0.1,0.8C102.9,48.1,102.8,47.6,102.7,47.2z"/>
	<path class="st3" d="M113.4,116.7c0.6,0.8,0.7,0.9,0.8,3.2c-0.6,0-0.9-0.2-0.9-0.8c0-0.4-0.1-0.9-0.2-1.3c-0.1-0.7-1-1.3-1.7-1.1
		c-0.3,0.1-0.3,0.3-0.3,0.5c-0.1,0.6-0.1,1.1-0.2,1.7c0,0.3-0.1,0.6-0.5,0.6c-0.4-0.1-0.3-0.4-0.3-0.6c0.2-1.8,0.5-3.5,0.7-5.3
		c0.1-0.4,0.2-0.6,0.7-0.6c0.6,0,1.2,0.1,1.8,0.3c0.7,0.2,1.2,0.6,1.3,1.4c0.1,0.9-0.2,1.6-1.1,1.9
		C113.6,116.6,113.5,116.7,113.4,116.7z M112.2,116.2c1.1,0,1.8-0.4,1.8-1.2c0-0.7-0.7-1.3-1.6-1.3c-1.1-0.1-0.6,0.9-0.8,1.4
		c0,0,0,0.1,0,0.2C111.2,116,111.6,116.3,112.2,116.2z"/>
	<path class="st3" d="M108.3,46.2c-0.3,0.3-0.4,0.5-0.6,0.7c-0.9,0.7-2.1,0.7-2.7-0.2c-0.6-0.8-0.2-2,0.7-2.6c0.5-0.3,1-0.5,1.5-0.6
		c0.4-0.1,0.5-0.3,0.3-0.6c-0.4-0.8-1.2-0.9-2.2-0.3c-0.2,0.1-0.4,0.6-0.7,0.1c-0.3-0.5,0.2-0.6,0.4-0.7c1.8-1,3.4-0.5,3.6,1.7
		c0.1,0.8,0.3,1.5,0.5,2.3c0,0.2,0.4,0.6,0,0.8C108.7,46.9,108.3,46.9,108.3,46.2z M107.9,45.2c0-1.1-0.2-1.2-1.2-0.8
		c-0.2,0.1-0.5,0.2-0.6,0.3c-0.3,0.3-0.6,0.6-0.4,1.1c0.2,0.6,0.5,0.8,1.1,0.7C107.5,46.5,107.9,46,107.9,45.2z"/>
	<path class="st3" d="M164.1,115.2c1.2,0.5,1.3,1.7,1.8,2.6c0.1,0.2-0.1,0.2-0.2,0.3c-0.2,0.1-0.5,0.1-0.6-0.2
		c-0.2-0.4-0.4-0.9-0.6-1.3c-0.4-0.9-1.1-1.1-2-0.8c-0.3,0.1-0.2,0.3-0.2,0.5c0.1,0.6,0.2,1.2,0.4,1.8c0.1,0.4-0.1,0.5-0.4,0.6
		c-0.4,0.1-0.3-0.2-0.4-0.5c-0.3-1.8-0.6-3.5-1-5.3c-0.1-0.5,0-0.6,0.5-0.7c0.5-0.1,1-0.3,1.6-0.3c0.9,0,1.6,0.1,1.9,1
		C165.2,113.8,165,114.4,164.1,115.2z M162.7,112.6c-0.4,0.1-1.1-0.2-1,0.6c0,0.9,0.4,1.9,0.7,1.9c1.2,0,1.8-0.6,1.8-1.5
		C164.1,113,163.7,112.6,162.7,112.6z"/>
	<path class="st3" d="M133.1,118.1c1.1,0.7,0.9,2,1.3,3c-0.5,0.1-0.9,0.2-1-0.6c0-0.4-0.2-0.9-0.3-1.3c-0.2-0.8-1-1.1-1.8-0.9
		c-0.3,0.1-0.2,0.3-0.2,0.5c0,0.7,0,1.3-0.1,2c-0.1,0.3-0.2,0.3-0.4,0.3c-0.3,0-0.3-0.2-0.3-0.4c0-1.9,0-3.8,0-5.7
		c0-0.4,0.2-0.4,0.5-0.4c0.6,0,1.2,0,1.8,0c0.8,0,1.5,0.4,1.7,1.2c0.2,0.8,0,1.5-0.8,1.9C133.4,117.9,133.3,118,133.1,118.1z
		 M131.1,116.5c0.3,0.4-0.5,1.2,0.7,1.2c1.2,0,1.7-0.4,1.7-1.3c0-0.8-0.6-1.2-1.6-1.3C130.7,115.1,131.3,116,131.1,116.5z"/>
	<path class="st3" d="M101.7,114.3c1.5-0.7,2.1-2.4,4-2.2c-0.7,0.5-1.4,1.1-2.1,1.6c-0.5,0.4-0.7,0.7-0.4,1.3
		c0.5,1.1,0.9,2.2,1.4,3.4c-0.6,0-0.9-0.2-1.1-0.7c-0.3-0.8-0.6-1.5-0.9-2.3c-0.1-0.2-0.1-0.7-0.4-0.6c-0.3,0.1-0.7,0.3-0.8,0.8
		c-0.1,0.5-0.2,1.1-0.3,1.6c-0.1,0.3-0.1,0.5-0.5,0.4c-0.5-0.1-0.4-0.3-0.3-0.6c0.4-1.8,0.8-3.6,1.1-5.4c0.1-0.4,0.2-0.4,0.6-0.4
		c0.5,0.1,0.2,0.3,0.2,0.5C102,112.7,101.9,113.5,101.7,114.3z"/>
	<path class="st3" d="M159.1,117.1c-0.2-1-0.3-2.1-0.5-3.1c0-0.3,0-0.6-0.1-0.9c0-0.3,0.2-0.3,0.4-0.4c0.2-0.1,0.3-0.1,0.4,0.2
		c0.2,1.7,0.9,3.4,0.5,5.1c-0.2,1-1.1,1.6-2.2,1.7c-1,0.1-1.7-0.4-2.2-1.4c-0.4-1-0.4-2.2-0.6-3.3c-0.1-0.3-0.1-0.7-0.2-1.1
		c0-0.2-0.1-0.6,0.3-0.6c0.4,0,0.5,0.2,0.5,0.6c0.1,1.2,0.3,2.3,0.5,3.5c0.2,1.3,1.3,2,2.3,1.4C158.9,118.4,159.1,117.8,159.1,117.1
		z"/>
	<path class="st3" d="M166.9,117.2c0.2-1.9,0.4-3.8,0.5-5.6c0-0.4,0.3-0.6,0.7-0.7c0.4-0.2,0.5,0.1,0.7,0.4c1,1.6,2,3.2,3,4.9
		c0.1,0.1,0.5,0.3,0.1,0.6c-0.3,0.2-0.6,0.2-0.8-0.2c-0.1-0.1-0.1-0.2-0.2-0.3c-0.8-1.2-0.8-1.2-2.1-1c-0.8,0.1-1.1,0.4-1,1.2
		c0,0.2,0,0.4,0,0.7c0,0.4-0.2,0.7-0.6,0.6C166.6,117.8,167,117.4,166.9,117.2z M169.7,114.4c-0.6-0.9-1.1-1.8-1.7-2.8
		c-0.1,0.8,0,1.5-0.2,2.1c-0.2,1.1-0.1,1.2,1,0.9C169.1,114.6,169.4,114.5,169.7,114.4z"/>
	<path class="st3" d="M99,117.2c-0.8,0-0.9-0.4-0.9-0.9c0-0.5,0.1-1.2-0.3-1.4c-0.6-0.3-1.3-0.4-2-0.4c-0.5,0-0.6,0.7-0.9,1.1
		c-0.2,0.2-0.2,0.6-0.7,0.6c-0.4,0-0.5-0.1-0.3-0.5c1.1-1.7,2.2-3.4,3.2-5.1c0.2-0.3,0.4-0.2,0.7-0.2c0.3,0,0.5,0.1,0.5,0.4
		C98.6,112.9,98.8,115.1,99,117.2z M97.9,114.3c0.1-1.1-0.3-2.1-0.2-3.1c-0.3,0.3-0.5,0.6-0.7,1c-0.3,0.5-1,1.2-0.8,1.5
		C96.4,114.2,97.3,114,97.9,114.3z"/>
	<path class="st3" d="M154.5,119.9c-0.6,0.3-0.9,0.1-1.1-0.5c-0.2-0.4-0.2-1.1-0.7-1.2c-0.7-0.1-1.4,0-2,0.2
		c-0.4,0.1-0.3,0.7-0.4,1.1c-0.2,0.4,0.2,1-0.6,1.1c-0.4,0-0.5,0-0.4-0.4c0.4-2,0.9-4,1.3-6c0.1-0.3,0.3-0.3,0.6-0.4
		c0.4,0,0.6,0.1,0.8,0.4C152.8,116.1,153.7,118,154.5,119.9z M151.3,114.7c-0.2,1-0.6,1.9-0.7,2.9c0.5,0,0.9,0,1.3,0
		c0.4,0,0.7-0.2,0.4-0.7C151.9,116.2,151.6,115.5,151.3,114.7z"/>
	<path class="st3" d="M108.9,116c-0.1,0-0.2,0-0.3,0c-0.6-0.1-1.3-0.5-1.7-0.1c-0.4,0.3-0.3,1.1-0.4,1.7c-0.1,0.4,0,0.5,0.4,0.6
		c0.6,0.1,1.3,0.2,1.9,0.3c0.2,0,0.4-0.1,0.4,0.2c0,0.2-0.1,0.5-0.4,0.4c-1-0.2-2.1-0.3-3.1-0.5c-0.3,0-0.2-0.3-0.1-0.5
		c0.3-1.9,0.7-3.8,1-5.7c0.1-0.3,0.2-0.3,0.4-0.3c0.9,0.2,1.8,0.3,2.7,0.5c0.2,0,0.4,0,0.4,0.3c-0.1,0.2-0.2,0.4-0.5,0.4
		c-0.5-0.1-1-0.2-1.5-0.3c-0.5-0.1-0.8-0.1-0.9,0.5c-0.3,1.4-0.3,1.4,1.1,1.7c0.2,0,0.5,0,0.7,0.1c0.2,0.1,0.6,0,0.5,0.5
		C109.3,116.3,109,116,108.9,116z"/>
	<path class="st3" d="M135.5,117.5c0-0.7,0-1.5,0-2.2c0-0.5,0.2-0.7,0.7-0.7c0.8,0,1.7,0,2.5,0c0.2,0,0.4,0,0.4,0.3
		c0,0.3-0.1,0.4-0.4,0.4c-0.6,0-1.2,0-1.8,0c-0.4,0-0.5,0.1-0.5,0.5c-0.1,1.7-0.1,1.7,1.6,1.7c0.4,0,1.1-0.3,1,0.4
		c0,0.5-0.6,0.2-1,0.2c-1.6,0-1.6,0-1.6,1.7c0,0.7,0.2,0.9,0.8,0.8c0.6-0.1,1.2,0,1.7-0.1c0.3,0,0.4,0.1,0.4,0.3
		c0,0.2-0.1,0.4-0.3,0.4c-1,0-2,0-3.1,0c-0.4,0-0.2-0.3-0.3-0.5C135.4,119.6,135.5,118.5,135.5,117.5z"/>
	<path class="st3" d="M141.7,121.1c-0.3,0.1-0.7-0.1-1-0.2c-0.4-0.1-0.4-0.3-0.3-0.6c0.1-0.4,0.4-0.1,0.5,0c0.5,0.1,1,0.2,1.5,0.1
		c0.5-0.2,0.8-0.5,0.9-1c0.1-0.5-0.2-0.9-0.6-1.1c-0.3-0.2-0.7-0.3-1.1-0.5c-1.1-0.5-1.7-1.2-1.5-2.1c0.2-0.9,1.3-1.6,2.4-1.4
		c0.1,0,0.3,0,0.4,0.1c0.2,0.1,0.7-0.1,0.5,0.4c-0.1,0.5-0.4,0.3-0.7,0.2c-0.5-0.1-0.9-0.1-1.3,0.1c-0.8,0.4-0.8,1.2-0.1,1.7
		c0.3,0.2,0.7,0.3,1,0.5c1.2,0.5,1.8,1.2,1.6,2.2C143.8,120.5,142.9,121.2,141.7,121.1z"/>
	<path class="st3" d="M119.2,45.3c-0.8,0.1-1.2-0.4-1.3-1.1c-0.2-0.9-0.3-1.9-0.4-2.9c0-0.4-0.1-0.8-0.6-0.7c-0.2,0-0.4,0-0.4-0.3
		c0-0.3,0-0.4,0.4-0.4c0.6,0,0.5-0.4,0.4-0.7c-0.1-0.3-0.2-0.7,0.3-0.8c0.5-0.2,0.7-0.1,0.6,0.4c-0.1,0.7,0.1,1.1,0.9,0.9
		c0.3-0.1,0.6-0.1,0.7,0.4c0,0.5-0.4,0.4-0.6,0.4c-0.8,0-0.9,0.3-0.7,1c0.2,0.8,0.2,1.6,0.3,2.4c0.1,0.4,0.2,0.7,0.7,0.7
		c0.4,0,0.8,0,0.8,0.4c0,0.4-0.5,0.4-0.8,0.4C119.4,45.3,119.3,45.3,119.2,45.3z"/>
	<path class="st3" d="M148.9,45c-1.4,0-2.3-0.6-2.7-1.7c-0.4-1.2-0.2-2.3,0.7-3.3c0.7-0.8,2.3-1,3.3-0.6c0.2,0.1,0.4,0.2,0.3,0.6
		c-0.1,0.3-0.3,0.3-0.6,0.2c-1-0.3-1.9-0.1-2.4,0.5c-0.6,0.7-0.6,1.8-0.1,2.6c0.4,0.7,1.2,1,2.2,0.8c0.3,0,0.4-0.2,0.5,0.2
		c0,0.4-0.1,0.5-0.4,0.5C149.4,45,149.1,45,148.9,45z"/>
	<path class="st3" d="M161.7,40.2c-0.4,0.1-0.7,0.2-0.9,0.2c-0.1,0-0.4,0.3-0.4-0.1c0-0.2-0.2-0.5,0.2-0.6c0.5-0.1,1-0.4,1.5-0.5
		c0.5-0.1,0.9,0,0.7,0.8c-0.5,2.1-0.8,4.1-1.2,6.2c0,0.2,0,0.6-0.4,0.4c-0.2-0.1-0.6,0-0.5-0.6c0.4-1.7,0.7-3.5,1-5.2
		C161.7,40.7,161.7,40.5,161.7,40.2z"/>
	<path class="st3" d="M115.3,113.6c0.6-0.2,0.9,0.1,1,0.6c0.3,0.9,0.7,1.8,1,2.7c0.5-0.8,1-1.5,1.5-2.3c0.3-0.5,0.6-0.8,1.3-0.5
		c-0.6,0.8-1.2,1.7-1.8,2.5c-0.6,0.7-0.8,1.5-0.8,2.4c0,0.3-0.1,0.6-0.1,1c0,0.2-0.1,0.4-0.4,0.3c-0.2-0.1-0.5,0-0.4-0.4
		c0,0,0-0.1,0-0.1c0.6-2-0.3-3.7-1.1-5.4c-0.1-0.2-0.2-0.5-0.3-0.7C115.3,113.7,115.3,113.6,115.3,113.6z"/>
	<path class="st3" d="M181.4,113.8c0,0.3-0.3,0.2-0.5,0.3c-0.3,0.2-0.3-0.1-0.4-0.3c-0.5-1.5-1-2.9-1.4-4.4c-0.2-0.6-0.4-0.9-1-0.6
		c-0.3,0.1-0.6,0.2-0.8,0.3c-0.3,0.1-0.3-0.1-0.4-0.3c-0.1-0.2,0-0.3,0.2-0.4c1.3-0.4,2.6-0.8,3.9-1.3c0.2-0.1,0.4-0.2,0.5,0.2
		c0,0.3,0,0.4-0.3,0.5c-0.5,0.2-1.3,0.1-1.4,0.6c-0.1,0.4,0.3,1,0.4,1.5c0.4,1.1,0.7,2.2,1.1,3.3
		C181.3,113.5,181.4,113.7,181.4,113.8z"/>
	<path class="st3" d="M111.9,45.7c0,0.3,0.1,0.5-0.4,0.6c-0.4,0-0.6-0.1-0.7-0.5c-0.3-2.1-0.7-4.2-1-6.3c0-0.2-0.1-0.4-0.1-0.6
		c-0.1-0.3-0.2-0.6,0.4-0.6c0.3,0,0.5-0.1,0.6,0.4C111.1,41,111.5,43.4,111.9,45.7z"/>
	<path class="st3" d="M148.3,114.2c0,0,0.2,0,0.4,0c0.2,0,0.4-0.1,0.4,0.3c0,0.3-0.2,0.3-0.4,0.4c-0.5,0.1-1.2-0.2-1.5,0.2
		c-0.2,0.4,0,1,0.1,1.5c0.1,1.1,0.2,2.3,0.3,3.4c0,0.3,0.3,0.7-0.3,0.8c-0.7,0.1-0.4-0.4-0.5-0.7c-0.1-1.3-0.2-2.7-0.3-4
		c-0.1-1.1-0.1-1.1-1.2-1.1c-0.3,0-0.9,0.5-0.9-0.2c0-0.5,0.6-0.4,1-0.4C146.2,114.3,147.1,114.2,148.3,114.2z"/>
	<path class="st3" d="M114.8,45.8c-0.2,0.1-0.4,0-0.4-0.3c-0.2-1.6-0.5-3.2-0.7-4.9c0-0.3,0.2-0.3,0.5-0.3c0.2,0,0.5-0.1,0.5,0.3
		c0.1,1,0.3,2,0.5,3c0.1,0.5,0.1,1.1,0.2,1.6C115.3,45.8,115.3,45.8,114.8,45.8z"/>
	<path class="st3" d="M137.1,41.5c0,0.8,0,1.5,0,2.3c0,0.4-0.2,0.5-0.5,0.5c-0.4,0-0.4-0.2-0.4-0.5c0-1.5,0-3,0-4.6
		c0-0.4,0.1-0.5,0.5-0.5c0.3,0,0.6,0,0.6,0.5C137.1,40,137.1,40.7,137.1,41.5C137.1,41.5,137.1,41.5,137.1,41.5z"/>
	<path class="st3" d="M137.3,37.2c-0.1,0.4-0.3,0.6-0.7,0.6c-0.4,0-0.6-0.3-0.6-0.7c0-0.3,0.3-0.5,0.6-0.5
		C137,36.6,137.2,36.8,137.3,37.2z"/>
	<path class="st3" d="M114.4,38.6c0,0.6-0.3,0.7-0.7,0.7c-0.4,0-0.5-0.2-0.5-0.6c0-0.4,0.3-0.6,0.6-0.6
		C114.3,38.1,114.4,38.4,114.4,38.6z"/>
	<path class="st1" d="M188.8,59.7c0.1,0,0.2,0.1,0.3,0.1c-0.1,0.1-0.2,0-0.4,0C188.7,59.8,188.7,59.8,188.8,59.7z"/>
	<path class="st1" d="M81.4,59.8c-0.1,0.1-0.2,0.1-0.4,0c0.1,0,0.2-0.1,0.3-0.1C81.4,59.7,81.4,59.8,81.4,59.8z"/>
	<path class="st2" d="M193.2,79.7c-3.2-0.1-6.3,0.2-9.5,0.1c1.6-2.8,3.2-5.5,4.8-8.3C190.1,74.3,191.6,76.9,193.2,79.7z"/>
	<path class="st2" d="M95.7,47.2c0,1.3-0.6,2.2-1.7,2.5c-1,0.3-2.1-0.1-2.7-1.2c-0.6-1-0.9-2.1-0.6-3.3c0.4-1.6,2.4-2.3,3.7-1.2
		C95.2,44.7,95.7,45.9,95.7,47.2z"/>
	<path class="st2" d="M173.5,46.6c0,1.1-0.7,2-1.6,2c-0.9,0-1.5-0.7-1.5-1.8c0-1,0.7-1.7,1.6-1.8C172.9,45,173.5,45.7,173.5,46.6z"
		/>
	<path class="st4" d="M164.8,42.7c0-1,0.7-1.9,1.6-1.9c0.8,0,1.5,0.7,1.5,1.8c0,1-0.6,1.7-1.5,1.7C165.5,44.3,164.8,43.6,164.8,42.7
		z"/>
	<path class="st4" d="M209.5,71.5c-1.8,0-3.3-1.5-3.3-3.2c0-1.7,1.5-3.2,3.2-3.2c1.7,0,3.2,1.5,3.2,3.3
		C212.7,70.1,211.2,71.5,209.5,71.5z M210.2,68.5c0.7-0.2,1.1-0.7,0.9-1.3c-0.1-0.7-0.6-0.8-1.2-0.8c-0.4,0-0.8,0-1.2-0.1
		c-0.5-0.1-0.7,0.1-0.7,0.6c0,0.9,0,1.8,0,2.7c0,0.3-0.2,0.7,0.4,0.6c0.5,0,0.3-0.4,0.3-0.7c0.1-0.3-0.2-0.8,0.2-0.9
		c0.5-0.1,0.7,0.3,1,0.6c0.1,0.1,0.2,0.3,0.3,0.4c0.2,0.5,0.6,0.7,1.2,0.5C211.1,69.5,210.7,69,210.2,68.5z"/>
	<path class="st4" d="M124.3,120.3c-0.6-0.1-1-0.4-1.3-1c-0.2-0.6,0-1.1,0.4-1.5c0.3-0.3,0.5-0.3,0.8,0c0.3,0.4,0.6,0.8,0.9,1.2
		c0.6,0.7,0.5,0.9-0.4,1.2C124.5,120.3,124.4,120.3,124.3,120.3z"/>
	<path class="st4" d="M123.8,115.8c0-0.7,0.2-1.1,0.8-1.1c0.5,0,0.8,0.4,0.8,0.9c0,0.6-0.5,1.1-1.1,1.2
		C123.9,116.8,123.9,116.2,123.8,115.8z"/>
	<path class="st4" d="M91,114.7c0,0-0.2-0.1-0.4-0.1c-0.6-0.1-0.8-0.4-0.6-1c0.1-0.2,0.1-0.5,0.2-0.6c0.3-0.3-0.1-1.2,0.8-1
		c1,0.2,1.7,0.9,1.6,1.5C92.5,114.3,92,114.7,91,114.7z"/>
	<path class="st4" d="M91.9,111.7c-0.3-0.3-1.1,0.1-1.1-0.6c0-0.6,0-1.6,0.7-1.8c0.8-0.2,1.6,0.6,1.6,1.3
		C93.2,111.2,92.6,111.7,91.9,111.7z"/>
	<path class="st4" d="M154.6,42.3c-0.7-0.1-1.3-0.1-1.9-0.2c-0.5-0.1-0.5-0.3-0.3-0.7c0.3-0.5,0.8-1,1.5-0.9c0.6,0.1,1,0.4,1.2,1
		C155.3,42.3,155.1,42.4,154.6,42.3z"/>
	<path class="st4" d="M112.2,116.2c-0.6,0.1-1-0.2-0.7-1c0,0,0-0.1,0-0.2c0.2-0.5-0.3-1.4,0.8-1.4c0.9,0.1,1.6,0.6,1.6,1.3
		C114,115.8,113.4,116.2,112.2,116.2z"/>
	<path class="st4" d="M107.9,45.2c0,0.7-0.5,1.3-1.1,1.4c-0.6,0.1-0.9-0.2-1.1-0.7c-0.2-0.5,0.1-0.9,0.4-1.1
		c0.2-0.2,0.4-0.2,0.6-0.3C107.7,44,107.9,44.2,107.9,45.2z"/>
	<path class="st4" d="M162.7,112.6c1,0,1.4,0.3,1.5,1.1c0,0.9-0.6,1.4-1.8,1.5c-0.3,0-0.7-1-0.7-1.9
		C161.7,112.5,162.4,112.8,162.7,112.6z"/>
	<path class="st4" d="M131.1,116.5c0.2-0.5-0.4-1.4,0.8-1.3c1,0,1.6,0.5,1.6,1.3c0,0.9-0.5,1.3-1.7,1.3
		C130.6,117.7,131.4,116.9,131.1,116.5z"/>
	<path class="st4" d="M169.7,114.4c-0.3,0.1-0.6,0.2-0.9,0.2c-1.1,0.3-1.2,0.2-1-0.9c0.1-0.7,0.1-1.3,0.2-2.1
		C168.7,112.6,169.2,113.5,169.7,114.4z"/>
	<path class="st4" d="M97.9,114.3c-0.6-0.3-1.5-0.1-1.7-0.6c-0.1-0.3,0.5-1,0.8-1.5c0.2-0.3,0.4-0.7,0.7-1
		C97.7,112.3,98,113.2,97.9,114.3z"/>
	<path class="st4" d="M151.3,114.7c0.3,0.7,0.6,1.5,1,2.2c0.3,0.5,0,0.7-0.4,0.7c-0.4,0-0.8,0-1.3,0
		C150.7,116.7,151.1,115.7,151.3,114.7z"/>
	<path class="st0" d="M210.2,68.5c0.5,0.5,0.9,1,1.1,1.6c-0.6,0.2-1,0-1.2-0.5c-0.1-0.1-0.2-0.3-0.3-0.4c-0.2-0.3-0.5-0.8-1-0.6
		c-0.5,0.1-0.2,0.6-0.2,0.9c-0.1,0.2,0.2,0.7-0.3,0.7c-0.5,0-0.4-0.4-0.4-0.6c0-0.9,0-1.8,0-2.7c0-0.5,0.2-0.7,0.7-0.6
		c0.4,0,0.8,0,1.2,0.1c0.6,0,1.1,0.2,1.2,0.8C211.3,67.8,210.9,68.2,210.2,68.5z M209.5,68c0.2-0.1,0.9,0.2,0.9-0.5
		c0-0.6-0.5-0.5-0.9-0.5c-0.4,0-0.7-0.1-0.7,0.5C208.7,67.9,208.9,68,209.5,68z"/>
	<path class="st4" d="M209.5,68c-0.6,0.1-0.8-0.1-0.8-0.6c0-0.6,0.4-0.5,0.7-0.5c0.4,0,0.9-0.1,0.9,0.5
		C210.3,68.1,209.7,67.9,209.5,68z"/>
</g>
</svg>
