<?xml version="1.0" encoding="utf-8"?>
<!-- Generator: Adobe Illustrator 26.0.1, SVG Export Plug-In . SVG Version: 6.00 Build 0)  -->
<svg version="1.1" id="Layer_1" xmlns="http://www.w3.org/2000/svg" xmlns:xlink="http://www.w3.org/1999/xlink" x="0px" y="0px"
	 viewBox="0 0 300 200" style="enable-background:new 0 0 300 200;" xml:space="preserve">
<style type="text/css">
	.st0{fill:#010101;}
</style>
<g transform="translate(0.000000,246.000000) scale(0.100000,-0.100000)">
	<path class="st0" d="M69.7,1511.7v-254.5h165.7h165.7v29.2v29.2H267.2H133.3v87.5v87.5h131.2h131.2v27.8v27.8H264.5H133.3v82.2
		v82.2h133.9h133.9v27.8v27.8H235.4H69.7V1511.7z"/>
	<path class="st0" d="M193.5,1661c-1.1-0.8-1.9-14.1-1.9-29.2v-27.3h135.2H462V1517v-87.5H329.5H196.9v-27.8v-27.8h132.6H462v-82.2
		v-82.2H326.8H191.6v-27.8v-27.8l166.5,0.5l166.2,0.8v253.2v253.2l-164.6,0.8C269.3,1662.6,194.3,1662,193.5,1661z"/>
	<path class="st0" d="M1011.1,1605.6c-51.2-10.9-82.5-44.8-82.5-89.1c0-22.5,4.5-35,17.8-50.1c15.6-17,31.5-24.4,81.1-36.9
		c48.8-12.2,58.6-16.4,62.8-26.2c7.4-18.3-9.8-29.4-45.6-29.4c-26,0-49.6,5.6-75.6,17.5c-22.3,10.1-18.3,13-35.3-25.5
		c-12.2-27.6-12.7-25.5,9.5-36.1c36.1-17.2,106.6-24.9,145-15.9c49.8,11.7,80.1,41.4,83.2,82.2c2.9,35-12.5,60.4-45.9,76.4
		c-9,4.2-34.7,12.2-57.3,17.8c-44.8,11.1-56.5,15.9-59.1,23.9c-2.7,8.5,1.3,18.6,10.1,24.7c17.2,12.2,67.6,8.7,100.2-7.2
		c7.7-3.7,14.8-5.8,15.9-4.8c2.4,2.7,23.6,53.8,23.6,57c0,4.5-29.2,15.9-53.8,20.9C1076.6,1610.6,1036,1611.1,1011.1,1605.6z"/>
	<path class="st0" d="M2191.7,1606.1c-21.2-4.8-46.4-17.8-59.1-30.5c-31.5-31.5-32.3-86.7-1.3-114c16.7-14.6,30-20.1,76.1-31.8
		c22.3-5.8,44.8-12.2,50.4-14.3c17.2-7.4,19.9-25.5,5.3-35.3c-6.4-4.2-12.5-5-40.6-4.8c-30.5,0-35,0.8-55.4,8.5
		c-12.2,4.5-25.2,10.3-28.9,12.7c-3.4,2.4-7.4,3.2-8.5,1.9c-1.6-1.6-18.3-37.6-25.5-55.4c-1.9-4.2,29.4-18.8,53.8-25.2
		c14.1-3.7,32.3-6.1,56.5-6.9c31-1.3,39.2-0.5,58.1,4.2c50.6,12.7,76.9,40,79.3,83c1.6,25.7-3.7,40.8-19.4,56.5
		c-15.4,15.6-33.9,23.6-83.5,35.5c-23.6,5.8-45.9,12.5-49.6,14.8c-8.5,5.6-11.4,14.1-8,23.6c7.7,22,62.8,23.6,109.2,2.9
		c8.5-3.7,15.6-6.4,15.9-6.1c0,0.5,5.8,14.1,12.5,30.5l12.2,29.4l-15.1,6.9c-26,11.7-44.5,15.4-82.5,16.4
		C2219.3,1609.3,2202.8,1608.5,2191.7,1606.1z"/>
	<path class="st0" d="M666.2,1460v-144.5h115.3h115.3v31.8v31.8h-75.6h-75.8l0.8,26l0.8,25.7l64.4,0.8l64.2,0.5v30.5v30.5h-65h-65
		v23.9v23.9h72.9h72.9v31.8v31.8H778.9H666.2V1460z"/>
	<path class="st0" d="M1207,1460v-144.5h41.1h41.1v37.1v37.1h27.6c67.6,0,107.6,14.1,131.8,46.1c19.9,26.2,25.2,68.4,13,100.2
		c-12.2,32.6-47.5,58.6-87.8,65.5c-9.8,1.6-50.1,2.9-92,2.9H1207V1460z M1364.8,1534c14.3-7.4,20.7-19.1,20.7-37.4
		c0-15.6-4.2-23.9-17.8-33.7c-6.4-4.8-11.9-5.6-43-6.4l-35.5-1.1v41.1c0,22.3,0.8,41.6,2.1,42.7c1.1,1.3,15.6,1.6,32.3,1.1
		C1348.1,1539.5,1356.6,1538.2,1364.8,1534z"/>
	<path class="st0" d="M1559.9,1600c-2.1-4-120.1-271.5-124.1-281.3c-1.1-2.7,7.4-3.2,40.6-2.7l41.9,0.8l10.9,27l10.6,27.3h61.2h61.5
		l11.1-27.8l11.1-27.8h42.4c32.9,0,42.2,0.8,41.1,3.4c-0.5,1.6-21.7,49.8-46.9,106.6c-25.2,57-53.3,120.1-62.3,140.5l-16.4,37.1
		l-40,0.8C1566.5,1604.5,1562.3,1604.2,1559.9,1600z M1620.4,1477.2c8.7-22.5,16.2-41.9,16.2-43c0-1.3-16.2-2.1-36.1-2.1
		c-27.8,0-35.8,0.8-34.7,3.4c0.8,1.6,8.7,22,18,45.1c9,22.8,17.5,40.8,18.3,39.8C1603.1,1519.1,1611.4,1499.8,1620.4,1477.2z"/>
	<path class="st0" d="M1793,1460v-144.5h39.8h39.8v75.6c0,41.6,0.8,75.6,2.1,75.3c1.1,0,29.7-33.9,63.9-75.6l61.8-75.3h34.2h34.2
		V1460v144.5h-39.8h-39.8v-75.6c0-41.6-0.8-75.6-2.1-75.6c-1.1,0-30,33.9-64.2,75.6l-62.3,75.6h-33.7H1793V1460z"/>
	<path class="st0" d="M2389.5,1460v-144.5h39.8h39.8v55.7v55.7h55.7h55.7v-55.7v-55.7h41.1h41.1V1460v144.5h-41.1h-41.1v-54.4v-54.4
		h-55.7H2469v54.4v54.4h-39.8h-39.8V1460z"/>
	<path class="st0" d="M2699.7,1460v-144.5H2815h115.3v31.8v31.8h-75.6h-75.6v26.5v26.5h63.6h63.6v30.5v30.5h-63.6h-63.6v23.9v23.9
		h72.9h72.9v31.8v31.8h-112.7h-112.7V1460z"/>
</g>
</svg>
