<?xml version="1.0" encoding="utf-8"?>
<!-- Generator: Adobe Illustrator 26.0.1, SVG Export Plug-In . SVG Version: 6.00 Build 0)  -->
<svg version="1.1" id="Layer_1" xmlns="http://www.w3.org/2000/svg" xmlns:xlink="http://www.w3.org/1999/xlink" x="0px" y="0px"
	 viewBox="0 0 289.4 138.6" style="enable-background:new 0 0 289.4 138.6;" xml:space="preserve">
<style type="text/css">
	.st0{fill:#ED1C24;}
</style>
<g>
	<path class="st0" d="M34.3,77.7c-0.8-1-0.6-1.7,0.1-2.7c8.5-10.6,2.6-26.5-10.8-28.6c-9.1-1.5-16.6,4-19.2,12.1
		c-1.7,5.3-0.9,10.4,2,15.1c0.2,0.4,0.5,0.7,0.9,1.3c0.4-1.1,0.8-2.1,1.2-3.1c2.3-6.3,4.2-12.7,5.1-19.4c0.1-0.8,0.4-1.1,1.2-1.1
		c4.5,0,9,0,13.5,0c1.6,0,3.1,0.4,4.4,1.4c1,0.7,1.3,1.7,1,2.9c-0.5,2.1-2,3.4-3.7,4.5c-1.1,0.7-2.3,1.1-3.5,1.7
		c-0.1-0.1-0.1-0.2-0.2-0.4c0.7-0.6,1.4-1.1,1.9-1.7c0.8-0.8,1.6-1.7,2.1-2.7c0.7-1.2,0.2-2.2-1.1-2.6c-0.7-0.2-1.4-0.4-2.1-0.4
		c-3,0-6,0-9,0c-0.7,0-1,0.2-1.2,0.8c-1.5,5-3.5,9.9-4.2,15.2c-0.3,2.2,0,4.4,0,6.7H9.3c2,2,4.2,3.2,6.6,3.9
		c3.8,1.2,7.5,1.1,11.2-0.3c1.1-0.4,1.9-0.3,2.5,0.6c-4.8,3.4-15.4,3.6-22.3-3.6c-7.5-7.9-7.1-20.9,0.9-28.1
		c8.3-7.4,20.4-6.3,27.2,1.6C42.8,59.6,40.8,71.9,34.3,77.7"/>
	<path class="st0" d="M149.9,77.8h-5.8c0-5.8,0.1-11.5,0.1-17.2c0-3.4-2.5-5-5.5-3.4c-2.7,1.4-4.2,3.8-4.3,6.8
		c-0.2,3.5-0.1,7,0,10.5c0,1.1,0.3,2.1,0.4,3.3h-5.4c0-5.7-0.1-11.3,0-16.9c0.1-4.7-3.6-4.9-6.2-3.4c-2.2,1.2-3.5,3.2-3.6,5.7
		c-0.2,4.4,0,8.8,0.1,13.3c0,0.4,0.1,0.9,0.2,1.4h-6.1c0.4-7.8,0.5-15.5-0.1-23.3h5.7v4.9c1.4-2.1,2.9-3.9,5.2-4.8
		c1.2-0.5,2.6-0.8,3.9-0.9c3.6-0.1,5.4,1.8,5.8,6.1c0.6-0.9,1.2-1.8,1.8-2.6c2.1-2.8,6-4.1,9.3-3.3c2.5,0.7,4.1,3,4.1,6.3
		c0,3.9,0,7.9,0,11.8C149.7,74,149.8,75.9,149.9,77.8"/>
	<path class="st0" d="M78.2,77.8h-6c0-3.9,0.1-7.8,0.1-11.7c0-3.8-0.1-7.7-0.2-11.6h5.5v4.8c1.3-1.3,2.4-2.7,3.8-3.8
		c1.9-1.4,4.1-1.9,6.5-1.6c2.5,0.3,4.1,1.9,4.5,4.4c0.1,0.5,0.1,1,0.1,1.6c0.8-1.1,1.4-2.2,2.2-3.1c2.4-2.7,5.6-3.5,9-2.7
		c2.5,0.6,3.9,2.9,4,6.1c0,3.8,0,7.7,0,11.5c0,2,0.2,4,0.3,6.1h-5.8c0-5.3,0.1-10.6,0.1-15.8c0-0.5,0-1,0-1.5c0-3.6-2.8-4.8-5.8-3.2
		c-2.7,1.4-4,3.9-4.1,6.9c-0.1,3.3-0.1,6.6,0,9.9c0,1.1,0.3,2.3,0.4,3.6h-5.4v-16v-0.8c0-1.5,0-3-1.5-3.8c-1.6-0.9-3.3-0.5-4.8,0.4
		c-2.1,1.3-3.3,3.4-3.4,5.8c-0.1,4.1,0,8.1,0,12.2C77.8,76.3,78,77,78.2,77.8"/>
	<path class="st0" d="M67.9,51.2c-4-4.1-9-2.9-14-3.1v11.7c2.7-0.4,5.7,1,8.3-1.6v6.9c-2.4-2.3-5.2-1.1-7.8-1.3
		c-0.2,0-0.6,0.5-0.6,0.8c0,3.1,0,6.2,0,9.5c5-0.3,10.2,1,14.2-3.2c0.1,0.1,0.2,0.1,0.3,0.2c-0.6,2.1-1.2,4.3-1.8,6.4
		c-0.1,0.2-0.5,0.4-0.8,0.4c-6.3,0-12.6,0-18.9,0c-0.1,0-0.1-0.1-0.4-0.2c1.5-1.4,1.4-3.3,1.4-5.1c0-7.2,0-14.3,0-21.5
		c0-1.8,0.1-3.6-1.5-5.1c0.6-0.1,1-0.1,1.4-0.1c5.8,0,11.6,0,17.5,0c0.9,0,1.5,0.2,1.7,1.2c0.3,1.3,0.9,2.6,1.3,3.9
		C68.1,51,68,51.1,67.9,51.2"/>
	<path class="st0" d="M188.1,77.8h-6c0.4-7.8,0.5-15.6,0-23.4h5.7V60c0.1,0,0.2,0,0.2,0.1c0.3-0.4,0.5-0.9,0.8-1.3
		c1.9-3.5,4.9-5.1,8.8-4.9c3.1,0.1,5.2,2,5.5,5.1c0.1,1.4,0.2,2.8,0.2,4.3c0,2.8,0,5.6,0,8.5v6.2h-5.5c0-5.2,0.1-10.4,0.1-15.6
		c0-0.5,0-1.1,0-1.6c-0.1-1.5-0.5-2.9-2-3.5c-1.6-0.7-3.3-0.4-4.6,0.7c-2.2,1.9-3.5,4.3-3.5,7.2c0,3.1,0,6.3,0,9.4
		C187.8,75.5,188,76.6,188.1,77.8"/>
	<path class="st0" d="M230.9,54.4c-0.6,7.9-0.6,15.6-0.1,23.5c-1.6,0-3.4,0-5.1,0c-0.2,0-0.5-0.7-0.5-1c-0.1-1.3,0-2.7,0-4.2
		c-0.9,1.2-1.5,2.3-2.3,3.2c-2.3,2.5-5.2,3.3-8.4,2.9c-1.8-0.2-3.1-1.2-3.8-2.9c-0.5-1.3-0.9-2.7-0.9-4c-0.1-5.4,0-10.7-0.1-16.1
		c0-0.9,0.2-1.3,1.2-1.4c4.1,0,4.1-0.1,4.1,4c0,4.5,0.2,9,0,13.5c-0.1,3.9,3,4.5,5.4,3.5c3.1-1.3,4.3-4.1,4.5-7.2
		c0.2-4,0.2-8,0.1-12.1c0-1.3,0.3-1.9,1.7-1.7C228.2,54.5,229.5,54.4,230.9,54.4"/>
	<path class="st0" d="M269.4,41.1c-2.4,1.3-5,2.5-7.3,4.1c-5.1,3.6-8.2,8.9-10.6,14.5c-2.1,4.9-3.4,10-4.4,15.2
		c-0.4,2.5-2.4,3.9-5.2,3.8c-2.5-0.1-4.2-1.7-4.3-4.2c-0.2-3.5-0.2-7-0.3-10.5c-0.1-3.2-0.2-6.3-0.3-9.7c1.5,0,3.3,0,5,0.1
		c0.2,0,0.5,0.8,0.5,1.2c0,4.3,0,8.7,0,13c0,1.1,0,2.2,0.2,3.3c0.5-2.1,1-4.3,1.6-6.3c2.1-6.9,5.6-13,11.1-17.8
		c3.8-3.3,8.2-5.5,13.2-6.6C269,41.1,269.3,41.1,269.4,41.1"/>
	<path class="st0" d="M170.5,62.7c0-1.4,0.1-2.7,0-4c-0.1-2.2-1.1-3.4-3.3-3.8c-1.8-0.3-3.4,0.1-4.8,1c0.5,0.8,1.2,1.5,1.4,2.3
		c0.3,1.1-0.1,2-1.3,2.5c-1.2,0.5-2.9,0.1-3.6-0.8c-0.6-0.8-0.7-2.5,0.1-3.2c1-0.9,2.2-1.8,3.4-2.2c2.8-0.8,5.8-1.1,8.7-0.3
		c2.6,0.7,4.4,2.6,4.6,5.3c0.2,4.3,0.2,8.6,0.2,12.9c0,1.8,0,3.6,0,5.4h-5.4v-3.5c-1,0.9-1.7,1.7-2.6,2.4c-2.5,1.9-5.3,2.3-8.2,1.5
		c-4.1-1.1-5.7-6.9-3-10.1c2.4-2.8,5.7-3.7,9.1-4.5C167.3,63.3,168.9,63,170.5,62.7 M170.4,63.4c-2.3,0.7-4.4,1.3-6.4,2.2
		c-0.9,0.4-1.7,1.2-2.3,1.9c-1.3,1.6-1.3,4.4-0.2,6.2c1.1,1.8,2.8,2.5,5.4,2c1.9-0.4,3.3-1.8,3.5-4.2
		C170.6,68.9,170.4,66.4,170.4,63.4z"/>
	<path class="st0" d="M274.4,78.1c-1.6,0-3.2,0-4.8,0c-0.3,0-0.7-0.5-0.7-0.8c-0.1-0.9,0-1.8,0-3c-0.4,0.4-0.6,0.6-0.8,0.9
		c-2.5,2.9-5.6,4-9.4,3.3c-2.5-0.4-4.1-2-4.7-4.4c-0.7-2.6-0.2-5.1,2-6.9c2.4-2,5.3-2.8,8.3-3.5c1.5-0.3,3-0.6,4.6-0.9
		c-0.2-2.6,0.7-5.4-1.8-7.2c-1.6-1.2-4.7-0.8-6.4,0.5c0.5,0.6,1.1,1,1.3,1.7c0.3,1,0.2,2.1-0.8,2.7c-1,0.6-2.7,0.6-3.5-0.1
		c-0.9-0.8-1.3-1.7-0.8-2.9c0.6-1.5,1.8-2.3,3.1-2.7c2.9-0.9,5.9-1.3,9-0.6c3.2,0.8,5.1,3,5.2,6.3c0.1,3.9,0,7.9,0,11.8
		C274.1,74.1,274.2,76,274.4,78.1 M269,63.9c-2.8,0-5,0.7-7.1,1.9c-2.5,1.4-3.5,3.6-2.9,6.4c0.4,2.2,2.2,3.7,4.4,3.8
		c2.2,0.1,4.4-1.2,4.8-3.2C268.7,69.8,268.8,66.9,269,63.9z"/>
	<path class="st0" d="M280.6,41.6c1.6,0,3.4,0,5.1,0c0.2,0,0.5,0.4,0.6,0.7c0.1,0.4,0,0.8,0,1.2c0,8.8,0,17.6,0,26.4
		c0,2.6,0.1,5.2,0.2,7.9h-5.8C281.1,65.8,281.1,53.8,280.6,41.6"/>
	<path class="st0" d="M18.7,69.2c2.1,0.4,4.1,0.6,6,1.1c2.8,0.7,5.3,1.9,7.1,4.3c0.7,1,1.1,2,0.9,3.2c-0.2,1.6-1.6,2.4-3,1.6
		c-0.9-0.5-1.7-1.3-2.4-2c-1.2-1.3-2.1-2.7-3.3-3.9C22.4,72,20.6,70.7,18.7,69.2"/>
	<path class="st0" d="M275.8,86.9c-1,1.3-1.8,2.5-2.7,3.7c-0.7,0.9-0.8,1.5,0,2.4c1.1,1.2,2,2.6,3,3.9c-2.2,0.8-3.3,0.4-4.5-1.2
		c-0.6-0.9-1.2-1.7-2.1-2.9v4.3h-2.7V86.8h2.6v3.9c0.1,0,0.2,0.1,0.3,0.1c0.5-0.7,1.2-1.4,1.5-2.2C272.1,86.6,273.7,86.4,275.8,86.9
		"/>
	<path class="st0" d="M235.1,94c0.7,0.4,1.4,0.9,2.1,1c0.5,0.1,1-0.4,1.5-0.7c-0.3-0.4-0.5-1-0.9-1.3c-0.4-0.3-0.9-0.3-1.4-0.5
		c-1.6-0.6-2.3-1.7-2.1-3.1c0.3-1.7,1.4-3,3.1-3c1.2,0,2.3,0.3,3.7,0.5c-0.4,1-0.6,1.7-0.9,2.3c-0.7-0.3-1.3-0.6-1.9-0.6
		c-0.4,0-0.8,0.4-1.2,0.6c0.2,0.3,0.4,0.8,0.7,1c0.4,0.3,0.9,0.3,1.4,0.5c1.4,0.4,2.2,1.3,2.3,2.8c0.1,1.6-0.7,3.1-2.1,3.5
		c-1.1,0.3-2.3,0.4-3.4,0.1C233.6,96.7,233.5,95.9,235.1,94"/>
	<path class="st0" d="M281.1,93.9c0.7,0.4,1.3,0.9,1.9,1c0.5,0.1,1.1-0.4,1.7-0.6c-0.3-0.5-0.6-1-1-1.4c-0.3-0.3-0.8-0.3-1.3-0.4
		c-1.8-0.7-2.3-1.6-2-3.5c0.2-1.4,1.4-2.5,3-2.6c0.5,0,1.1,0,1.6,0c2.1,0.3,2.4,1,1.1,2.8c-0.6-0.2-1.1-0.5-1.7-0.6
		c-0.4,0-0.8,0.4-1.2,0.6c0.2,0.3,0.4,0.7,0.7,1c0.3,0.2,0.7,0.3,1,0.4c2.1,0.7,2.7,1.5,2.6,3.4c-0.1,1.7-1.1,3-2.9,3.3
		c-0.8,0.1-1.6,0.1-2.4-0.1C279.6,96.7,279.4,96,281.1,93.9"/>
	<path class="st0" d="M16.6,68.5c1.5-1.5,3.2-2.2,5.1-2.5c2.2-0.4,4.4-0.4,6.5,0.6c0.6,0.3,1.2,0.8,1.6,1.4c0.7,1,0.1,2.2-1.1,2.3
		c-0.6,0-1.3,0-1.9-0.3c-2.6-1.2-5.3-1.7-8.2-1.3c-0.5,0.1-1,0-1.5,0C17,68.7,16.9,68.6,16.6,68.5"/>
	<path class="st0" d="M255.4,97.1V86.8h2.8c0,2.2,0.1,4.3,0,6.4c0,1.2,0.3,1.6,1.5,1.5c2.2-0.1,2.2,0,1.9,2.4H255.4z"/>
	<path class="st0" d="M15.1,68.2c1.8-3.5,4.3-6,8.2-6.8c0.4-0.1,0.8-0.1,1.3-0.1c0.9,0.1,1.6,0.4,1.7,1.4c0.1,1-0.5,1.6-1.5,1.7
		c-0.9,0.1-1.8,0.1-2.6,0.3c-2.3,0.4-4.2,1.4-6,2.8C15.8,67.8,15.4,68,15.1,68.2"/>
	<path class="st0" d="M246.6,86.8h2.9V97c-0.1,0.1-0.1,0.2-0.2,0.2c-2.7,0.4-2.7,0.3-2.7-2.3C246.6,92.2,246.6,89.5,246.6,86.8"/>
</g>
</svg>
