<?xml version="1.0" encoding="utf-8"?>
<!-- Generator: Adobe Illustrator 26.0.1, SVG Export Plug-In . SVG Version: 6.00 Build 0)  -->
<svg version="1.1" id="Layer_1" xmlns="http://www.w3.org/2000/svg" xmlns:xlink="http://www.w3.org/1999/xlink" x="0px" y="0px"
	 viewBox="0 0 300 200" style="enable-background:new 0 0 300 200;" xml:space="preserve">
<style type="text/css">
	.st0{fill:url(#SVGID_1_);}
	.st1{fill:url(#SVGID_00000170276306874661561180000012776419739552032439_);}
	.st2{fill:url(#SVGID_00000150066661595502176590000013192983716019823798_);}
	.st3{fill:url(#SVGID_00000157994831507285478960000011558622075535727004_);}
	.st4{fill:url(#SVGID_00000169560343116740221000000014937667682151108250_);}
	.st5{fill:url(#SVGID_00000101070955048335984240000015755893296945044661_);}
	.st6{fill:url(#SVGID_00000085232751041660004940000009138974718456579258_);}
	.st7{fill:#E8B474;}
	.st8{fill:url(#SVGID_00000132066424087746175450000003304804864871806112_);}
	.st9{fill:url(#SVGID_00000147904515406025457750000015812475619923907222_);}
	.st10{fill:url(#SVGID_00000078002893895035893550000013810393104908064389_);}
	.st11{fill:url(#SVGID_00000130609464038174425440000016526635128957403551_);}
	.st12{fill:url(#SVGID_00000171705315099661695680000017001880392324690584_);}
	.st13{fill:url(#SVGID_00000069373295467191524660000006023083294398364075_);}
	.st14{fill:url(#SVGID_00000089544793939469717630000007534302466124855735_);}
	.st15{fill:url(#SVGID_00000071538192546714203470000000559511589599570311_);}
	.st16{fill:url(#SVGID_00000137847196412935716220000014395962929929668265_);}
	.st17{fill:url(#SVGID_00000017493550773073025300000006236732279552679821_);}
	.st18{fill:url(#SVGID_00000179628619385978219160000012539381655704392365_);}
	.st19{fill:url(#SVGID_00000119832828676125987880000013185731834015405214_);}
	.st20{fill:url(#SVGID_00000167391362579048077640000013095644962523437213_);}
	.st21{fill:url(#SVGID_00000009558104675676961620000010441787132830102959_);}
	.st22{fill:url(#SVGID_00000029743997811893471760000018208574664871011999_);}
	.st23{fill:url(#SVGID_00000169519038964092768030000003545735356102263467_);}
	.st24{fill:url(#SVGID_00000091696520103396094470000011577575910600179081_);}
	.st25{fill:url(#SVGID_00000140705236138099267800000015183250583645422213_);}
	.st26{fill:url(#SVGID_00000024712743803007502560000008026204414523741588_);}
	.st27{fill:url(#SVGID_00000000944927704601304640000009698738658366795187_);}
	.st28{fill:none;}
	.st29{fill:url(#SVGID_00000063620638820622906890000003152615149431052454_);}
</style>
<g>
	<g>
		<g>
			<linearGradient id="SVGID_1_" gradientUnits="userSpaceOnUse" x1="77.3406" y1="160.0142" x2="77.3406" y2="98.5312">
				<stop  offset="0" style="stop-color:#F58345"/>
				<stop  offset="1" style="stop-color:#E3C285"/>
			</linearGradient>
			<path class="st0" d="M65.2,113.1h4.6l7.5,11.6l7.5-11.6h4.6v24.6h-4.3V120l-7.8,11.6h-0.1l-7.7-11.5v17.6h-4.3V113.1z"/>
			
				<linearGradient id="SVGID_00000008127557563627579790000002249639918181680055_" gradientUnits="userSpaceOnUse" x1="106.4812" y1="160.0142" x2="106.4812" y2="98.5312">
				<stop  offset="0" style="stop-color:#F58345"/>
				<stop  offset="1" style="stop-color:#E3C285"/>
			</linearGradient>
			<path style="fill:url(#SVGID_00000008127557563627579790000002249639918181680055_);" d="M104.5,112.9h4l10.8,24.8h-4.6l-2.5-5.9
				h-11.6l-2.5,5.9h-4.4L104.5,112.9z M110.7,127.9l-4.3-9.8l-4.2,9.8H110.7z"/>
			
				<linearGradient id="SVGID_00000073692126195250734410000004225016695110121645_" gradientUnits="userSpaceOnUse" x1="134.4105" y1="160.0142" x2="134.4105" y2="98.5312">
				<stop  offset="0" style="stop-color:#F58345"/>
				<stop  offset="1" style="stop-color:#E3C285"/>
			</linearGradient>
			<path style="fill:url(#SVGID_00000073692126195250734410000004225016695110121645_);" d="M123.5,113.1h4.3v12.4l11.7-12.4h5.3
				l-10.2,10.6l10.7,14h-5.2l-8.4-11.1l-3.8,3.9v7.1h-4.3V113.1z"/>
			
				<linearGradient id="SVGID_00000082366286832523092710000017888555859283294130_" gradientUnits="userSpaceOnUse" x1="158.2089" y1="160.0142" x2="158.2089" y2="98.5312">
				<stop  offset="0" style="stop-color:#F58345"/>
				<stop  offset="1" style="stop-color:#E3C285"/>
			</linearGradient>
			<path style="fill:url(#SVGID_00000082366286832523092710000017888555859283294130_);" d="M149,113.1h18.2v3.9h-13.9v6.3h12.3v3.9
				h-12.3v6.6h14.1v3.9H149V113.1z"/>
			
				<linearGradient id="SVGID_00000004519652910793007630000007091416485220819107_" gradientUnits="userSpaceOnUse" x1="174.9585" y1="154.3067" x2="174.9585" y2="108.5435">
				<stop  offset="0" style="stop-color:#F58345"/>
				<stop  offset="1" style="stop-color:#E3C285"/>
			</linearGradient>
			<path style="fill:url(#SVGID_00000004519652910793007630000007091416485220819107_);" d="M172.8,119.4h4.3v18.3h-4.3V119.4z"/>
			
				<linearGradient id="SVGID_00000124877489005989302980000012586918264710962306_" gradientUnits="userSpaceOnUse" x1="194.8367" y1="160.0142" x2="194.8367" y2="98.5312">
				<stop  offset="0" style="stop-color:#F58345"/>
				<stop  offset="1" style="stop-color:#E3C285"/>
			</linearGradient>
			<path style="fill:url(#SVGID_00000124877489005989302980000012586918264710962306_);" d="M183.7,113.1h9.2c1.9,0,3.7,0.3,5.3,0.9
				c1.6,0.6,3,1.5,4.1,2.6c1.2,1.1,2.1,2.4,2.7,3.9c0.6,1.5,0.9,3.1,0.9,4.8v0.1c0,1.7-0.3,3.4-0.9,4.9c-0.6,1.5-1.5,2.8-2.7,3.9
				c-1.2,1.1-2.5,2-4.1,2.6c-1.6,0.6-3.4,0.9-5.3,0.9h-9.2V113.1z M192.9,133.8c1.3,0,2.5-0.2,3.5-0.6c1.1-0.4,2-1,2.7-1.7
				c0.7-0.7,1.3-1.6,1.7-2.6c0.4-1,0.6-2.1,0.6-3.3v-0.1c0-1.2-0.2-2.3-0.6-3.4c-0.4-1-1-1.9-1.7-2.7c-0.7-0.7-1.6-1.3-2.7-1.7
				c-1.1-0.4-2.2-0.6-3.5-0.6H188v16.8H192.9z"/>
			
				<linearGradient id="SVGID_00000178165283180717878260000016742355977060274598_" gradientUnits="userSpaceOnUse" x1="221.9209" y1="160.0142" x2="221.9209" y2="98.5312">
				<stop  offset="0" style="stop-color:#F58345"/>
				<stop  offset="1" style="stop-color:#E3C285"/>
			</linearGradient>
			<path style="fill:url(#SVGID_00000178165283180717878260000016742355977060274598_);" d="M219.9,112.9h4l10.8,24.8h-4.6l-2.5-5.9
				h-11.6l-2.5,5.9h-4.4L219.9,112.9z M226.1,127.9l-4.3-9.8l-4.2,9.8H226.1z"/>
			<circle class="st7" cx="175" cy="115.3" r="2.4"/>
		</g>
		<g>
			
				<linearGradient id="SVGID_00000078039915526562338740000005707038113663580567_" gradientUnits="userSpaceOnUse" x1="104.935" y1="195.4869" x2="104.935" y2="141.8174">
				<stop  offset="0" style="stop-color:#F58345"/>
				<stop  offset="1" style="stop-color:#E3C285"/>
			</linearGradient>
			<path style="fill:url(#SVGID_00000078039915526562338740000005707038113663580567_);" d="M92.8,149.7h4.6l7.5,11.6l7.5-11.6h4.6
				v24.6h-4.3v-17.6l-7.8,11.6h-0.1l-7.7-11.5v17.6h-4.3V149.7z"/>
			
				<linearGradient id="SVGID_00000066485270967072970940000008044323092339267502_" gradientUnits="userSpaceOnUse" x1="145.6239" y1="195.4869" x2="145.6239" y2="141.8174">
				<stop  offset="0" style="stop-color:#F58345"/>
				<stop  offset="1" style="stop-color:#E3C285"/>
			</linearGradient>
			<path style="fill:url(#SVGID_00000066485270967072970940000008044323092339267502_);" d="M134.5,149.7h9.2c1.9,0,3.7,0.3,5.3,0.9
				c1.6,0.6,3,1.5,4.1,2.6c1.2,1.1,2.1,2.4,2.7,3.9s0.9,3.1,0.9,4.8v0.1c0,1.7-0.3,3.4-0.9,4.9c-0.6,1.5-1.5,2.8-2.7,3.9
				c-1.2,1.1-2.5,2-4.1,2.6c-1.6,0.6-3.4,0.9-5.3,0.9h-9.2V149.7z M143.6,170.4c1.3,0,2.5-0.2,3.5-0.6c1.1-0.4,2-1,2.7-1.7
				c0.7-0.7,1.3-1.6,1.7-2.6c0.4-1,0.6-2.1,0.6-3.3V162c0-1.2-0.2-2.3-0.6-3.4c-0.4-1-1-1.9-1.7-2.7c-0.7-0.7-1.6-1.3-2.7-1.7
				c-1.1-0.4-2.2-0.6-3.5-0.6h-4.9v16.8H143.6z"/>
			
				<linearGradient id="SVGID_00000111878399834710791250000004231815276304225953_" gradientUnits="userSpaceOnUse" x1="172.7081" y1="195.4869" x2="172.7081" y2="141.8174">
				<stop  offset="0" style="stop-color:#F58345"/>
				<stop  offset="1" style="stop-color:#E3C285"/>
			</linearGradient>
			<path style="fill:url(#SVGID_00000111878399834710791250000004231815276304225953_);" d="M170.7,149.5h4l10.8,24.8H181l-2.5-5.9
				h-11.6l-2.5,5.9h-4.4L170.7,149.5z M176.9,164.5l-4.3-9.8l-4.2,9.8H176.9z"/>
			
				<linearGradient id="SVGID_00000178195156769447766060000018277433659359814847_" gradientUnits="userSpaceOnUse" x1="197.6485" y1="195.4869" x2="197.6485" y2="141.8174">
				<stop  offset="0" style="stop-color:#F58345"/>
				<stop  offset="1" style="stop-color:#E3C285"/>
			</linearGradient>
			<path style="fill:url(#SVGID_00000178195156769447766060000018277433659359814847_);" d="M198.4,174.6c-1.9,0-3.7-0.3-5.4-1
				c-1.7-0.6-3.3-1.6-4.8-3l2.6-3.1c1.2,1,2.4,1.8,3.6,2.4c1.2,0.6,2.6,0.8,4.1,0.8c1.3,0,2.4-0.3,3.2-0.8c0.8-0.6,1.2-1.3,1.2-2.3
				v-0.1c0-0.4-0.1-0.8-0.2-1.2c-0.2-0.3-0.4-0.7-0.8-1c-0.4-0.3-1-0.6-1.7-0.8c-0.7-0.3-1.7-0.5-2.8-0.8c-1.3-0.3-2.5-0.6-3.5-1
				c-1-0.4-1.9-0.9-2.6-1.4c-0.7-0.6-1.2-1.2-1.6-2c-0.4-0.8-0.5-1.8-0.5-2.9v-0.1c0-1.1,0.2-2,0.6-2.9c0.4-0.9,1-1.6,1.7-2.2
				s1.6-1.1,2.6-1.5c1-0.4,2.2-0.5,3.4-0.5c1.8,0,3.4,0.3,4.9,0.8c1.4,0.5,2.8,1.3,4.1,2.3l-2.3,3.3c-1.1-0.8-2.2-1.4-3.3-1.9
				c-1.1-0.4-2.2-0.7-3.3-0.7c-1.3,0-2.2,0.3-3,0.8c-0.7,0.6-1.1,1.3-1.1,2.1v0.1c0,0.5,0.1,0.9,0.2,1.2c0.2,0.4,0.5,0.7,0.9,1
				c0.4,0.3,1,0.6,1.8,0.8c0.8,0.3,1.7,0.5,2.9,0.8c1.3,0.3,2.4,0.7,3.4,1.1c1,0.4,1.8,0.9,2.5,1.5c0.7,0.6,1.2,1.2,1.5,2
				c0.3,0.8,0.5,1.6,0.5,2.7v0.1c0,1.1-0.2,2.2-0.6,3.1c-0.4,0.9-1,1.7-1.8,2.3s-1.7,1.1-2.8,1.4
				C200.9,174.5,199.7,174.6,198.4,174.6z"/>
			<g>
				
					<linearGradient id="SVGID_00000052092430842623812300000018407998672428861057_" gradientUnits="userSpaceOnUse" x1="125.7614" y1="190.8909" x2="125.7614" y2="145.1277">
					<stop  offset="0" style="stop-color:#F58345"/>
					<stop  offset="1" style="stop-color:#E3C285"/>
				</linearGradient>
				<path style="fill:url(#SVGID_00000052092430842623812300000018407998672428861057_);" d="M123.6,156h4.3v18.3h-4.3V156z"/>
				<circle class="st7" cx="125.8" cy="151.9" r="2.4"/>
			</g>
		</g>
	</g>
	<g>
		<g>
			
				<linearGradient id="SVGID_00000127039135004335757980000012290002529540651671_" gradientUnits="userSpaceOnUse" x1="65.5655" y1="189.6953" x2="235.4398" y2="189.6953">
				<stop  offset="0" style="stop-color:#F58345"/>
				<stop  offset="1" style="stop-color:#E3C285"/>
			</linearGradient>
			<path style="fill:url(#SVGID_00000127039135004335757980000012290002529540651671_);" d="M65.3,184.9h4.1c1.1,0,2,0.3,2.5,0.8
				c0.4,0.4,0.6,0.9,0.6,1.5v0c0,1.2-0.8,1.9-1.5,2.2c1.1,0.3,2.1,1,2.1,2.3v0c0,1.6-1.4,2.6-3.5,2.6h-4.3V184.9z M69.2,189.2
				c1.3,0,2.2-0.6,2.2-1.7v0c0-0.9-0.8-1.6-2.1-1.6h-2.9v3.3H69.2z M69.6,193.5c1.5,0,2.4-0.6,2.4-1.7v0c0-1-0.9-1.6-2.5-1.6h-3v3.4
				H69.6z"/>
			
				<linearGradient id="SVGID_00000181808298807627479510000004556691727412758669_" gradientUnits="userSpaceOnUse" x1="65.5655" y1="189.6953" x2="235.4398" y2="189.6953">
				<stop  offset="0" style="stop-color:#F58345"/>
				<stop  offset="1" style="stop-color:#E3C285"/>
			</linearGradient>
			<path style="fill:url(#SVGID_00000181808298807627479510000004556691727412758669_);" d="M77.4,184.9h6.9v1h-5.8v3.3h5.2v1h-5.2
				v3.4h5.9v1h-7V184.9z"/>
			
				<linearGradient id="SVGID_00000079452748633054893140000001521721731864575924_" gradientUnits="userSpaceOnUse" x1="65.5655" y1="189.6609" x2="235.4398" y2="189.6609">
				<stop  offset="0" style="stop-color:#F58345"/>
				<stop  offset="1" style="stop-color:#E3C285"/>
			</linearGradient>
			<path style="fill:url(#SVGID_00000079452748633054893140000001521721731864575924_);" d="M92.3,184.8h1l4.4,9.7h-1.2l-1.1-2.5
				h-5.2l-1.1,2.5H88L92.3,184.8z M95,191l-2.2-4.9l-2.2,4.9H95z"/>
			
				<linearGradient id="SVGID_00000013156561308461752910000014562100442755683982_" gradientUnits="userSpaceOnUse" x1="65.5655" y1="189.7707" x2="235.4398" y2="189.7707">
				<stop  offset="0" style="stop-color:#F58345"/>
				<stop  offset="1" style="stop-color:#E3C285"/>
			</linearGradient>
			<path style="fill:url(#SVGID_00000013156561308461752910000014562100442755683982_);" d="M101.3,190.5v-5.6h1.1v5.5
				c0,2.1,1.1,3.2,2.9,3.2c1.8,0,2.9-1.1,2.9-3.2v-5.6h1.1v5.5c0,2.8-1.6,4.2-4,4.2C102.9,194.6,101.3,193.2,101.3,190.5z"/>
			
				<linearGradient id="SVGID_00000026151632296423992710000014032107764795791273_" gradientUnits="userSpaceOnUse" x1="65.5655" y1="189.6953" x2="235.4398" y2="189.6953">
				<stop  offset="0" style="stop-color:#F58345"/>
				<stop  offset="1" style="stop-color:#E3C285"/>
			</linearGradient>
			<path style="fill:url(#SVGID_00000026151632296423992710000014032107764795791273_);" d="M116.6,185.9h-3.2v-1h7.5v1h-3.2v8.6
				h-1.1V185.9z"/>
			
				<linearGradient id="SVGID_00000153689685955982843880000006360069597756947380_" gradientUnits="userSpaceOnUse" x1="65.5655" y1="189.6953" x2="235.4398" y2="189.6953">
				<stop  offset="0" style="stop-color:#F58345"/>
				<stop  offset="1" style="stop-color:#E3C285"/>
			</linearGradient>
			<path style="fill:url(#SVGID_00000153689685955982843880000006360069597756947380_);" d="M128.1,190.7l-4-5.8h1.3l3.2,4.8
				l3.3-4.8h1.3l-4,5.8v3.8h-1.1V190.7z"/>
			
				<linearGradient id="SVGID_00000008864911849715724770000016877319163618167210_" gradientUnits="userSpaceOnUse" x1="65.5655" y1="189.6953" x2="235.4398" y2="189.6953">
				<stop  offset="0" style="stop-color:#F58345"/>
				<stop  offset="1" style="stop-color:#E3C285"/>
			</linearGradient>
			<path style="fill:url(#SVGID_00000008864911849715724770000016877319163618167210_);" d="M143,189.7L143,189.7c0-2.7,2-5,4.8-5
				c1.7,0,2.8,0.6,3.7,1.5l-0.7,0.8c-0.8-0.8-1.7-1.3-3-1.3c-2.1,0-3.7,1.7-3.7,3.9v0c0,2.2,1.6,4,3.7,4c1.3,0,2.2-0.5,3.1-1.4
				l0.7,0.7c-1,1-2.1,1.7-3.8,1.7C145,194.7,143,192.5,143,189.7z"/>
			
				<linearGradient id="SVGID_00000052807695170693600820000013808409692911545533_" gradientUnits="userSpaceOnUse" x1="65.5655" y1="189.6953" x2="235.4398" y2="189.6953">
				<stop  offset="0" style="stop-color:#F58345"/>
				<stop  offset="1" style="stop-color:#E3C285"/>
			</linearGradient>
			<path style="fill:url(#SVGID_00000052807695170693600820000013808409692911545533_);" d="M155,189.7L155,189.7c0-2.7,2-5,4.9-5
				c2.9,0,4.9,2.3,4.9,4.9v0c0,2.6-2,5-4.9,5C156.9,194.7,155,192.4,155,189.7z M163.6,189.7L163.6,189.7c0-2.2-1.6-4-3.8-4
				s-3.8,1.8-3.8,3.9v0c0,2.2,1.6,4,3.8,4S163.6,191.9,163.6,189.7z"/>
			
				<linearGradient id="SVGID_00000165949879745481773850000017248946492168324485_" gradientUnits="userSpaceOnUse" x1="65.5655" y1="189.6953" x2="235.4398" y2="189.6953">
				<stop  offset="0" style="stop-color:#F58345"/>
				<stop  offset="1" style="stop-color:#E3C285"/>
			</linearGradient>
			<path style="fill:url(#SVGID_00000165949879745481773850000017248946492168324485_);" d="M169.2,184.9h1l6,7.7v-7.7h1.1v9.6h-0.9
				l-6.2-7.9v7.9h-1.1V184.9z"/>
			
				<linearGradient id="SVGID_00000055666560790235670320000001883185521684285868_" gradientUnits="userSpaceOnUse" x1="65.5655" y1="189.6953" x2="235.4398" y2="189.6953">
				<stop  offset="0" style="stop-color:#F58345"/>
				<stop  offset="1" style="stop-color:#E3C285"/>
			</linearGradient>
			<path style="fill:url(#SVGID_00000055666560790235670320000001883185521684285868_);" d="M181.8,189.7L181.8,189.7
				c0-2.7,2-5,4.8-5c1.7,0,2.8,0.6,3.7,1.5l-0.7,0.8c-0.8-0.8-1.7-1.3-3-1.3c-2.1,0-3.7,1.7-3.7,3.9v0c0,2.2,1.6,4,3.7,4
				c1.3,0,2.2-0.5,3.1-1.4l0.7,0.7c-1,1-2.1,1.7-3.8,1.7C183.9,194.7,181.8,192.5,181.8,189.7z"/>
			
				<linearGradient id="SVGID_00000071539483760766124460000018290146613773101232_" gradientUnits="userSpaceOnUse" x1="65.5655" y1="189.6953" x2="235.4398" y2="189.6953">
				<stop  offset="0" style="stop-color:#F58345"/>
				<stop  offset="1" style="stop-color:#E3C285"/>
			</linearGradient>
			<path style="fill:url(#SVGID_00000071539483760766124460000018290146613773101232_);" d="M194.5,184.9h6.9v1h-5.8v3.3h5.2v1h-5.2
				v3.4h5.9v1h-7V184.9z"/>
			
				<linearGradient id="SVGID_00000059990578013998285940000007791911611843856053_" gradientUnits="userSpaceOnUse" x1="65.5655" y1="189.6953" x2="235.4398" y2="189.6953">
				<stop  offset="0" style="stop-color:#F58345"/>
				<stop  offset="1" style="stop-color:#E3C285"/>
			</linearGradient>
			<path style="fill:url(#SVGID_00000059990578013998285940000007791911611843856053_);" d="M205.9,184.9h3.6c2.2,0,3.6,1.2,3.6,3v0
				c0,2.1-1.7,3.1-3.8,3.1H207v3.4h-1.1V184.9z M209.4,190.1c1.6,0,2.6-0.8,2.6-2.1v0c0-1.4-1-2.1-2.6-2.1H207v4.2H209.4z"/>
			
				<linearGradient id="SVGID_00000041259097544896630440000017172499378580618666_" gradientUnits="userSpaceOnUse" x1="65.5655" y1="189.6953" x2="235.4398" y2="189.6953">
				<stop  offset="0" style="stop-color:#F58345"/>
				<stop  offset="1" style="stop-color:#E3C285"/>
			</linearGradient>
			<path style="fill:url(#SVGID_00000041259097544896630440000017172499378580618666_);" d="M219.8,185.9h-3.2v-1h7.5v1h-3.2v8.6
				h-1.1V185.9z"/>
			
				<linearGradient id="SVGID_00000145749350468587378700000006416559365631291264_" gradientUnits="userSpaceOnUse" x1="65.5655" y1="189.6953" x2="235.4398" y2="189.6953">
				<stop  offset="0" style="stop-color:#F58345"/>
				<stop  offset="1" style="stop-color:#E3C285"/>
			</linearGradient>
			<path style="fill:url(#SVGID_00000145749350468587378700000006416559365631291264_);" d="M227.5,193.1l0.7-0.8
				c1,0.9,2,1.4,3.3,1.4c1.3,0,2.1-0.7,2.1-1.6v0c0-0.9-0.5-1.4-2.5-1.8c-2.2-0.5-3.2-1.2-3.2-2.8v0c0-1.5,1.3-2.6,3.1-2.6
				c1.4,0,2.4,0.4,3.4,1.2l-0.6,0.8c-0.9-0.7-1.8-1-2.8-1c-1.2,0-2,0.7-2,1.5v0c0,0.9,0.5,1.4,2.6,1.9c2.1,0.5,3.1,1.2,3.1,2.7v0
				c0,1.6-1.4,2.7-3.3,2.7C229.9,194.6,228.6,194.1,227.5,193.1z"/>
		</g>
		<g>
			
				<linearGradient id="SVGID_00000177455157729581165110000016400097452634864811_" gradientUnits="userSpaceOnUse" x1="118.6381" y1="83.8065" x2="189.7602" y2="44.6705">
				<stop  offset="0" style="stop-color:#F58345"/>
				<stop  offset="1" style="stop-color:#E3C285"/>
			</linearGradient>
			<path style="fill:url(#SVGID_00000177455157729581165110000016400097452634864811_);" d="M198.1,53.4c0,21.1-13.7,39.1-32.6,45.5
				c-1.2-4.7-4.7-9.3-15-12.9c-17-5.9-18.1-11.5-14.5-17.4c3.5-5.8,8.9-6.4,15.8-2.3c6.9,4.1,8.5-0.2,9.2-3.4
				c0.4-1.9,1.3-2.3,2.1-2.3c0.5,0,1.9,0.6,2.3-1.1c0.2-0.9-0.3-1.4-0.3-1.4s2.1,0.2,2.1-2.7c0-1,0.6-2.1,0.6-2.1s1.1,0.2,2.7,0.2
				c2.7,0,2.4-2.1,0.9-6.6c-2.3-7.3-0.5-6.9,2.3-16.1c2.2-7.1,1-15.7,0.3-19.1C188.4,20,198.1,35.5,198.1,53.4z"/>
			<path class="st28" d="M173.6,30.8c-2.8,9.2-4.7,8.8-2.3,16.1c1.5,4.5,1.8,6.6-0.9,6.6c-1.6,0-2.7-0.2-2.7-0.2s-0.6,1.1-0.6,2.1
				c0,2.8-2.1,2.7-2.1,2.7s0.5,0.5,0.3,1.4c-0.4,1.6-1.7,1.1-2.3,1.1c-0.8,0-1.6,0.4-2.1,2.3c-0.7,3.2-2.3,7.4-9.2,3.4
				c-6.9-4.1-12.2-3.5-15.8,2.3c-3.5,5.8-2.5,11.5,14.5,17.4c10.3,3.5,13.8,8.2,15,12.9c-4.8,1.6-10,2.5-15.4,2.5
				c-13.7,0-26.1-5.8-34.9-15c1.4-13.2,7.7-28,25.6-37.2c26.3-13.5,30.6-33,31.3-38.6c0.7,0.4,1.4,0.7,2,1.1
				C174.6,15.2,175.8,23.7,173.6,30.8z"/>
			
				<linearGradient id="SVGID_00000010290308845016436350000016410582036253802938_" gradientUnits="userSpaceOnUse" x1="79.5481" y1="88.901" x2="208.2212" y2="-39.7721">
				<stop  offset="0" style="stop-color:#F58345"/>
				<stop  offset="1" style="stop-color:#E3C285"/>
			</linearGradient>
			<path style="fill:url(#SVGID_00000010290308845016436350000016410582036253802938_);" d="M155.1,5.6
				C155.1,5.6,155.1,5.6,155.1,5.6c-2.7-0.2-5.3-0.3-7.9-0.2c-25.2,1.4-45.3,22.4-45.3,48c0,12.8,5,24.4,13.2,33
				c1.4-13.2,7.7-28,25.6-37.2c26.3-13.5,30.6-33,31.3-38.6C166.8,7.9,161.1,6.2,155.1,5.6z M102.8,54.1c0-12.1,4.6-23.7,13-32.5
				c8.3-8.7,19.6-14,31.7-14.9c3.7-0.3,7.5,0.1,11,0.7c-3-0.3-6.3-0.3-9.5,0.1c-14.5,1.9-27.8,9.8-36.6,21.8
				c-5.4,7.4-8.4,16.1-8.8,25.4c-0.2,4.8,0.3,9.6,1.6,14.2C103.7,64.2,102.8,59.2,102.8,54.1z M104.9,54.8c0.4-9,3.3-17.6,8.5-24.7
				c8.5-11.7,21.6-19.5,35.7-21.3c3.7-0.5,7.5-0.3,10.9,0.1c-3-0.1-6.3,0.1-9.5,0.7C137,12,124.1,19.9,115.2,31.2
				c-5.4,6.9-8.7,15.2-9.5,24.1c-0.4,4.8-0.1,9.6,0.9,14.2C105.3,64.8,104.7,59.8,104.9,54.8z M106.9,55.4
				c0.7-8.7,3.9-16.8,9.2-23.5c8.8-11,21.4-18.8,34.6-21.3c3.7-0.7,7.6-0.8,11-0.6c-2.8,0.2-6.2,0.6-9.7,1.5
				c-12.7,3.2-24.8,10.9-34.1,21.6c-5.5,6.4-9.1,14.3-10.2,22.9c-0.6,4.7-0.5,9.5,0.3,14.1C106.8,65.3,106.4,60.4,106.9,55.4z
				 M109.3,70.5c-0.9-4.7-1-9.5-0.4-14.4c1.1-8.4,4.6-16.1,9.9-22.3c9.1-10.5,21-18.1,33.5-21.3c4-1,7.8-1.4,10.8-1.5
				c-2.8,0.4-6.1,1.1-9.6,2.3C141.8,17.3,130.2,25,120.7,35c-5.6,5.9-9.4,13.4-10.9,21.6C108.9,61.2,108.7,66,109.3,70.5z
				 M110.9,56.8c1.5-8,5.2-15.3,10.6-21c9.4-9.9,20.9-17.4,32.4-21.2c4-1.3,7.6-2,10.5-2.4c-2.7,0.8-5.9,1.8-9.4,3.3
				c-10.7,4.5-21.9,12.1-31.6,21.4c-5.7,5.5-9.7,12.5-11.7,20.3c-1.1,4.4-1.5,8.8-1.3,13.2C109.9,65.9,110,61.4,110.9,56.8z
				 M112.9,57.5c1.9-7.6,5.8-14.5,11.3-19.8c9.6-9.3,20.7-16.8,31.3-21.2c3.7-1.6,7.2-2.7,10-3.5c-2.5,1.1-5.5,2.6-8.9,4.4
				c-9.7,5.1-20.2,12.4-30.4,21.3c-5.8,5.1-10,11.5-12.4,19.1c-1.4,4.4-2.1,8.9-2.1,13.4C111.3,66.7,111.8,62.1,112.9,57.5z
				 M114.9,58.2c2.3-7.3,6.4-13.6,12-18.5c9.9-8.7,20.6-16.2,30.1-21.2c3.6-1.9,6.8-3.4,9.3-4.5c-2.1,1.4-4.9,3.3-8.3,5.4
				c-8.3,5.3-18.4,12.7-29.1,21.2c-5.9,4.7-10.3,10.7-13.1,17.8c-1.7,4.2-2.6,8.6-3,12.9C112.8,67,113.5,62.6,114.9,58.2z M114,71.5
				c0.3-4.2,1.3-8.5,2.9-12.6c2.7-6.9,7-12.7,12.7-17.3c10.7-8.5,20.8-15.8,29-21.2c3.4-2.2,6.2-4,8.3-5.5c-1.7,1.7-4.2,3.9-7.5,6.5
				c-7,5.5-16.5,12.9-27.9,21.1c-6,4.3-10.7,9.9-13.8,16.5C115.9,63.1,114.7,67.2,114,71.5z M118.9,59.6c3.1-6.5,7.6-11.9,13.4-16.1
				c11.4-8.2,20.9-15.6,27.9-21.1c3.1-2.5,5.5-4.6,7.3-6.3c-1.5,2-3.6,4.5-6.5,7.3c-5.3,5.1-14.1,12.9-26.6,21
				c-6.1,4-11,9.1-14.5,15.2c-2.1,3.7-3.7,7.7-4.7,11.8C115.9,67.4,117.1,63.4,118.9,59.6z M120.9,60.3c3.4-6,8.2-11,14.1-14.8
				c12.6-8.1,21.5-16,26.8-21.1c2.6-2.6,4.6-4.9,6.1-6.8c-1.3,2.4-3,5.1-5.4,8c-6.4,7.7-15.2,15-25.4,20.9
				c-6.3,3.6-11.4,8.3-15.2,14c-2.3,3.4-4.2,7.2-5.5,11.1C117.4,67.5,118.9,63.8,120.9,60.3z M139.9,48.2
				c-11.9,6.1-18.5,14.7-22.1,22.9c1.3-3.6,3-7,5.1-10.2c3.7-5.5,8.7-10.1,14.8-13.6c10.3-6,19.2-13.3,25.7-21.1
				c2.1-2.6,3.8-5,5-7.2C165.1,27.6,157.4,39.2,139.9,48.2z"/>
		</g>
	</g>
</g>
</svg>
